<svg width="63" height="63" viewBox="0 0 63 63" fill="none" xmlns="http://www.w3.org/2000/svg">
<path d="M57.2394 26.3589H55.125V26.25H31.5V36.75H46.3352C44.1709 42.8623 38.3552 47.25 31.5 47.25C22.8021 47.25 15.75 40.1979 15.75 31.5C15.75 22.8021 22.8021 15.75 31.5 15.75C35.5149 15.75 39.1676 17.2646 41.9488 19.7387L49.3736 12.3139C44.6854 7.94456 38.4142 5.25 31.5 5.25C17.0034 5.25 5.25 17.0034 5.25 31.5C5.25 45.9966 17.0034 57.75 31.5 57.75C45.9966 57.75 57.75 45.9966 57.75 31.5C57.75 29.7399 57.5689 28.0219 57.2394 26.3589Z" fill="#FFC107"/>
<path d="M8.27637 19.2819L16.9008 25.6069C19.2344 19.8293 24.8861 15.75 31.4997 15.75C35.5147 15.75 39.1674 17.2646 41.9486 19.7387L49.3734 12.3139C44.6851 7.94456 38.414 5.25 31.4997 5.25C21.4171 5.25 12.6732 10.9423 8.27637 19.2819Z" fill="#FF3D00"/>
<path d="M31.4999 57.7499C38.2803 57.7499 44.4412 55.1551 49.0992 50.9354L40.9749 44.0605C38.3394 46.0569 35.0634 47.2499 31.4999 47.2499C24.6723 47.2499 18.875 42.8964 16.691 36.8208L8.13086 43.4161C12.4752 51.9172 21.2979 57.7499 31.4999 57.7499Z" fill="#4CAF50"/>
<path d="M57.2394 26.3589H55.125V26.25H31.5V36.75H46.3352C45.2957 39.6861 43.407 42.2179 40.971 44.0619C40.9723 44.0606 40.9736 44.0606 40.9749 44.0593L49.0993 50.9342C48.5244 51.4566 57.75 44.625 57.75 31.5C57.75 29.7399 57.5689 28.0219 57.2394 26.3589Z" fill="#1976D2"/>
</svg>
