<svg width="24" height="24" viewBox="0 0 24 24" fill="none" xmlns="http://www.w3.org/2000/svg">
<path d="M12 1C5.925 1 1 5.925 1 12C1 18.0752 5.925 23 12 23C18.0752 23 23 18.0752 23 12C23 5.925 18.0752 1 12 1ZM13 20.9432V18C13 17.4477 12.5522 17 12 17C11.4477 17 11 17.4477 11 18V20.9432C6.82875 20.482 3.518 17.1712 3.05675 13H6C6.55225 13 7 12.5522 7 12C7 11.4477 6.55225 11 6 11H3.05675C3.518 6.82875 6.82875 3.518 11 3.05675V6C11 6.55225 11.4477 7 12 7C12.5522 7 13 6.55225 13 6V3.05675C17.1712 3.518 20.482 6.82875 20.9432 11H18C17.4477 11 17 11.4477 17 12C17 12.5522 17.4477 13 18 13H20.9432C20.482 17.1712 17.1712 20.482 13 20.9432Z" fill="#2B2C34"/>
</svg>
