<svg width="100" height="45" viewBox="0 0 100 45" fill="none" xmlns="http://www.w3.org/2000/svg">
<g clip-path="url(#clip0_794_1982)">
<path d="M43.4781 26.4021C42.6841 26.8917 41.9658 27.4565 41.1529 27.8143C40.0514 28.3102 38.8571 28.5683 37.6484 28.5715C36.4395 28.5747 35.2439 28.3232 34.1397 27.8331C31.342 26.6657 29.5083 24.5946 28.6766 21.7703C27.5423 17.8351 28.1094 14.2012 31.0395 11.1322C33.9696 8.06319 36.9563 7.63011 40.6236 8.72216C41.3231 8.92928 41.9658 9.38116 42.6085 9.77656C43.2512 10.172 43.497 10.1155 43.6671 9.43765C43.8372 8.75982 44.1964 8.75982 44.7257 8.77865C45.6898 8.77865 46.6728 8.74099 47.6558 8.75982C48.6387 8.77865 48.979 8.91045 48.979 10.1531C48.979 14.5778 48.9601 19.0025 48.9601 23.4084C48.9601 24.6134 48.9223 25.7996 48.9601 26.9858C48.979 27.6824 48.6387 27.9837 48.0149 28.0214C47.0508 28.0778 46.0679 28.0778 45.0849 28.0778C44.1019 28.0778 43.5726 27.9084 43.6671 26.8352C43.686 26.7034 43.5537 26.5716 43.4781 26.4021ZM43.6482 18.2682C43.7616 15.3498 41.2096 12.8833 37.9582 13.1657C35.6898 13.3728 33.2701 15.4627 33.3835 18.5506C33.497 21.6385 35.4818 23.8791 39.0168 23.5967C41.7767 23.3707 43.7805 21.1678 43.6482 18.2682Z" fill="#505CA9"/>
<path d="M84.3294 20.5842C82.3445 20.5842 80.3596 20.5653 78.3747 20.5842C78.0534 20.5842 77.7509 20.7536 77.4296 20.8478C77.543 21.2243 77.5619 21.6762 77.7887 21.9587C78.156 22.4474 78.6248 22.8517 79.163 23.1441C79.7012 23.4365 80.2963 23.6101 80.9078 23.6532C82.7982 23.8038 84.6129 23.8603 86.1252 22.3917C86.2557 22.3008 86.4057 22.2415 86.5632 22.2187C86.7207 22.1957 86.8816 22.2098 87.0326 22.2599C88.0534 22.7871 89.0364 23.3896 90.0383 23.9733C90.6054 24.3122 90.473 24.7641 90.1517 25.1595C88.7717 26.8164 86.9948 27.8143 84.9154 28.3038C82.9148 28.7783 80.8252 28.7329 78.8473 28.172C76.0118 27.3813 73.8379 25.7055 72.5902 22.9377C71.8908 21.3561 71.4371 19.7369 71.5506 18.0235C71.7963 14.126 73.5165 11.0381 77.1082 9.3059C80.6999 7.57368 84.3861 7.68667 87.6186 10.0967C90.8511 12.5068 92.0042 15.6134 91.5316 19.511C91.4371 20.3582 91.0591 20.603 90.2651 20.603C88.2991 20.5654 86.3143 20.5842 84.3294 20.5842ZM86.2764 16.3666C85.8984 14.2954 84.1782 12.9398 82.0609 12.921C79.3388 12.8833 77.5619 14.1072 77.1082 16.3666H86.2764Z" fill="#505CA9"/>
<path d="M61.1727 21.5255C61.702 20.0192 62.1368 18.7954 62.5527 17.5527C63.4222 15.0485 64.254 12.5255 65.1046 10.0025C65.3693 9.21171 65.7852 8.68452 66.806 8.77866C67.8268 8.8728 68.9988 8.77866 70.1141 8.77866C71.2294 8.77866 71.2294 8.92929 70.908 9.87071C70.322 11.6029 69.6793 13.2975 69.0555 14.992C68.0914 17.5339 67.1273 20.0757 66.1443 22.6176C65.5583 24.1803 64.9534 25.7243 64.3107 27.2494C64.0838 27.833 63.6491 28.172 62.9118 28.0966C62.0941 28.0307 61.2721 28.0307 60.4544 28.0966C58.2804 28.2096 58.1481 28.1908 57.392 26.1761C55.3253 20.8289 53.2961 15.469 51.305 10.0966C50.8702 8.96694 51.0215 8.77866 52.2313 8.75983C53.4411 8.741 54.5564 8.77866 55.7285 8.75983C56.3145 8.75983 56.598 9.0046 56.7871 9.58828C57.9402 13.0151 59.15 16.4418 60.3598 19.8498C60.53 20.3393 60.8135 20.7912 61.1727 21.5255Z" fill="#505CA9"/>
<path d="M3.40571 19.1344C3.40571 17.7599 3.40571 16.3855 3.42461 14.9921C3.42461 14.1637 3.02764 13.8248 2.19588 13.8436C-0.0158384 13.9001 -0.0158395 13.8813 0.00306408 11.716C0.00306408 11.057 0.0219677 10.398 0.00306408 9.73901C-0.0158395 9.08001 0.267711 8.79759 0.891529 8.77876L1.55315 8.7411C3.17887 8.81642 3.349 9.06119 3.42461 6.83943C3.40569 6.46937 3.40569 6.0986 3.42461 5.72855C3.46242 5.14487 3.63255 4.78713 4.33198 4.65533C5.35278 4.48587 6.31686 4.09047 7.29985 3.75156C8.28284 3.41265 8.67981 3.58211 8.67981 4.71181V7.72436C8.67981 8.43985 8.92556 8.83524 9.73841 8.77876C10.5253 8.73171 11.3144 8.73171 12.1014 8.77876C12.6685 8.77876 12.9709 9.04236 12.9709 9.64487C12.952 10.6804 12.9709 11.716 12.952 12.7516C12.9331 13.7871 12.4983 13.8624 11.7422 13.8436C10.986 13.8248 10.3622 13.8624 9.6628 13.8436C8.96336 13.8248 8.67981 14.1825 8.67981 14.8415C8.67981 17.0256 8.642 19.2286 8.69871 21.4315C8.73652 22.8248 9.58718 23.4273 11.2318 23.3708C12.8764 23.3143 12.952 23.4085 12.9709 25.0277C12.9709 25.7056 13.0465 26.421 12.9142 27.08C12.7819 27.739 12.4416 28.0779 12.1581 28.1156C10.1165 28.3039 8.03709 28.4169 6.16563 27.4378C4.29418 26.4587 3.65146 25.0842 3.51913 23.2767C3.40571 21.9022 3.48132 20.5089 3.48132 19.1344H3.40571Z" fill="#505CA9"/>
<path d="M99.9436 13.9942V26.7035C99.9436 27.9085 99.7546 28.0968 98.6015 28.0968C97.7508 28.0779 96.9001 28.0403 96.0495 28.0779C95.1988 28.1156 94.764 27.6637 94.764 26.7788C94.764 23.9168 94.7451 21.0737 94.7451 18.2118C94.7451 12.6637 94.7514 7.1093 94.764 1.54864C94.764 0.0800226 94.8396 0.00470653 96.3141 0.00470653C97.0892 0.00470653 97.8831 -0.0141208 98.6771 0.0235361C99.7924 0.061193 99.9436 0.230647 99.9436 1.39801V13.9942Z" fill="#505CA9"/>
<path d="M16.3705 18.4002C16.3579 15.6764 16.3579 12.9462 16.3705 10.2098C16.3705 8.89183 16.4461 8.81652 17.7504 8.81652H20.3969C21.2287 8.81652 21.6068 9.19309 21.5311 10.0404C21.5122 10.2851 21.6446 10.5487 21.7013 10.7935C21.947 10.6429 22.2306 10.5487 22.4196 10.3416C23.516 9.09894 24.9905 8.6094 26.5595 8.38346C26.7674 8.36463 27.2022 8.76003 27.2022 8.96714C27.2589 10.4358 27.24 11.9232 27.24 13.3918C27.2211 14.0508 26.7485 14.0885 26.2381 14.1073C24.8015 14.145 23.4593 14.5215 22.5519 15.6324C22.0674 16.2285 21.7773 16.9576 21.7202 17.7224C21.569 20.1889 21.55 22.6743 21.5122 25.1408C21.4933 25.781 21.6446 26.4588 21.5122 27.0613C21.3799 27.6638 20.9451 27.9274 20.6049 27.9651C19.4707 28.078 18.3364 28.0027 17.2022 27.9839C16.3894 27.9651 16.3516 27.3814 16.3516 26.7789C16.3705 23.9923 16.3705 21.1868 16.3705 18.4002Z" fill="#505CA9"/>
<path d="M13.8849 33.5332L12.2235 41.8076H10.7637L11.8437 36.3819L8.29525 40.862H7.60691L5.70809 36.2756L4.6044 41.8076H3.13281L4.79429 33.5332H6.05226L8.24778 39.0415L12.5557 33.5332H13.8849ZM20.3181 39.8927H16.1407L14.9421 41.8076H13.2925L18.6923 33.5332H20.2232L22.2882 41.8076H20.7572L20.3181 39.8927ZM20.0334 38.6869L19.1907 35.0463L16.9002 38.6869H20.0334ZM26.0249 34.8335H23.2716L23.5326 33.5332H30.5822L30.3092 34.8335H27.5559L26.1674 41.8076H24.6245L26.0249 34.8335ZM33.0098 34.8216L32.5825 36.973H36.6056L36.3564 38.2377H32.3215L31.8704 40.5191H36.5701L36.309 41.8076H30.0784L31.74 33.5332H37.8043L37.5432 34.8216H33.0098Z" fill="#F04A5B"/>
</g>
<defs>
<clipPath id="clip0_794_1982">
<rect width="100" height="45" fill="white"/>
</clipPath>
</defs>
</svg>
