<svg width="24" height="12" viewBox="0 0 24 12" fill="none" xmlns="http://www.w3.org/2000/svg">
<path d="M1 5.25C0.585786 5.25 0.25 5.58579 0.25 6C0.25 6.41421 0.585786 6.75 1 6.75L1 5.25ZM23.6096 6.53033C23.9025 6.23744 23.9025 5.76257 23.6096 5.46967L18.8366 0.696701C18.5437 0.403807 18.0689 0.403807 17.776 0.696701C17.4831 0.989594 17.4831 1.46447 17.776 1.75736L22.0186 6L17.776 10.2426C17.4831 10.5355 17.4831 11.0104 17.776 11.3033C18.0689 11.5962 18.5437 11.5962 18.8366 11.3033L23.6096 6.53033ZM1 6.75L23.0793 6.75L23.0793 5.25L1 5.25L1 6.75Z" fill="#2B2C34"/>
</svg>
