<svg width="34" height="34" viewBox="0 0 34 34" fill="none" xmlns="http://www.w3.org/2000/svg">
<path d="M17 0.5C7.8875 0.5 0.5 7.8875 0.5 17C0.5 26.1129 7.8875 33.5 17 33.5C26.1129 33.5 33.5 26.1129 33.5 17C33.5 7.8875 26.1129 0.5 17 0.5ZM18.5 30.4149V26C18.5 25.1716 17.8284 24.5 17 24.5C16.1716 24.5 15.5 25.1716 15.5 26V30.4149C9.24312 29.723 4.277 24.7569 3.58512 18.5H8C8.82837 18.5 9.5 17.8284 9.5 17C9.5 16.1716 8.82837 15.5 8 15.5H3.58512C4.277 9.24312 9.24312 4.277 15.5 3.58512V8C15.5 8.82837 16.1716 9.5 17 9.5C17.8284 9.5 18.5 8.82837 18.5 8V3.58512C24.7569 4.277 29.723 9.24312 30.4149 15.5H26C25.1716 15.5 24.5 16.1716 24.5 17C24.5 17.8284 25.1716 18.5 26 18.5H30.4149C29.723 24.7569 24.7569 29.723 18.5 30.4149Z" fill="#2B2C34"/>
</svg>
