<svg width="803" height="302" viewBox="0 0 803 302" fill="none" xmlns="http://www.w3.org/2000/svg">
<path d="M107.841 77.3289V79.0373C107.841 79.0373 107.375 84.3775 113.964 85.1579C120.554 85.9383 125.542 83.0743 125.364 78.9547C124.77 75.7631 124.111 73.5695 124.076 70.9307C124.061 69.8596 124.139 68.7892 124.309 67.7316L111.532 67.4814L107.773 68.0943L107.841 77.3289Z" fill="#FCA2A1"/>
<path d="M107.783 68.0896L107.831 77.3292C109.272 77.997 110.844 78.3387 112.433 78.3297C118.301 78.3297 122.094 74.0351 124.076 70.9185C124.061 69.8474 124.138 68.777 124.309 67.7194L111.531 67.4692L107.783 68.0896Z" fill="#EB8E8E"/>
<path d="M107.038 72.5793C107.038 72.5793 123.386 75.8784 125.288 65.6808C127.189 55.4831 130.577 49.0424 120.219 46.5061C109.862 43.9698 107.101 47.4841 105.638 50.7332C104.175 53.9824 102.829 71.4587 107.038 72.5793Z" fill="#FCA2A1"/>
<path d="M108.006 79.8555C108.006 79.8555 104.108 100.678 99.8589 122.429C95.2414 146.074 83.9996 168.67 83.025 169.556C81.6695 170.786 76.2153 169.206 78.4351 167.862C81.3965 166.074 81.2236 145.101 82.3109 132.77C82.574 129.768 82.8797 127.284 83.2229 125.766C84.9592 117.965 85.4778 90.3658 90.6966 86.0311C95.9153 81.6964 108.006 79.8555 108.006 79.8555Z" fill="#FCA2A1"/>
<path d="M108.006 79.8555C108.006 79.8555 105.751 91.8615 102.817 107.152C101.885 112.007 100.883 117.192 99.8585 122.429C95.6945 130.579 92.1217 136.119 91.0169 135.076C88.762 132.955 84.811 132.692 82.3105 132.77C82.5736 129.768 82.8793 127.284 83.2225 125.766C83.3603 125.148 83.4881 124.41 83.6134 123.568C85.0715 113.753 85.8958 90.0231 90.6962 86.0311C95.9049 81.6839 108.006 79.8555 108.006 79.8555Z" fill="#BED2FA"/>
<path d="M102.829 107.151C101.897 112.006 100.895 117.191 99.8702 122.429C95.7062 130.578 92.1335 136.119 91.0286 135.075C88.7737 132.954 84.8227 132.692 82.3223 132.769C82.5853 129.768 82.891 127.284 83.2342 125.766C83.372 125.148 83.4998 124.41 83.6251 123.567L96.1096 93.4795L102.829 107.151Z" fill="#93B3F4"/>
<path d="M119.092 300.249C119.092 300.249 119.701 295.497 121.116 292.673C122.532 289.849 131.536 291.645 131.536 291.645C131.536 291.645 133.338 293.186 133.723 300.377L119.092 300.249Z" fill="#0D0D38"/>
<path d="M88.4136 300.184C90.5282 298.896 89.3256 289.279 89.3256 289.279C89.3256 289.279 79.4668 281.405 78.1114 287.433C76.7559 293.461 68.7436 296.167 64.1838 296.905C61.037 297.405 60.0624 299.156 59.7617 300.184H88.4136Z" fill="#0D0D38"/>
<path d="M108.842 230.231C108.497 231.987 108.256 233.762 108.121 235.546C107.204 253.395 93.0731 294.201 90.5451 295.154C86.6317 296.627 80.4734 293.493 77.2514 292.47C75.916 292.045 75.0166 290.699 75.3122 289.336C82.3099 257.215 84.8829 210.966 85.8174 183.583C86.2909 169.791 88.6636 160.263 88.6636 160.263C88.6636 160.263 123.131 151.081 123.333 162.694C123.506 172.98 111.906 213.278 108.842 230.231Z" fill="#718DD0"/>
<path d="M108.843 230.231L85.8184 183.582C86.2919 169.791 88.6645 160.263 88.6645 160.263C88.6645 160.263 123.131 151.081 123.334 162.694C123.507 172.98 111.907 213.277 108.843 230.231Z" fill="#3662C1"/>
<path d="M101.166 162.737L119.385 294.574C119.385 294.574 127.388 296.502 133.611 294.959C133.611 294.959 138.945 224.844 138.502 207.89C138.058 190.937 142.33 162.532 137.525 159.398C132.719 156.264 101.166 162.737 101.166 162.737Z" fill="#718DD0"/>
<path d="M140.145 159.398C140.159 159.76 140.1 160.121 139.972 160.461C139.845 160.8 139.65 161.11 139.4 161.373C139.151 161.636 138.851 161.847 138.518 161.993C138.186 162.138 137.827 162.216 137.464 162.222L108.75 162.659L87.6615 162.982C86.6744 162.997 89.7962 155.111 89.8588 103.677C89.8738 92.2013 107.672 79.8501 108 79.8501C108 81.5034 110.609 84.555 114.627 84.8151C119.388 85.1278 125.248 82.7591 125.248 80.0152C125.248 79.9852 125.801 80.583 126.693 81.8786C129.076 85.3404 133.871 93.7871 136.933 108.487C139.351 120.098 138.421 135.621 140.162 155.648C140.295 157.099 140.107 158.385 140.145 159.398Z" fill="#DDE8FD"/>
<path d="M139.085 162.382C139.085 162.382 135.267 164.088 128.129 165.566C121.141 166.973 114.031 167.686 106.903 167.694C92.9455 167.782 87.6615 162.982 87.6615 162.982C86.6744 162.997 89.7962 155.111 89.8588 103.677C89.8738 92.2013 107.672 79.8501 108.001 79.8501C108.001 79.8501 107.542 95.1328 112.172 99.6276C112.172 99.6276 118.669 94.6251 127.094 80.3679C129.474 83.8321 133.871 93.7921 136.933 108.492C137.568 111.714 138.004 114.972 138.238 118.247C139.05 128.39 138.87 140.776 140.162 155.646C140.29 157.092 140.102 158.377 140.14 159.398C140.203 160.926 140.613 162.359 139.085 162.382Z" fill="#BED2FA"/>
<path d="M139.085 162.382C139.085 162.382 135.266 164.088 128.129 165.566C125.874 162.147 123.053 155.976 122.659 146.249C121.995 129.803 137.654 108.623 137.654 108.623L138.25 118.255C139.062 128.398 138.882 140.784 140.175 155.654C140.302 157.1 140.114 158.385 140.152 159.406C140.202 160.926 140.613 162.36 139.085 162.382Z" fill="#93B3F4"/>
<path d="M140.565 132.812L122.974 102.394C122.742 101.993 122.433 101.641 122.064 101.359C121.696 101.077 121.275 100.87 120.827 100.75C120.378 100.63 119.91 100.6 119.45 100.66C118.99 100.721 118.546 100.872 118.144 101.104L97.5993 112.95C97.1972 113.181 96.8447 113.49 96.5621 113.858C96.2795 114.226 96.0723 114.646 95.9522 115.093C95.8322 115.541 95.8017 116.008 95.8625 116.468C95.9232 116.928 96.0741 117.371 96.3065 117.772L113.897 148.187C114.129 148.589 114.438 148.941 114.807 149.223C115.175 149.505 115.596 149.712 116.044 149.832C116.493 149.952 116.961 149.982 117.421 149.921C117.882 149.861 118.325 149.71 118.727 149.478L139.272 137.635C140.083 137.166 140.676 136.395 140.918 135.49C141.16 134.586 141.033 133.623 140.565 132.812Z" fill="#F03E51"/>
<path d="M150.831 140.856C150.831 140.856 145.369 141.387 136.032 140.431C127.334 139.501 118.741 137.772 110.361 135.268L113.335 130.198C113.335 130.198 125.499 129.661 134.408 128.36C136.365 128.094 138.305 127.721 140.221 127.242C142.158 126.724 132.542 102.397 127.694 88.0896C126.536 84.6779 125.652 81.8364 125.256 80.0205C125.256 80.0205 126.105 80.1581 127.436 80.4207C131.211 81.1711 138.885 82.922 142.153 85.3782C146.567 88.7124 157.596 126.319 150.831 140.856Z" fill="#FCA2A1"/>
<path d="M113.442 130.208C113.442 130.208 109.321 126.356 107.73 126.356C106.139 126.356 101.216 126.649 100.674 127.902C99.3916 130.856 102.594 133.55 103.904 134.063C105.214 134.576 108.479 135.218 109.884 135.346C111.29 135.474 114.755 134.691 113.442 130.208Z" fill="#FCA2A1"/>
<path d="M150.83 140.856C150.83 140.856 145.369 141.386 136.031 140.431C136.532 137.897 137.033 132.95 134.407 128.36C136.364 128.094 138.305 127.721 140.22 127.242C142.157 126.724 132.541 102.397 127.693 88.0896C127.304 83.4647 127.102 80.3682 127.102 80.3682L127.435 80.4207C131.21 81.1711 138.885 82.922 142.152 85.3782C146.566 88.7124 157.595 126.319 150.83 140.856Z" fill="#BED2FA"/>
<path d="M112.178 99.6327C112.178 99.6327 125.171 93.9173 125.364 93.4671C125.557 93.0169 124.72 89.5501 123.818 88.5246C123.818 88.5246 130.059 89.1024 130.445 88.332C130.831 87.5616 130.946 81.1409 130.946 81.1409C130.946 81.1409 128.5 78.5721 125.286 78.3145C125.286 78.3145 122.47 85.2855 121.428 87.369C118.674 92.8893 112.178 99.6327 112.178 99.6327Z" fill="#93B3F4"/>
<path d="M109.093 88.3321C109.093 88.3321 109.927 95.008 112.18 99.6328C112.18 99.6328 105.395 94.9129 104.816 93.3796C104.238 91.8464 106.455 88.8523 106.455 88.8523C106.455 88.8523 102.404 88.7573 102.306 87.4066C102.208 86.0559 103.559 80.7608 103.559 80.7608C103.559 80.7608 106.873 78.2595 107.838 78.3495L109.093 88.3321Z" fill="#93B3F4"/>
<path d="M102.46 43.1643C105.888 42.7742 109.238 41.8694 112.396 40.4804C116.761 38.5845 122.268 40.6705 124.056 41.611C123.992 41.2255 123.844 40.859 123.62 40.5379C123.62 40.5379 124.422 41.1057 124.54 41.9011C124.623 41.9612 124.66 42.0037 124.638 42.0162C124.615 42.0287 125.55 41.8511 126.141 42.1137C126.141 42.1137 125.733 42.0562 125.585 42.3188C125.568 42.3471 125.546 42.3717 125.52 42.3914C132.329 45.6755 132.958 56.4185 130.766 58.8997C128.13 61.9012 124.968 68.6246 124.968 68.6246C124.968 68.6246 123.816 67.0338 124.297 64.4025C124.778 61.7712 122.498 61.7712 119.622 60.5756C116.746 59.38 119.143 56.0283 116.615 53.9947C114.087 51.9612 104.872 53.1593 104.993 51.6035C101.578 50.3529 102.46 43.5069 102.46 43.1643Z" fill="#0D0D38"/>
<path d="M118.475 123.027C118.136 123.027 117.805 123.128 117.523 123.316C117.242 123.504 117.022 123.771 116.892 124.083C116.762 124.396 116.729 124.74 116.795 125.072C116.861 125.404 117.024 125.709 117.264 125.948C117.503 126.187 117.809 126.35 118.141 126.416C118.474 126.482 118.818 126.448 119.131 126.319C119.444 126.189 119.712 125.97 119.9 125.689C120.089 125.407 120.189 125.077 120.189 124.738C120.188 124.285 120.008 123.85 119.686 123.529C119.365 123.208 118.93 123.028 118.475 123.027Z" fill="#ED6966"/>
<path d="M79.8743 293.886C80.2228 294.699 80.3221 295.597 80.1595 296.466C79.9969 297.335 79.5797 298.136 78.9608 298.769C78.3419 299.401 77.549 299.836 76.6825 300.019C75.8159 300.201 74.9146 300.123 74.0926 299.794C73.2705 299.465 72.5647 298.9 72.0643 298.171C71.564 297.441 71.2915 296.58 71.2815 295.696C71.2715 294.812 71.5244 293.944 72.0081 293.204C72.4918 292.463 73.1848 291.882 73.9991 291.535C74.5395 291.304 75.1202 291.181 75.708 291.174C76.2959 291.167 76.8793 291.276 77.425 291.494C77.9707 291.713 78.4679 292.036 78.8882 292.447C79.3085 292.857 79.6436 293.346 79.8743 293.886Z" fill="#C3D5FA"/>
<path d="M80.6693 293.886C81.0178 294.699 81.117 295.597 80.9544 296.466C80.7918 297.335 80.3747 298.136 79.7558 298.769C79.1369 299.401 78.344 299.836 77.4774 300.019C76.6109 300.201 75.7096 300.123 74.8875 299.794C74.0655 299.465 73.3596 298.9 72.8593 298.17C72.3589 297.441 72.0865 296.58 72.0765 295.696C72.0665 294.811 72.3193 293.944 72.8031 293.204C73.2868 292.463 73.9797 291.882 74.7941 291.535C75.8855 291.069 77.1175 291.055 78.2192 291.496C79.3209 291.937 80.2022 292.797 80.6693 293.886Z" fill="#FA7269"/>
<path d="M54.3509 293.886C54.6994 294.699 54.7986 295.597 54.636 296.466C54.4734 297.335 54.0563 298.136 53.4374 298.769C52.8185 299.401 52.0256 299.836 51.1591 300.019C50.2925 300.201 49.3912 300.123 48.5691 299.794C47.7471 299.465 47.0413 298.9 46.5409 298.17C46.0405 297.441 45.7681 296.58 45.7581 295.696C45.7481 294.811 46.0009 293.944 46.4847 293.204C46.9684 292.463 47.6613 291.882 48.4757 291.535C49.5671 291.069 50.7991 291.055 51.9008 291.496C53.0025 291.937 53.8838 292.797 54.3509 293.886Z" fill="#C3D5FA"/>
<path d="M55.1443 293.886C55.4926 294.699 55.5916 295.596 55.4289 296.465C55.2663 297.334 54.8491 298.136 54.2303 298.768C53.6114 299.4 52.8187 299.835 51.9523 300.018C51.0859 300.2 50.1847 300.122 49.3627 299.793C48.5408 299.464 47.835 298.9 47.3345 298.17C46.834 297.441 46.5614 296.58 46.5511 295.696C46.5408 294.812 46.7933 293.945 47.2767 293.204C47.76 292.464 48.4525 291.883 49.2665 291.535C49.8071 291.304 50.388 291.181 50.9759 291.175C51.5638 291.168 52.1474 291.277 52.6932 291.495C53.239 291.713 53.7364 292.037 54.1569 292.447C54.5775 292.857 54.913 293.346 55.1443 293.886Z" fill="#FA7269"/>
<path d="M83.3954 219.861L81.5038 219.478C84.0618 206.894 88.8546 182.209 88.6818 178.85C88.574 176.737 87.9301 175.208 86.7526 174.31C84.871 172.87 82.1652 173.427 82.1376 173.432L82.0349 173.45L74.3282 174.258C65.201 174.488 64.4845 182.012 64.4594 182.344V182.442L58.0255 217.66L56.1289 217.315L62.5528 182.139C62.7693 180.433 63.3688 178.797 64.3066 177.354C65.7347 175.146 68.6234 172.487 74.2656 172.332L81.8119 171.539C82.313 171.441 85.4899 170.909 87.9377 172.77C89.5887 174.02 90.4957 176.039 90.636 178.753C90.8389 183.187 83.6985 218.365 83.3954 219.861Z" fill="#C3D5FA"/>
<path d="M97.8711 217.725L78.379 213.835L74.5682 290.154L38.5078 293.336L44.8741 295.619C45.5169 295.85 46.1955 295.964 46.8784 295.957L81.2176 295.607C81.8139 295.607 82.3876 295.601 82.9388 295.589H82.9964C96.433 295.132 97.0819 287.82 97.0819 287.82C97.0819 287.82 101.434 238.728 102.423 229.979C103.553 220.034 97.8711 217.725 97.8711 217.725Z" fill="#C3D5FA"/>
<path d="M89.1851 227.34L83.9438 282.317C83.6549 285.384 82.2351 288.233 79.9601 290.313C77.685 292.393 74.717 293.555 71.6322 293.573L53.5556 293.686H53.1097L41.7877 293.756C40.6809 293.762 39.5782 293.622 38.5081 293.34C38.2575 293.278 38.022 293.205 37.7865 293.128C35.8621 292.486 34.1232 291.385 32.7202 289.922C31.3172 288.459 30.2923 286.676 29.7341 284.729C29.2423 283.004 29.1329 281.192 29.4134 279.421L37.6237 226.817C38.0501 224.09 39.3737 221.583 41.3856 219.69C43.3976 217.797 45.9834 216.627 48.7352 216.364L51.9296 216.059L52.6812 215.986L53.3201 215.926L63.9957 214.906L65.3035 214.783L75.6032 213.8C77.1621 213.649 78.7355 213.794 80.2408 214.225C80.336 214.253 80.4312 214.28 80.5264 214.313L81.1202 214.516C83.6922 215.467 85.8773 217.24 87.3357 219.559C88.7942 221.878 89.4444 224.613 89.1851 227.34Z" fill="#6D89CF"/>
<path opacity="0.4" d="M81.7266 288.3C80.5846 289.915 79.0728 291.234 77.317 292.148C75.5612 293.061 73.6122 293.543 71.6322 293.553L53.5557 293.666H53.1097L41.7877 293.736C40.681 293.742 39.5783 293.602 38.5082 293.32C38.2576 293.258 38.0221 293.185 37.7866 293.108C33.8656 291.81 29.3483 287.072 29.2832 282.047C29.2832 282.047 67.5234 281.547 75.5156 282.78C79.6395 283.43 80.8722 286.309 81.7266 288.3Z" fill="#C3D5FA"/>
<path d="M53.3296 215.921C53.2519 215.969 44.8663 221.069 43.7639 225.551C42.6315 230.156 35.0626 283.831 34.995 284.378C35.0115 286.094 35.3838 287.788 36.0883 289.354C36.7929 290.919 37.8145 292.321 39.0888 293.473L38.5151 293.336C38.2645 293.273 38.029 293.2 37.7935 293.123C33.7448 289.121 34.2859 284.489 34.3185 284.286C34.6292 282.07 41.97 230.029 43.11 225.389C44.1122 221.327 50.0199 217.275 51.9366 216.054L52.6882 215.981L53.3296 215.921Z" fill="#C3D5FA"/>
<path d="M65.3143 214.778C64.1092 215.591 59.5043 219.085 58.5222 225.534C57.3697 233.098 52.8699 288.035 52.8248 288.588V288.628L52.8123 288.666C52.8123 288.693 52.1609 291.667 54.0124 293.668H53.5589H53.113C51.3391 291.507 52.0406 288.856 52.1509 288.483C52.2912 286.785 56.7082 232.922 57.8507 225.421C58.6975 219.863 62.1249 216.417 64.009 214.888L65.3143 214.778Z" fill="#C3D5FA"/>
<path d="M81.1308 214.501C79.9082 215.232 78.8033 216.144 77.8537 217.205C75.8726 219.46 74.5896 222.24 74.1607 225.209C73.0082 232.77 69.4405 287.525 69.4004 288.076V288.118L69.3854 288.158C69.3854 288.186 69.22 291.535 71.0715 293.551H69.934C68.5185 291.71 68.6062 288.383 68.7239 287.988C68.8392 286.237 72.3392 232.605 73.4842 225.101C74.559 218.048 79.2467 214.811 80.2488 214.198C80.344 214.226 80.4393 214.253 80.5345 214.286L81.1308 214.501Z" fill="#C3D5FA"/>
<path d="M78.4345 167.862C78.4345 167.862 72.3563 170.081 72.1709 174.576C72.0782 176.919 72.186 179.668 74.977 179.361C77.079 179.126 76.1445 176.792 77.8983 175.626C79.6521 174.461 83.2774 170.256 83.3927 168.273C83.5079 166.289 78.4345 167.862 78.4345 167.862Z" fill="#FCA2A1"/>
<path d="M247.74 143.035C245.858 143.067 243.995 142.657 242.3 141.839C222.733 132.139 240.897 65.5131 240.897 65.5131C240.897 65.5131 241.822 62.5116 245.38 60.9008C247.226 60.0804 249.792 59.6502 253.349 60.2179C263.647 61.9263 265.626 66.196 266.042 68.5847C266.485 71.0109 275.79 142.897 247.74 143.035Z" fill="#718DD0"/>
<path d="M242.3 141.839C222.733 132.139 240.897 65.5132 240.897 65.5132C240.897 65.5132 241.822 62.5117 245.38 60.9009C252.938 62.8819 254.512 66.4687 254.923 68.5848C255.301 70.8409 263.306 132.55 242.3 141.839Z" fill="#0D0D38"/>
<path d="M282.568 279.154C282.568 279.154 287.028 283.278 286.156 286.21C285.284 289.141 281.263 291.095 280.719 294.677C280.175 298.258 278.001 300.214 276.044 300.214H266.714C266.714 300.214 265.273 297.693 268.751 296.933C272.228 296.172 273.543 291.963 273.326 288.056C273.108 284.149 273.651 278.936 273.651 278.936L281.047 277.2L282.568 279.154Z" fill="#0D0D38"/>
<path d="M227.875 290.402C227.875 290.402 228.962 299.086 227.003 300.062C225.043 301.037 201.668 300.714 201.668 300.714C201.668 300.714 201.668 297.783 205.692 297.13C209.715 296.477 216.783 294.091 217.968 288.773C219.153 283.456 227.875 290.402 227.875 290.402Z" fill="#0D0D38"/>
<path d="M206.727 157.787C206.727 157.787 208.047 174.243 209.6 194.023C211.71 220.894 214.248 253.901 214.501 260.154C214.934 271.012 216.676 288.38 216.676 288.38C216.676 288.38 220.804 292.508 229.072 290.767C229.072 290.767 236.438 265.974 238.54 239.741C238.573 239.311 238.605 238.878 238.641 238.445C240.597 211.739 243.639 155.506 243.639 155.506L206.727 157.787Z" fill="#718DD0"/>
<path d="M206.727 157.787C206.727 157.787 208.047 174.243 209.6 194.023L238.54 239.741C238.573 239.311 238.605 238.878 238.641 238.445C240.597 211.739 243.639 155.506 243.639 155.506L206.727 157.787Z" fill="#3662C1"/>
<path d="M212.76 159.741C212.76 159.741 236.574 219.338 252.23 247.347C267.886 275.356 272.774 283.17 272.774 283.17C272.774 283.17 281.746 279.589 282.561 277.145C282.561 277.145 276.573 223.075 266.088 209.893C260.162 202.447 253.202 180.096 252.876 172.279C252.551 164.463 250.754 148.993 250.754 148.993L212.76 159.741Z" fill="#718DD0"/>
<path d="M191.594 140.909L188.367 144.746C187.727 145.48 186.907 146.036 185.986 146.356C184.08 147.057 180.938 149.02 182.298 154.165C182.298 154.165 183.326 157.129 185.235 156.191C187.144 155.253 186.202 155.333 188.938 154.07C190.99 153.125 192.393 151.524 192.696 149.843C192.964 148.412 193.996 147.239 195.201 146.426L199.112 143.79L191.594 140.909Z" fill="#EA6968"/>
<path d="M224.974 67.7469C223.914 61.4938 223.881 57.8069 223.881 57.8069L235.962 48.0845C235.514 61.4512 244.095 67.8795 244.095 67.8795C244.095 67.8795 227.993 75.791 218.688 72.8595C220.452 70.7858 222.583 69.0529 224.974 67.7469Z" fill="#E75755"/>
<path d="M221.035 57.5839C221.035 57.5839 236.406 60.1326 237.849 50.5528C239.292 40.973 242.248 34.8499 232.495 32.8163C222.741 30.7828 220.281 34.152 219.018 37.2336C217.755 40.3151 217.076 56.6709 221.035 57.5839Z" fill="#EA6968"/>
<path d="M190.292 147.052C188.915 145.58 187.712 143.954 186.709 142.207C186.709 142.207 204.174 120.546 205.595 118.3C207.015 116.054 217.621 80.0306 217.621 80.0306L244.429 74.6079C244.429 74.6079 222.053 120.704 218.345 126.332C212.217 135.619 193.879 149.446 193.879 149.446C192.538 148.891 191.318 148.078 190.292 147.052Z" fill="#DA384A"/>
<path d="M252.563 152.049C252.598 152.597 251.982 153.21 251.265 153.69C250.731 154.04 250.169 154.348 249.587 154.611C247.536 155.535 245.518 156.355 243.534 157.072C238.773 158.845 234.091 160.041 229.002 160.519C223.563 161.067 217.507 160.519 212.89 160.076C210.292 159.768 208.17 159.528 206.877 159.528H206.706C206.337 159.532 205.98 159.398 205.704 159.153C205.499 159.018 205.328 150.899 205.431 139.961C205.431 138.423 205.464 136.852 205.464 135.208C205.452 134.673 205.475 134.137 205.534 133.605V133.433C205.566 128.31 205.739 122.88 205.977 117.52V117.417C206.478 105.498 207.415 94.0227 209.021 87.637C210.87 80.1582 215.18 75.2382 219.081 71.5864L222.295 68.7499C222.566 68.8142 222.84 68.8601 223.117 68.8875C226.248 69.4285 229.469 68.9617 232.317 67.5543C235.977 65.7459 240.013 63.7649 240.665 64.2427C240.732 64.3127 240.835 64.3802 240.903 64.4478C242.091 65.4039 243.128 66.5319 243.982 67.7944C244.052 67.8295 244.052 67.8295 244.052 67.8645H244.085C244.888 69.0357 245.598 70.2685 246.207 71.5513C247.338 73.9356 248.253 76.4159 248.943 78.9626C251.03 86.4414 252.057 95.8661 252.022 105.941C252.022 108.502 251.954 111.099 251.771 113.728C251.739 114.478 251.704 115.196 251.669 115.914C251.363 122.437 251.396 128.483 251.566 133.775V133.945C251.739 139.308 252.047 143.85 252.285 147.23C252.428 149.283 252.528 150.924 252.563 152.049Z" fill="#F03E51"/>
<path d="M252.296 147.242C251.795 140.123 250.955 127.877 251.795 113.75C251.945 111.118 252.023 108.497 252.033 105.941C248.848 98.232 246.248 92.6392 246.248 92.6392H238.23C238.23 92.6392 232.33 132.754 252.296 147.242Z" fill="#DA384A"/>
<path d="M237.871 49.6326C237.871 49.6326 236.293 49.3675 236.549 47.1989C236.804 45.0303 236.799 42.1964 235.045 42.7241C233.292 43.2519 233.191 44.6651 232.465 43.8397C231.738 43.0143 231.726 39.54 226.472 39.2999C221.218 39.0598 219.078 40.8832 216.636 39.8001C214.193 38.7171 214.062 35.0352 214.062 35.0352C214.062 35.0352 214.756 36.3534 215.816 36.7861C215.816 36.7861 211.74 31.2183 216.46 27.3989C221.18 23.5794 225.996 26.0807 228.737 26.2458C234.75 26.611 238.646 26.9712 240.612 30.9207C242.579 34.8702 241.725 45.8307 237.871 49.6326Z" fill="#0B0754"/>
<path d="M317.755 292.077C317.461 292.764 317.306 293.501 317.299 294.247C317.292 294.994 317.434 295.734 317.716 296.425C317.998 297.116 318.415 297.745 318.942 298.274C319.469 298.803 320.096 299.223 320.787 299.509C322.183 300.095 323.755 300.109 325.161 299.548C326.568 298.986 327.697 297.893 328.303 296.507C328.597 295.821 328.752 295.083 328.759 294.337C328.765 293.59 328.624 292.85 328.342 292.158C328.06 291.467 327.643 290.838 327.116 290.309C326.589 289.779 325.962 289.359 325.271 289.073C323.874 288.487 322.302 288.473 320.896 289.036C319.489 289.598 318.361 290.691 317.755 292.077Z" fill="#6D89CF"/>
<path d="M276.581 292.153C276.287 292.839 276.132 293.576 276.125 294.323C276.119 295.069 276.26 295.809 276.542 296.5C276.824 297.192 277.241 297.82 277.768 298.349C278.295 298.879 278.922 299.298 279.613 299.584C281.011 300.174 282.585 300.19 283.995 299.628C285.405 299.066 286.535 297.972 287.141 296.582C287.436 295.896 287.591 295.158 287.597 294.412C287.604 293.665 287.462 292.925 287.18 292.234C286.898 291.542 286.482 290.914 285.955 290.384C285.428 289.854 284.801 289.435 284.11 289.149C282.712 288.558 281.136 288.543 279.727 289.105C278.317 289.668 277.187 290.763 276.581 292.153Z" fill="#6D89CF"/>
<path d="M329.623 291.352L321.465 294.261C320.639 294.554 319.768 294.701 318.892 294.694L272.579 294.319L267.506 286.064L329.623 291.352Z" fill="#2B276A"/>
<path d="M303.146 199.993L290.15 168.273L290.133 168.212C290.055 167.927 288.028 161.114 276.353 159.613H276.3L266.71 157.847C265.457 157.527 261.889 156.994 260.253 158.363C259.527 158.97 259.234 159.918 259.359 161.261C259.609 163.923 268.253 184.491 274.006 197.667L272.172 198.448C270.696 195.061 257.723 165.271 257.37 161.442C257.184 159.441 257.723 157.892 258.966 156.854C261.641 154.623 266.647 155.799 267.181 155.931L276.639 157.682C289.196 159.308 291.774 166.802 292.032 167.662L304.985 199.276L303.146 199.993Z" fill="#2B276A"/>
<path d="M278.305 190.654L253.321 195.634C253.321 195.634 246.04 198.575 247.508 211.179C248.801 222.27 254.496 284.501 254.496 284.501C254.496 284.501 255.686 297.453 283.704 293.641L278.305 190.654Z" fill="#2B276A"/>
<path d="M264.481 207.802L271.333 277.495C271.602 280.228 272.588 282.843 274.192 285.074C275.67 287.127 277.616 288.8 279.868 289.955C282.12 291.111 284.615 291.717 287.147 291.722L310.328 291.82H310.901L325.418 291.88C326.836 291.888 328.25 291.71 329.622 291.35C329.935 291.267 330.243 291.174 330.549 291.077C333.003 290.266 335.223 288.872 337.016 287.013C338.81 285.154 340.124 282.888 340.843 280.409C341.469 278.222 341.605 275.924 341.242 273.678L330.596 206.997C330.024 203.523 328.31 200.337 325.725 197.942C323.139 195.547 319.829 194.08 316.316 193.77L312.219 193.393L311.245 193.303L310.423 193.228L296.736 191.962L295.055 191.807L281.846 190.589C279.848 190.401 277.833 190.588 275.903 191.139C275.78 191.174 275.653 191.209 275.537 191.252L274.773 191.502C268.269 193.92 263.754 200.419 264.481 207.802Z" fill="#BED2FA"/>
<path d="M274.199 285.074C275.678 287.127 277.623 288.8 279.875 289.955C282.127 291.111 284.622 291.717 287.155 291.722L310.335 291.82H310.909L325.425 291.88C326.843 291.888 328.257 291.71 329.629 291.35C329.942 291.267 330.25 291.174 330.556 291.077C335.567 289.421 341.359 283.403 341.43 277.032C341.43 277.032 292.394 276.495 282.149 278.078C276.855 278.896 275.282 282.548 274.199 285.074Z" fill="#010117"/>
<path d="M310.428 193.24C310.53 193.303 321.294 199.744 322.717 205.426C324.18 211.264 334.016 279.306 334.116 279.992C334.116 280.047 334.402 286.625 328.885 291.535L329.622 291.36C329.935 291.277 330.243 291.185 330.549 291.087C335.727 285.99 335.018 280.129 334.983 279.874C334.577 277.063 325.039 211.089 323.566 205.221C322.276 200.071 314.687 194.949 312.227 193.405L311.252 193.315L310.428 193.24Z" fill="#2B276A"/>
<path d="M295.061 191.812C296.611 192.843 302.522 197.26 303.797 205.434C305.3 215.021 311.195 284.666 311.253 285.367V285.419L311.268 285.464C311.281 285.499 312.11 289.259 309.742 291.818H310.897C313.165 289.066 312.258 285.717 312.117 285.244C311.934 283.091 306.139 214.809 304.656 205.299C303.556 198.255 299.144 193.883 296.737 191.962L295.061 191.812Z" fill="#2B276A"/>
<path d="M274.779 191.517C276.346 192.438 277.765 193.59 278.988 194.934C281.532 197.782 283.187 201.31 283.749 205.084C285.252 214.669 289.952 284.084 290 284.782V284.837L290.017 284.884C290.017 284.919 290.238 289.169 287.868 291.725H289.328C291.137 289.386 291.017 285.167 290.864 284.666C290.714 282.448 286.104 214.456 284.601 204.946C283.205 196.004 277.182 191.912 275.902 191.137C275.779 191.172 275.651 191.207 275.536 191.249L274.779 191.517Z" fill="#2B276A"/>
<path d="M265.41 143.417L268.399 150.446C268.746 151.297 268.746 152.249 268.399 153.1C267.665 154.993 267.059 158.643 271.824 161.029C271.824 161.029 274.73 162.222 275.289 160.171C275.848 158.12 275.289 158.878 276.146 155.996C276.898 153.473 276.396 151.021 274.876 149.771C274.36 149.293 274.051 148.634 274.014 147.932L273.543 143.457L265.41 143.417Z" fill="#EA6968"/>
<path d="M271.945 150.454C269.961 150.795 267.943 150.907 265.933 150.789C265.933 150.789 257.354 124.333 256.252 121.917C255.149 119.501 230.771 90.9011 230.771 90.9011L240.926 65.5308C240.926 65.5308 267.29 109.498 269.969 115.676C274.391 125.884 275.927 148.773 275.927 148.773C274.723 149.589 273.37 150.16 271.945 150.454Z" fill="#F03E51"/>
<path d="M251.571 133.78V133.95C247.401 132.963 243.523 131.009 240.249 128.247C234.264 123.365 230.192 116.226 227.627 108.738C223.658 97.0916 223.35 84.5928 225.372 78.4447C225.605 77.731 225.914 77.0442 226.294 76.3962C227.053 75.1081 227.999 73.9397 229.102 72.9294C232.455 69.7528 236.731 68.5247 239.876 68.082C240.681 67.9714 241.491 67.9029 242.304 67.8769C243.261 67.8419 243.877 67.8769 244.057 67.8769H244.09C244.893 69.0481 245.603 70.2809 246.212 71.5638C245.629 71.5085 245.044 71.486 244.458 71.4962C242.028 71.4287 239.948 71.7463 238.195 72.3517C235.522 73.1846 233.204 74.8844 231.608 77.1816C227.366 83.1221 228.288 91.6264 228.288 91.6264C228.584 95.6698 229.225 99.6805 230.205 103.615C232.222 111.674 235.404 117.412 238.688 121.441C244.811 129.023 251.496 130.669 251.496 130.669L251.571 133.78Z" fill="#0D0D38"/>
<path d="M389.335 117.935C389.099 117.342 386.138 108.595 383.888 107.414C381.638 106.234 377.494 104.93 376.547 105.413C375.6 105.896 373.824 112.507 376.547 115.934C379.27 119.36 386.256 122.672 386.256 122.672L389.335 117.935Z" fill="#EA8888"/>
<path d="M423.359 143.92C407.73 144.395 385.527 124.13 385.527 124.13C385.527 124.13 386.251 121.319 387.306 119.903C387.906 119.174 388.586 118.513 389.333 117.935C395.018 121.716 415.139 125.261 415.139 125.261C422.294 126.111 436.42 143.527 423.359 143.92Z" fill="#E75755"/>
<path d="M390.179 114.152L383.217 116.466C383.154 116.488 383.087 116.496 383.021 116.492C382.954 116.487 382.889 116.47 382.83 116.44C382.77 116.41 382.717 116.369 382.674 116.318C382.631 116.268 382.598 116.209 382.578 116.146L376.88 99.0623C376.859 98.9995 376.85 98.933 376.855 98.8667C376.859 98.8004 376.877 98.7357 376.907 98.6763C376.937 98.6169 376.978 98.5641 377.029 98.5209C377.079 98.4776 377.138 98.4449 377.201 98.4245L384.161 96.1109C384.224 96.089 384.291 96.0798 384.357 96.084C384.424 96.0882 384.489 96.1055 384.549 96.1351C384.608 96.1647 384.662 96.2059 384.705 96.2563C384.749 96.3067 384.782 96.3652 384.803 96.4285L390.5 113.515C390.521 113.578 390.53 113.644 390.526 113.71C390.521 113.777 390.503 113.841 390.473 113.901C390.444 113.96 390.402 114.013 390.352 114.056C390.301 114.099 390.242 114.132 390.179 114.152Z" fill="#718DD0"/>
<path d="M388.3 114.778L382.079 116.844C381.967 116.881 381.85 116.896 381.732 116.888C381.615 116.879 381.501 116.848 381.395 116.796C381.29 116.743 381.196 116.67 381.119 116.582C381.042 116.493 380.984 116.39 380.947 116.278L375.495 99.9427C375.42 99.7175 375.438 99.4719 375.544 99.2596C375.65 99.0473 375.836 98.8855 376.061 98.8097L382.282 96.7436C382.394 96.706 382.512 96.6908 382.629 96.6989C382.747 96.707 382.862 96.7382 382.967 96.7907C383.073 96.8432 383.167 96.9161 383.244 97.005C383.321 97.0939 383.38 97.1972 383.417 97.3089L388.866 113.652C388.939 113.876 388.921 114.12 388.815 114.331C388.709 114.542 388.524 114.702 388.3 114.778Z" fill="#0D0D38"/>
<path d="M376.016 106.291C376.016 106.291 377.789 102.627 381.046 104.103C384.303 105.578 382.883 111.136 380.986 113.087C379.09 115.038 378.561 115.924 378.561 115.924L376.016 106.291Z" fill="#EA8888"/>
<path d="M437.031 297.06C436.904 298.451 436.61 299.639 436.014 300.019H412.143C412.225 299.414 412.751 297.358 415.971 296.907C419.035 296.475 423.988 295.021 426.421 291.85C427.012 291.097 427.438 290.228 427.674 289.301C428.901 284.331 436.929 291.024 436.929 291.024C436.929 291.024 437.021 291.892 437.076 293.093C437.151 294.415 437.136 295.74 437.031 297.06Z" fill="#0D0D38"/>
<path d="M458.141 300.019H433.252C433.63 299.282 434.163 298.635 434.816 298.124C435.469 297.613 436.225 297.25 437.033 297.06C437.293 296.994 437.558 296.943 437.824 296.907C440.495 296.53 444.604 295.374 447.227 292.983C448.345 292.013 449.144 290.73 449.522 289.301C450.75 284.331 458.777 291.024 458.777 291.024C458.777 291.024 458.86 291.817 458.92 292.945C459.045 295.227 459.08 298.873 458.141 300.019Z" fill="#0D0D38"/>
<path d="M447.415 165.559C447.415 165.559 447.397 166.457 447.36 168.072C447.137 178.48 446.245 218.728 445.401 241.167C445.365 241.982 445.335 242.773 445.305 243.54C445.288 243.946 445.273 244.353 445.255 244.756C444.754 255.604 443.276 266.227 441.785 274.721C439.886 285.554 437.959 292.933 437.959 292.933C430.719 294.396 426.029 291.65 426.029 291.65C426.029 291.65 424.077 274.834 423.333 264.659C423.082 261.357 421.897 250.091 420.402 236.394C419.244 225.796 417.896 213.738 416.673 202.77C416.608 202.187 416.546 201.602 416.478 201.019C414.491 183.29 412.848 168.848 412.848 168.848L425.648 167.63L447.415 165.559Z" fill="#93B3F4"/>
<path d="M441.785 274.721L420.402 236.384C419.244 225.787 417.896 213.728 416.673 202.76C416.608 202.177 416.546 201.592 416.478 201.009C414.491 183.28 412.848 168.838 412.848 168.838L425.648 167.62L447.36 168.065L441.785 274.721Z" fill="#6D89CF"/>
<path d="M415.213 168.94C415.213 168.94 427.176 227.985 436.927 256.485C446.678 284.984 446.796 292.898 446.796 292.898C446.796 292.898 455.743 294.834 459.684 292.585C459.684 292.585 461.939 238.558 456.036 224.216C452.135 214.726 449.151 194.528 450.163 187.255C451.176 179.981 452.125 165.391 452.125 165.391L415.213 168.94Z" fill="#93B3F4"/>
<path d="M440.776 77.8643L430.855 87.3691C428.373 85.2534 426.238 82.7638 424.526 79.9903C423.271 77.9545 422.162 75.8323 421.209 73.6397C420.66 72.444 426.721 68.6196 430.135 66.1934C431.198 65.408 432.017 64.7952 432.29 64.4175C432.29 64.4175 432.566 65.1028 433.009 66.1258C433.761 67.7642 434.958 70.2254 436.123 71.8312C439.057 75.8833 440.776 77.8643 440.776 77.8643Z" fill="#EA8888"/>
<path d="M448.943 172.099C446.114 174.1 441.66 174.818 436.749 174.743C431.019 174.651 424.673 173.47 419.602 171.954C417.266 171.292 414.995 170.42 412.817 169.348C405.241 165.403 406.316 160.153 406.496 140.501C406.682 120.443 419.046 94.5151 421.278 90.1754C425.242 82.449 443.02 85.2979 443.02 85.2979C446.921 87.1639 448.309 93.387 448.687 101.516C449.111 110.548 448.289 121.931 448.289 132.314C448.289 140.898 449.912 148.487 451.092 154.78C452.618 162.952 453.407 168.94 448.943 172.099Z" fill="#455A64"/>
<path d="M451.081 154.781C447.662 161.979 440.924 170.078 436.743 174.743C431.013 174.651 424.667 173.47 419.596 171.954C417.461 166.854 416.527 158.342 418.498 144.288C420.002 133.572 430.96 90.4706 430.96 90.4706C439.807 89.3176 445.309 94.13 448.676 101.516C449.1 110.548 448.278 121.932 448.278 132.314C448.283 140.899 449.906 148.487 451.081 154.781Z" fill="#263238"/>
<path d="M440.582 74.02C440.582 74.02 443.614 83.5899 443.015 85.2982C443.015 85.2982 426.211 87.2617 419.539 93.755C419.539 93.755 422.065 84.6779 424.735 82.3467C427.406 80.0156 440.582 74.02 440.582 74.02Z" fill="#455A64"/>
<path d="M440.058 200.194C440.09 198.966 439.805 197.75 439.23 196.664C438.655 195.577 437.81 194.657 436.776 193.991C433.371 191.775 427.569 189.158 419.589 189.666C406.12 190.519 403.126 197.99 402.697 203.753C402.269 209.516 397.782 217.84 396.712 224.243C395.642 230.647 393.856 246.935 403.396 248.213C412.937 249.491 444.914 248.213 444.914 248.213C444.914 248.213 452.365 239.496 444.914 222.748C440.494 212.823 439.94 204.554 440.058 200.194Z" fill="#3A49CD"/>
<path d="M435.921 191.579L433.371 191.241C433.371 191.241 433.473 189.448 432.572 188.105C431.878 187.074 430.725 186.494 429.147 186.399C427.643 186.304 426.468 186.729 425.704 187.674C424.624 189 424.597 191.019 424.597 191.041H422.031C422.031 190.901 422.031 187.612 423.91 185.273C425.198 183.655 427.007 182.962 429.272 183.045C431.592 183.195 433.363 184.168 434.533 185.944C436.152 188.405 435.931 191.454 435.921 191.579Z" fill="#3A49CD"/>
<path d="M451.431 248.211C451.431 248.211 419.446 249.506 409.903 248.211C400.36 246.915 402.137 230.657 403.231 224.236C404.326 217.815 408.773 209.516 409.217 203.746C409.283 202.578 409.479 201.421 409.801 200.296C411.169 195.376 415.237 190.359 426.086 189.673C434.088 189.173 439.866 191.792 443.291 194.011C444.321 194.676 445.163 195.594 445.737 196.676C446.312 197.758 446.599 198.969 446.573 200.194C446.573 200.694 446.538 201.319 446.538 201.945C446.608 206.622 447.54 214.068 451.431 222.778C458.887 239.514 451.431 248.211 451.431 248.211Z" fill="#3662C1"/>
<path opacity="0.4" d="M407.488 226.597H426.586C426.586 226.597 427.869 240.544 418.747 240.969C409.625 241.394 407.197 235.564 407.488 226.597Z" fill="#C3D5FA"/>
<path d="M407.488 226.597C407.488 226.597 410.765 231.579 416.758 231.437C422.751 231.294 426.595 226.597 426.595 226.597H407.488Z" fill="#C6D7FB"/>
<path opacity="0.4" d="M430.458 226.597H449.556C449.556 226.597 450.839 240.544 441.717 240.969C432.595 241.394 430.172 235.564 430.458 226.597Z" fill="#C3D5FA"/>
<path d="M430.457 226.597C430.457 226.597 433.734 231.579 439.727 231.437C445.72 231.294 449.561 226.597 449.561 226.597H430.457Z" fill="#C6D7FB"/>
<path opacity="0.4" d="M446.572 200.194C446.572 200.694 446.537 201.319 446.537 201.944C443.015 206.349 437.017 211.644 429 211.372C415.317 210.961 409.811 200.306 409.811 200.306C411.179 195.386 415.247 190.369 426.096 189.683C434.098 189.183 439.875 191.802 443.3 194.02C444.327 194.686 445.167 195.603 445.739 196.683C446.312 197.763 446.599 198.972 446.572 200.194Z" fill="#C3D5FA"/>
<path d="M428.553 214.143C428.137 214.142 427.739 213.976 427.445 213.683C427.151 213.39 426.986 212.992 426.984 212.577V211.154C426.986 210.739 427.151 210.342 427.445 210.049C427.739 209.756 428.137 209.591 428.553 209.591C428.968 209.591 429.366 209.756 429.66 210.049C429.954 210.342 430.12 210.739 430.121 211.154V212.577C430.12 212.992 429.954 213.39 429.66 213.683C429.366 213.976 428.968 214.142 428.553 214.143Z" fill="#C3D5FA"/>
<path d="M426.355 174.015C426.355 174.015 421.727 182.925 424.04 186.389C426.352 189.853 434.618 185.401 435.279 183.42C435.941 181.439 435.279 171.872 435.279 171.872L426.355 174.015Z" fill="#EA8888"/>
<path d="M446.146 104.33C446.146 104.33 444.424 128.842 444.447 138.99C444.47 149.138 436.382 176.109 436.382 176.109C436.382 176.109 431.033 176.537 428.934 176.266C427.551 176.112 426.227 175.624 425.075 174.846C425.075 174.846 426.849 142.975 423.462 130.758C420.074 118.542 419.896 94.0048 419.896 94.0048C419.896 94.0048 421.778 88.7071 433.042 90.3805C446.406 92.364 446.146 104.33 446.146 104.33Z" fill="#455A64"/>
<path d="M433.009 66.1157C433.009 66.1157 430.957 77.0087 424.526 79.9802C423.271 77.9444 422.162 75.8221 421.209 73.6295C420.66 72.4339 426.721 68.6095 430.135 66.1833C431.847 66.1507 433.009 66.1157 433.009 66.1157Z" fill="#E08A8A"/>
<path d="M419.283 76.6813C419.283 76.6813 434.699 73.9724 432.862 64.4251C431.026 54.8778 431.777 48.0794 421.856 49.405C411.934 50.7307 410.729 54.7427 410.567 58.0819C410.404 61.4211 415.224 77.1465 419.283 76.6813Z" fill="#EA8888"/>
<path d="M433.578 67.3316C433.578 67.3316 432.233 66.1185 436.294 61.4261C438.386 59.0049 440.273 56.7162 438.524 52.0113C436.775 47.3065 437.447 43.8272 430.833 42.8442C424.218 41.8612 424.005 38.6996 420.478 39.2649C416.95 39.8302 413.212 44.3275 410.191 44.8277C407.169 45.328 402.724 60.0854 409.389 60.6607C409.389 60.6607 412.055 59.7953 413.463 57.9668C414.871 56.1384 421.177 52.4341 422.745 54.1824C424.313 55.9308 430.018 66.8713 433.578 67.3316Z" fill="#0D0D38"/>
<path d="M671.708 163.915L682.091 137.151C682.935 134.98 687.738 101.196 687.738 101.196L708.162 93.0542C708.162 93.0542 696.655 136.474 694.407 141.931C690.697 150.948 676.654 164.883 676.654 164.883C677.553 166.694 676.601 169.045 674.459 170.588C672.317 172.132 673.114 171.906 671.631 173.032C670.147 174.158 668.764 171.781 668.764 171.781C665.916 165.903 671.708 163.915 671.708 163.915Z" fill="#EB8E8E"/>
<path d="M705.383 94.6278C705.383 94.6278 714.903 89.6252 728.558 88.6247C732.118 88.3645 735.663 89.299 738.631 91.2797C741.598 93.2604 743.818 96.1739 744.938 99.5577C745.07 99.958 745.196 100.375 745.316 100.808C748.523 112.314 746.775 147.172 735.989 156.264C725.203 165.356 705.383 161.517 705.383 161.517V94.6278Z" fill="#0D0D38"/>
<path d="M675.648 175.856C675.648 175.856 676.806 190.264 678.166 207.58C680.013 231.107 687.046 289.724 687.046 289.724C687.046 289.724 685.555 292.06 692.793 290.537C692.793 290.537 701.66 270.572 703.504 247.605C703.531 247.23 703.559 246.855 703.589 246.47C705.303 223.09 707.966 173.86 707.966 173.86L675.648 175.856Z" fill="#718DD0"/>
<path d="M675.256 170.876C675.256 170.876 676.807 190.263 678.167 207.58L703.504 247.6C703.532 247.225 703.559 246.849 703.59 246.464C705.303 223.085 707.967 173.855 707.967 173.855L675.256 170.876Z" fill="#3662C1"/>
<path d="M680.906 167.227L724.448 292.325C724.448 292.325 729.003 291.469 730.025 289.458C730.025 289.458 731.278 236.554 723.899 223.79C719.73 216.579 716.821 196.349 717.317 189.523C718.29 176.136 714.296 163.675 714.296 163.675L680.906 167.227Z" fill="#718DD0"/>
<path d="M693.83 299.969H690.285C689.097 299.781 688.221 299.438 687 299.278C685.151 299.028 684.3 299.793 684.132 299.969L684.099 300.004H669.037C668.656 299.463 669.022 298.213 669.377 297.292C669.497 296.983 669.686 296.706 669.931 296.483C670.176 296.259 670.469 296.095 670.788 296.004C672.384 295.541 675.533 295.131 678.417 292.525C680.038 291.062 686.251 287.142 686.251 287.142H686.284C686.419 287.142 687.071 287.342 689.897 289.723C691.355 290.954 693.845 287.99 693.845 287.99C694.187 288.301 694.465 288.675 694.662 289.093C695.013 289.809 695.126 290.617 694.985 291.402C694.76 292.757 695.486 295.276 696.065 296.977C696.416 298.01 696.711 298.743 696.711 298.743C696.711 298.743 696.887 299.586 693.83 299.969Z" fill="#C7D8FB"/>
<path d="M693.823 300.019H690.293C689.105 299.831 688.221 299.439 687 299.269C685.151 299.018 684.3 299.784 684.132 299.959L684.099 299.994H669.037C668.656 299.454 669.022 298.203 669.377 297.283C669.833 296.875 669.964 299.033 670.217 299.391C670.47 299.749 682.493 299.516 683.197 299.013C683.901 298.511 685.978 297.625 688.884 298.318C691.415 298.921 695.148 297.375 696.065 296.962C696.416 297.995 696.711 298.728 696.711 298.728C696.711 298.728 696.887 299.639 693.823 300.019Z" fill="#BED2FA"/>
<path d="M730.037 299.969H726.492C725.304 299.781 724.427 299.438 723.207 299.278C721.358 299.028 720.506 299.793 720.336 299.969L720.303 300.004H705.24C704.862 299.463 705.225 298.213 705.584 297.292C705.703 296.983 705.893 296.706 706.137 296.483C706.382 296.259 706.675 296.095 706.994 296.004C708.59 295.541 711.74 295.131 714.623 292.525C716.247 291.062 722.458 287.142 722.458 287.142H722.49C722.626 287.142 723.277 287.342 726.101 289.723C727.561 290.954 730.052 287.99 730.052 287.99C730.393 288.301 730.67 288.676 730.868 289.093C731.219 289.809 731.332 290.617 731.192 291.402C730.966 292.757 731.693 295.276 732.271 296.977C732.622 298.01 732.918 298.743 732.918 298.743C732.918 298.743 733.086 299.586 730.037 299.969Z" fill="#C7D8FB"/>
<path d="M730.029 300.019H726.499C725.311 299.831 724.427 299.439 723.207 299.269C721.358 299.018 720.506 299.784 720.336 299.959L720.303 299.994H705.24C704.862 299.454 705.225 298.203 705.584 297.283C706.04 296.875 706.17 299.033 706.423 299.391C706.676 299.749 718.7 299.516 719.404 299.013C720.108 298.511 722.185 297.625 725.091 298.318C727.621 298.921 731.354 297.375 732.271 296.962C732.622 297.995 732.918 298.728 732.918 298.728C732.918 298.728 733.081 299.639 730.029 300.019Z" fill="#BED2FA"/>
<path d="M707.673 92.6218C707.673 92.6218 693.56 99.5553 685.402 96.9865C686.95 95.169 688.818 93.6498 690.914 92.5042C690.714 91.3186 690.553 90.2356 690.428 89.2701C690.172 87.454 690.016 85.6254 689.96 83.7923L698.608 76.8313L700.547 75.2705C700.492 76.8062 700.581 78.3437 700.813 79.8628C700.828 79.9754 700.846 80.0854 700.863 80.1955C702.266 88.5722 707.673 92.6218 707.673 92.6218Z" fill="#FCA2A1"/>
<path d="M715.728 166.384C715.768 167.282 713.917 168.27 713.115 168.635C709.724 170.198 706.21 171.482 702.61 172.474C700.131 173.138 697.601 173.595 695.046 173.842C687.49 174.615 678.56 172.917 675.504 172.957C675.189 172.954 674.885 172.839 674.647 172.634C674.441 172.469 674.279 163.255 674.441 151.624C674.441 151.176 674.441 150.683 674.481 150.236V150.073C674.524 145.546 674.687 140.776 674.892 136.046C675.341 125.608 676.145 115.536 677.548 109.948C679.182 103.384 682.937 99.0622 686.37 95.8831L688.807 93.4594C688.883 93.3852 688.975 93.3303 689.076 93.2994C689.177 93.2684 689.285 93.2624 689.389 93.2818C692.117 93.782 695.104 93.742 697.967 92.3338C701.194 90.7455 704.707 89.0321 705.278 89.4398C711.978 94.4424 715.3 109.2 715.247 125.978C715.247 126.509 715.242 127.04 715.232 127.574C715.202 129.307 715.139 131.061 715.039 132.827C714.31 145.21 715.059 155.943 715.488 162.184C715.603 163.975 715.701 165.401 715.728 166.384Z" fill="white"/>
<path d="M679.768 141.149L678.146 141.63C677.638 141.78 677.349 142.314 677.5 142.821L677.847 143.988C677.998 144.496 678.532 144.785 679.04 144.634L680.661 144.153C681.169 144.003 681.459 143.469 681.308 142.962L680.961 141.795C680.81 141.287 680.276 140.998 679.768 141.149Z" fill="#3A49CD"/>
<path d="M684.577 143.43L688.934 158.08C689.075 158.558 689.021 159.072 688.783 159.511C688.546 159.95 688.144 160.277 687.666 160.421L682.097 162.072C681.617 162.211 681.102 162.157 680.664 161.919C680.225 161.682 679.898 161.281 679.754 160.803L675.395 146.151C675.254 145.673 675.309 145.158 675.547 144.72C675.785 144.282 676.187 143.956 676.665 143.812L682.234 142.161C682.713 142.022 683.228 142.076 683.667 142.314C684.106 142.551 684.433 142.952 684.577 143.43Z" fill="#DDE8FD"/>
<path d="M684.751 144.022L688.933 158.08C689.074 158.558 689.019 159.072 688.782 159.511C688.544 159.95 688.143 160.277 687.665 160.421L682.095 162.072C681.616 162.212 681.101 162.157 680.662 161.919C680.224 161.682 679.897 161.281 679.753 160.803L675.656 147.046C676.478 146.769 678.372 146.201 679.733 146.296C681.093 146.391 683.558 144.825 684.751 144.022Z" fill="white"/>
<path d="M685.148 145.33L675.961 148.054L678.693 157.24L687.88 154.516L685.148 145.33Z" fill="#3A49CD"/>
<path d="M715.729 166.384C715.769 167.282 713.918 168.27 713.116 168.635C709.725 170.198 706.211 171.482 702.611 172.475C692.864 141.041 704.532 110.573 704.532 110.573L715.225 127.582C715.195 129.315 715.133 131.069 715.032 132.834C714.303 145.218 715.053 155.951 715.481 162.192C715.604 163.975 715.701 165.401 715.729 166.384Z" fill="#BED2FA"/>
<path d="M700.738 115.463C704.231 113.397 711.246 109.645 717.044 109.053C717.339 109.022 717.622 108.922 717.871 108.761C718.12 108.601 718.328 108.384 718.478 108.128C718.627 107.872 718.714 107.585 718.731 107.289C718.748 106.993 718.695 106.698 718.577 106.426C716.745 102.249 711.562 93.5048 705.27 89.4427C704.679 89.06 704.233 89.3927 703.619 89.7354C701.294 91.0385 696.289 94.8905 695.98 99.4328C695.707 103.472 697.093 110.481 697.932 114.25C697.996 114.541 698.129 114.813 698.319 115.043C698.509 115.273 698.751 115.454 699.025 115.573C699.299 115.691 699.597 115.743 699.895 115.724C700.192 115.705 700.482 115.616 700.738 115.463Z" fill="white"/>
<path d="M700.931 80.0677C700.931 80.0677 700.908 80.1127 700.861 80.1953C700.317 81.1707 696.586 87.4664 690.426 89.2698C690.17 87.4538 690.013 85.6252 689.957 83.7921L698.606 76.8311C699.418 77.7834 700.155 78.7969 700.811 79.8626L700.931 80.0677Z" fill="#EB8E8E"/>
<path d="M687.462 83.5995C687.462 83.5995 700.934 85.8331 702.199 77.4364C703.465 69.0396 706.055 63.6794 697.507 61.8885C688.958 60.0976 686.801 63.0616 685.696 65.7605C684.591 68.4593 683.99 82.8016 687.462 83.5995Z" fill="#FCA2A1"/>
<path d="M707.031 60.5104C707.089 60.1969 707.219 59.901 707.41 59.6456C707.601 59.3902 707.848 59.182 708.133 59.0371C708.133 59.0371 707.168 59.1422 706.647 59.765C706.56 58.9621 706.374 57.8365 705.948 57.0687C705.959 57.7276 705.929 58.3867 705.861 59.0421C700.02 53.1542 686.401 59.6099 683.605 60.8956C678.692 63.1467 681.448 67.3538 684.592 68.3819C687.736 69.4099 695.558 66.1057 695.666 68.2718C695.774 70.4379 697.239 72.8166 698.054 72.8716C698.868 72.9267 699.462 71.1933 700.491 72.3314C701.521 73.4694 699.74 75.2703 699.74 75.2703C698.67 77.2213 700.87 80.1953 700.87 80.1953C700.87 80.1953 701.584 80.6105 702.829 79.1948C704.029 77.8416 712.813 69.1022 707.031 60.5104Z" fill="#12123C"/>
<path d="M715.52 135.146L715.936 132.579C709.692 131.579 704.639 128.577 700.918 123.675C698.025 119.771 696.159 115.204 695.494 110.393C694.254 101.196 696.679 95.961 702.905 94.3852C708.482 92.9745 714.931 97.3267 714.991 97.3692L716.467 95.2306C716.164 95.023 708.996 90.1656 702.266 91.8664C697.02 93.1921 691.137 97.5393 692.916 110.733C693.324 113.777 694.64 119.708 698.846 125.241C702.983 130.691 708.592 134.023 715.52 135.146Z" fill="#0D0D38"/>
<path d="M682.714 150.106C685.22 149.48 689.98 150.286 690.945 150.458C690.945 150.458 708.177 138.392 711.199 135.376C713.383 133.195 704.612 123.352 700.044 115.708C700.29 115.671 700.526 115.586 700.738 115.458C704.231 113.39 711.249 109.638 717.041 109.045C717.254 109.023 717.461 108.966 717.655 108.877C721.611 117.407 725.69 128.602 726.542 139.796C726.542 139.796 711.985 153.98 693.59 156.471C693.59 156.471 682.599 159.258 680.855 159.143C679.112 159.028 678.418 156.707 678.185 155.431C677.952 154.155 679.926 150.801 682.714 150.106Z" fill="#FCA2A1"/>
<path d="M515.038 266.55H501.786C501.786 266.55 498.875 267.025 497.68 275.832C496.485 284.639 493 300.329 493 300.329H510.573L515.038 266.55Z" fill="#3662C1"/>
<path d="M506.075 300.327C507.611 300.152 577.479 300.327 577.479 300.327C577.479 300.327 580.305 299.932 577.792 287.963C577.663 287.332 577.579 286.693 577.542 286.05C577.319 282.798 577.9 278.901 577.697 275.775C577.697 275.775 578.591 265.755 565.203 266.585C551.814 267.415 527.408 267.495 518.204 266.543C508.999 265.59 506.907 272.733 507.325 277.22C507.385 278.262 507.37 279.307 507.282 280.347C506.841 287.25 504.787 300.475 506.075 300.327Z" fill="#6D89CF"/>
<path d="M526.8 270.669C526.842 270.597 531.427 263.21 539.021 262.755C546.698 262.292 554.362 269.819 554.439 269.894L556.085 268.25C555.745 267.908 547.617 259.909 538.881 260.434C530.049 260.962 525.013 269.121 524.803 269.466L526.8 270.669Z" fill="#6D89CF"/>
<path d="M587.451 252.11C587.483 250.884 587.198 249.67 586.624 248.586C586.05 247.501 585.206 246.582 584.174 245.917C580.77 243.701 574.964 241.084 566.985 241.59C553.516 242.443 550.524 249.914 550.096 255.677C549.667 261.44 545.178 269.764 544.108 276.167C543.038 282.57 541.254 298.861 550.795 300.139C560.335 301.417 592.312 300.139 592.312 300.139C592.312 300.139 599.761 291.422 592.312 274.674C587.902 264.739 587.339 256.472 587.451 252.11Z" fill="#DA384A"/>
<path d="M593.957 252.11C593.989 250.884 593.703 249.67 593.13 248.586C592.556 247.501 591.712 246.582 590.68 245.917C587.275 243.701 581.47 241.084 573.491 241.59C560.021 242.443 557.03 249.914 556.602 255.677C556.173 261.44 551.683 269.764 550.614 276.167C549.544 282.57 547.76 298.861 557.301 300.139C566.841 301.417 598.72 300.329 598.72 300.329C598.72 300.329 606.266 291.422 598.818 274.674C594.398 264.739 593.845 256.472 593.957 252.11Z" fill="#F03E51"/>
<path d="M555.461 278.516H574.56C574.56 278.516 575.843 292.46 566.721 292.888C557.599 293.316 555.176 287.48 555.461 278.516Z" fill="#F5596A"/>
<path d="M555.461 278.516C555.461 278.516 558.738 283.496 564.731 283.353C570.724 283.211 574.565 278.516 574.565 278.516H555.461Z" fill="#DA384A"/>
<path d="M578.436 278.516H597.537C597.537 278.516 598.818 292.46 589.698 292.888C580.578 293.316 578.15 287.48 578.436 278.516Z" fill="#F5596A"/>
<path d="M578.436 278.516C578.436 278.516 581.715 283.496 587.706 283.353C593.696 283.211 597.542 278.516 597.542 278.516H578.436Z" fill="#DA384A"/>
<path d="M569.638 250.661H582.799C584.668 250.661 586.462 251.403 587.784 252.723C589.106 254.043 589.849 255.833 589.849 257.7V260.701C589.849 261.626 589.666 262.541 589.312 263.395C588.958 264.249 588.439 265.025 587.784 265.678C587.129 266.332 586.352 266.85 585.497 267.204C584.641 267.558 583.724 267.74 582.799 267.74H569.638C567.768 267.74 565.976 266.998 564.654 265.679C563.332 264.359 562.59 262.57 562.59 260.704V257.702C562.59 256.778 562.772 255.863 563.126 255.008C563.48 254.154 563.999 253.378 564.653 252.724C565.308 252.071 566.085 251.552 566.94 251.198C567.795 250.844 568.712 250.661 569.638 250.661Z" fill="#F5596A"/>
<path d="M563.371 249.966C563.371 249.966 567.916 256.869 576.214 256.672C584.512 256.474 589.846 249.966 589.846 249.966H563.371Z" fill="#DA384A"/>
<path d="M583.32 243.498L580.767 243.248C580.803 242.376 580.52 241.52 579.97 240.841C579.274 240.051 578.121 239.608 576.545 239.536C575.042 239.461 573.867 239.786 573.1 240.511C572.023 241.529 571.995 243.078 571.995 243.093H569.43C569.43 242.987 569.43 240.466 571.306 238.67C572.597 237.42 574.403 236.899 576.668 236.964C578.99 237.077 580.762 237.825 581.929 239.185C583.55 241.061 583.33 243.4 583.32 243.498Z" fill="#DA384A"/>
<path d="M627.335 290.219C627.335 290.219 626.716 300.166 624.79 300.309C624.539 300.329 615.019 300.329 615.019 300.329H602.725C602.725 300.329 602.943 297.327 606.483 296.717C610.023 296.107 615.983 293.605 618.135 288.915C620.405 283.983 627.335 290.219 627.335 290.219Z" fill="#060632"/>
<path d="M628.033 290.909C628.033 290.909 624.338 292.143 621.454 292.143C619.377 292.116 617.313 291.822 615.311 291.27C615.311 291.27 614.615 284.551 610.786 269.759C608.782 262.005 605.913 252.027 601.837 239.634C590.563 205.384 587.133 185.356 586.819 183.45C586.802 183.35 586.797 183.3 586.797 183.3L586.832 183.283L621.497 168.09C621.497 168.09 617.213 215.294 622.677 233.413C623.508 236.266 624.17 239.165 624.661 242.095C628.114 261.775 628.033 290.909 628.033 290.909Z" fill="#547ACA"/>
<path d="M624.66 242.09L610.785 269.754C608.781 262 605.912 252.022 601.836 239.629C590.561 205.379 587.132 185.351 586.818 183.445C586.818 183.388 586.818 183.335 586.831 183.278L621.496 168.085C621.496 168.085 617.212 215.289 622.676 233.408C623.507 236.261 624.169 239.16 624.66 242.09Z" fill="#3662C1"/>
<path d="M600.258 290.219C600.258 290.219 599.641 300.167 597.712 300.309C597.461 300.329 575.539 300.707 575.539 300.707C575.539 300.707 575.857 297.335 579.412 296.705C582.968 296.075 588.913 293.593 591.065 288.904C593.327 283.984 600.258 290.219 600.258 290.219Z" fill="#060632"/>
<path d="M580.605 169.198C580.605 169.198 580.154 199.786 585.456 237.345C590.757 274.904 588.963 290.847 588.963 290.847C588.963 290.847 592.606 292.025 594.074 292.143C597.82 292.448 601.661 291.267 601.661 291.267C601.661 291.267 609.25 253.696 607.072 234.896C604.895 216.097 617.462 170.389 617.462 170.389L580.605 169.198Z" fill="#547ACA"/>
<path d="M608.281 96.4136C608.281 96.4136 626.182 114.56 627.054 121.616C627.926 128.672 618.413 139.713 618.413 139.713L608.281 96.4136Z" fill="#DA384A"/>
<path d="M605.188 97.6144L598.423 102.042L588.652 100.223C588.788 99.4353 589.434 96.1687 590.02 93.2197C590.058 93.0471 590.093 92.872 590.125 92.7019C590.627 90.1856 591.065 88.0221 591.065 88.0221L600.177 83.99L603.582 82.4893C603.582 82.5418 603.332 85.2807 603.284 85.6809C602.653 92.787 605.188 97.6144 605.188 97.6144Z" fill="#FCA2A1"/>
<path d="M589.57 95.4407C589.76 95.3606 602.921 91.8839 604.179 92.2991C605.437 92.7143 606.183 95.1455 606.183 95.1455L587.235 99.4202C587.235 99.4202 587.15 96.4612 589.57 95.4407Z" fill="#DA384A"/>
<path d="M622.342 172.98C620.377 181.922 587.699 182.985 579.276 174.866C578.319 173.94 578.274 169.635 578.632 163.833C579.339 152.492 581.609 135.436 581.696 126.719C581.785 122.545 582.252 118.387 583.092 114.298C584.091 109.243 585.476 104.273 587.236 99.43C587.236 99.43 603.198 94.2774 606.184 95.1554C620.573 99.3675 624.303 164.03 622.342 172.98Z" fill="#F03E51"/>
<path d="M578.631 163.825C579.337 152.484 581.607 135.428 581.695 126.711C581.784 122.537 582.251 118.38 583.091 114.29L592.691 112.599C592.691 112.599 602.079 150.878 578.631 163.825Z" fill="#DA384A"/>
<path d="M583.83 148.02C583.83 148.02 584.487 149.581 583.111 150.629C581.736 151.677 580.856 153.38 581.159 154.618C581.463 155.856 584.489 157.885 585.534 157.56C586.579 157.235 588.473 156.389 588.478 154.941C588.478 154.248 589.908 149.188 587.36 147.235C584.812 145.281 583.83 148.02 583.83 148.02Z" fill="#FCA2A1"/>
<path d="M594.599 97.5615C594.599 97.5615 585.203 98.8772 577.742 109.855C570.281 120.833 565.373 128.992 566.749 132.949C568.124 136.906 580.649 150.626 582.811 150.626C584.973 150.626 588.455 149.058 588.651 145.531C588.651 145.531 580.295 132.297 582.032 130.321C582.783 129.478 593.02 120.831 594.559 124.753C597.077 131.239 594.599 97.5615 594.599 97.5615Z" fill="#F03E51"/>
<path d="M602.606 85.8084C600.602 89.2001 593.128 92.1316 590.012 93.2096C590.049 93.037 590.084 92.8619 590.117 92.6918C590.618 90.1756 591.057 88.012 591.057 88.012L600.179 83.9899C602.206 83.9624 603.436 84.4127 602.606 85.8084Z" fill="#FC9290"/>
<path d="M587.613 87.4593C587.613 87.4593 602.322 92.0391 605.038 82.8495C607.754 73.6599 611.482 68.0645 602.205 64.7504C592.927 61.4362 590.061 64.4027 588.405 67.2516C586.749 70.1006 583.857 86.0311 587.613 87.4593Z" fill="#FCA2A1"/>
<path d="M588.984 66.3662C588.984 66.3662 589.924 77.0591 592.139 76.5939C594.353 76.1287 596.36 75.786 596.037 79.0101C595.714 82.2342 592.642 85.9536 599.467 86.5139C606.292 87.0742 616.108 69.5053 614.231 66.1811C608.82 56.5913 581.165 54.6528 588.984 66.3662Z" fill="#0B0754"/>
<path d="M343.215 172.134C343.215 172.134 354.139 167.169 362.402 171.512C370.664 175.854 365.613 211.694 353.795 215.169C353.795 215.169 328.428 245.952 343.215 172.134Z" fill="#0D0D38"/>
<path d="M323.874 176.284C323.336 172.092 324.376 164.493 324.376 164.493C324.376 164.493 320.667 164.301 318.59 169.183C314.284 179.301 316.153 201.142 316.413 204.268C316.413 204.268 314.935 210.479 317.132 221.217C316.838 221.954 316.497 222.672 316.11 223.365C316.071 223.408 316.035 223.454 316.002 223.503C315.867 223.706 315.794 223.944 315.791 224.188C315.787 224.432 315.855 224.672 315.985 224.879L317.408 227.13C317.537 227.335 317.724 227.499 317.944 227.6C318.015 227.632 318.089 227.658 318.165 227.678L319.918 228.093L320.094 222.09C320.094 222.09 320.094 222.09 320.074 222.09C320.693 216.202 324.368 180.134 323.874 176.284ZM319.322 222.535L319.284 222.488L319.36 222.533C319.342 222.538 319.327 222.54 319.322 222.535Z" fill="#E75957"/>
<path d="M355.329 294.961L353.926 300.019H342.065C342.065 300.019 338.535 293.541 355.329 294.961Z" fill="#0D0D38"/>
<path d="M329.895 294.961L328.492 300.019H316.632C316.632 300.019 313.101 293.541 329.895 294.961Z" fill="#0D0D38"/>
<path d="M353.02 142.425C353.794 139.07 352.84 136.592 351.299 134.208C349.818 131.922 347.741 131.822 345.744 129.886C343.865 128.062 340.36 126.864 337.572 126.864C328.65 126.864 320.921 132.317 322.682 141.567C323.243 144.506 322.77 146.819 325.155 150.256C328.134 154.543 331.754 157.985 337.572 157.985C340.658 157.985 343.364 157.275 345.744 155.028C347.042 153.805 348.899 153.653 350.041 152.322C352.346 149.633 352.173 146.086 353.02 142.425Z" fill="#0B0754"/>
<path d="M331.381 153.377C331.381 153.377 333.341 160.934 329.377 164.133L340.501 169.808L341.964 162.462C341.964 162.462 339.865 156.724 340.441 148.732L331.381 153.377Z" fill="#E75957"/>
<path d="M331.096 157.182C331.096 157.182 342.481 158.568 342.724 150.561C342.967 142.554 338.214 137.364 335.055 137.424C328.738 137.542 327.696 140.091 326.965 142.745C326.233 145.398 325.855 156.617 331.096 157.182Z" fill="#EA6B69"/>
<path d="M320.234 217.7L342.733 219.556C342.733 219.556 345.376 258.951 330.592 295.471L317.984 295.221L320.234 217.7Z" fill="#3662C1"/>
<path d="M355.147 219.963C355.147 219.963 362.069 246.809 356.457 295.807H341.174L333.851 232.195C333.57 230.311 330.023 227.692 330.023 227.692L329.885 220.424L355.147 219.963Z" fill="#718DD0"/>
<path d="M355.658 180.149L357.129 168.085C356.906 167.772 356.728 167.507 356.505 167.24C353.919 164.078 343.978 162.7 341.974 162.487C341.873 162.662 341.748 162.821 341.603 162.96C339.774 164.608 337.291 166.362 333.991 165.917C331.183 165.561 330.734 164.091 330.814 162.487C324.927 163.468 321.582 165.316 321.582 165.316C315.584 167.567 314.379 187.45 314.379 187.45C315.176 187.2 319.154 187.908 321.003 188.253L320.252 217.733C334.565 223.966 355.165 219.959 355.165 219.959L355.119 219.781L353.739 196.187L355.032 185.414L355.658 180.149Z" fill="#455A64"/>
<path d="M334.143 152.567C334.143 152.567 333.892 153.567 331.4 153.382C331.4 153.382 329.308 153.227 329.395 152.132C329.385 152.127 331.425 151.369 334.143 152.567Z" fill="white"/>
<path d="M346.483 219.003C347.455 220.219 352.245 220.647 355.134 219.754L353.731 196.192L355.66 180.166L353.796 179.301C353.796 179.301 345.603 185.862 346.561 191.092C347.518 196.322 345.23 217.425 346.483 219.003Z" fill="#263238"/>
<path d="M364.087 181.352C364.087 181.352 357.753 183.71 355.034 185.401C354.619 185.62 354.242 185.905 353.92 186.247L345.268 169.065L343.62 165.814L342.102 162.742L341.969 162.475C341.969 162.475 342.089 162.475 342.324 162.52C344.123 162.722 345.909 163.02 347.676 163.41C349.251 163.747 350.801 164.193 352.314 164.746H352.359C354.143 165.414 355.658 166.259 356.505 167.247C356.728 167.515 356.906 167.78 357.129 168.092C360.028 172.23 364.087 181.352 364.087 181.352Z" fill="#455A64"/>
<path d="M354.766 213.268C354.766 213.268 323.949 180.371 343.619 165.814C344.876 164.861 346.236 164.055 347.675 163.41C349.251 163.747 350.8 164.194 352.313 164.746C349.603 165.492 347.16 166.99 345.268 169.066C340.507 174.361 338.268 185.624 354.498 209.086L354.766 213.268Z" fill="#718DD0"/>
<path d="M332.236 137.5C332.236 137.5 341.967 137.5 339.73 144.163C338.322 148.365 343.007 149.018 343.007 149.018L345.262 142.282L343.849 137.029L332.236 137.5Z" fill="#0B0754"/>
<path d="M363.8 181.414C360.794 182.34 356.254 184.358 354.871 185.714C356.402 189.216 357.261 191.547 357.261 191.547C356.111 191.046 350.166 190.546 347.087 190.334C346.736 190.309 343.92 189.386 343.92 189.386C343.92 189.386 343.895 184.583 338.391 184.203C338.391 184.203 336.101 184.215 336.569 185.779C337.038 187.342 337.09 186.662 337.704 188.883C338.318 191.104 339.916 192.79 341.618 192.885C349.79 199.743 361.039 199.801 364.432 199.638C364.725 199.624 365.007 199.515 365.233 199.327C365.459 199.14 365.617 198.884 365.684 198.598C366.975 193.035 366.095 187.255 363.8 181.414Z" fill="#E75957"/>
<path d="M768.248 302H0.751856C0.552451 302 0.361202 301.895 0.220201 301.707C0.0792011 301.52 0 301.265 0 301C0 300.735 0.0792011 300.48 0.220201 300.293C0.361202 300.105 0.552451 300 0.751856 300H768.248C768.448 300 768.639 300.105 768.78 300.293C768.921 300.48 769 300.735 769 301C769 301.265 768.921 301.52 768.78 301.707C768.639 301.895 768.448 302 768.248 302Z" fill="#0D0D38"/>
</svg>
