<svg width="1920" height="427" viewBox="0 0 1920 427" fill="none" xmlns="http://www.w3.org/2000/svg">
<path fill-rule="evenodd" clip-rule="evenodd" d="M2022 113.719L1933.62 88.3667C1845.25 62.1091 1668.5 9.59372 1491.75 1.44479C1315 -7.60958 1138.25 26.797 961.5 79.3123C784.75 131.828 608 200.641 431.25 209.695C254.5 218.75 77.7501 166.234 -10.6249 139.977L-99 113.719V427H-10.6249C77.7501 427 254.5 427 431.25 427C608 427 784.75 427 961.5 427C1138.25 427 1315 427 1491.75 427C1668.5 427 1845.25 427 1933.62 427H2022V113.719Z" fill="#E5E5F3"/>
</svg>
