<svg width="38" height="36" viewBox="0 0 38 36" fill="none" xmlns="http://www.w3.org/2000/svg">
<g clip-path="url(#clip0_91:2905)">
<path d="M18.5985 12C15.2072 12 12.4604 14.685 12.4604 18C12.4604 21.315 15.2072 24 18.5985 24C21.9898 24 24.7367 21.315 24.7367 18C24.7367 14.685 21.9898 12 18.5985 12ZM32.3172 16.5C31.6113 10.245 26.532 5.28 20.1331 4.59V1.5H17.064V4.59C10.665 5.28 5.58576 10.245 4.87988 16.5H1.71875V19.5H4.87988C5.58576 25.755 10.665 30.72 17.064 31.41V34.5H20.1331V31.41C26.532 30.72 31.6113 25.755 32.3172 19.5H35.4783V16.5H32.3172ZM18.5985 28.5C12.6676 28.5 7.85686 23.7975 7.85686 18C7.85686 12.2025 12.6676 7.5 18.5985 7.5C24.5295 7.5 29.3402 12.2025 29.3402 18C29.3402 23.7975 24.5295 28.5 18.5985 28.5Z" fill="#2B2C34"/>
</g>
<defs>
<clipPath id="clip0_91:2905">
<rect width="36.8286" height="36" fill="white" transform="translate(0.183594)"/>
</clipPath>
</defs>
</svg>
