<svg width="516" height="324" viewBox="0 0 516 324" fill="none" xmlns="http://www.w3.org/2000/svg">
<path fill-rule="evenodd" clip-rule="evenodd" d="M-695 232.927L-623.329 202.903C-554.917 169.877 -414.833 109.829 -274.75 124.841C-134.667 139.853 5.41669 232.927 145.5 202.903C285.583 169.877 425.667 16.7559 565.75 1.74401C705.833 -16.2702 845.917 109.829 917.587 169.877L986 232.927V326H917.587C845.917 326 705.833 326 565.75 326C425.667 326 285.583 326 145.5 326C5.41669 326 -134.667 326 -274.75 326C-414.833 326 -554.917 326 -623.329 326H-695V232.927Z" fill="#E5E5F3"/>
</svg>
