<svg width="1920" height="424" viewBox="0 0 1920 424" fill="none" xmlns="http://www.w3.org/2000/svg">
<path fill-rule="evenodd" clip-rule="evenodd" d="M0 254.4L80.4583 233.2C160.917 212 321.833 169.6 482.75 141.333C643.667 113.067 804.583 98.9333 965.5 120.133C1126.42 141.333 1287.33 197.867 1448.25 183.733C1609.17 169.6 1770.08 84.8 1850.54 42.4L1931 0V424H1850.54C1770.08 424 1609.17 424 1448.25 424C1287.33 424 1126.42 424 965.5 424C804.583 424 643.667 424 482.75 424C321.833 424 160.917 424 80.4583 424H0V254.4Z" fill="#DFDFF0"/>
</svg>
