<svg width="500" height="515" viewBox="0 0 500 515" fill="none" xmlns="http://www.w3.org/2000/svg">
<g clip-path="url(#clip0_1090_1904)">
<path d="M8.90002 319.3L0 326.7L129.5 342.8C148.428 350.27 168.11 355.668 188.2 358.9C195 293 265 241.1 350.2 241.1C384.7 241.1 416.7 249.6 443.1 264.2C459.5 239.3 468.9 211.2 468.9 181.4C468.9 81.3 364.3 0 235.8 0C107.3 0 2.60001 81.3 2.60001 181.4C2.60001 217.3 16.1 251.9 41.6 281.7H41.4L43.9 284.4C41 290.3 24.1 306.6 8.90002 319.3ZM80.5 100.9H384.4V117.4H80.5V100.9ZM80.5 162.1H384.4V178.6H80.5V162.1ZM80.5 223.3H241.4V239.9H80.5V223.3Z" fill="#D1D1E9"/>
<path d="M201 369.4C201 432.9 267.9 484.5 350.2 484.5C368.213 484.523 386.133 481.929 403.4 476.8L407 475.8L448.9 514.4V455.6L451.6 453.6C482 431.8 499.4 401.2 499.4 369.4C499.4 306 432.5 254.4 350.2 254.4C267.9 254.4 201 306 201 369.4Z" fill="#001963"/>
<path d="M384.4 100.9H80.5V117.41H384.4V100.9Z" fill="#F03E51"/>
<path d="M384.4 162.1H80.5V178.61H384.4V162.1Z" fill="#F03E51"/>
<path d="M241.4 223.4H80.5V239.91H241.4V223.4Z" fill="#F03E51"/>
</g>
<defs>
<clipPath id="clip0_1090_1904">
<rect width="499.5" height="514.5" fill="white"/>
</clipPath>
</defs>
</svg>
