<svg width="735" height="643" viewBox="0 0 735 643" fill="none" xmlns="http://www.w3.org/2000/svg">
<g clip-path="url(#clip0_35_635)">
<path d="M50.7862 257.641C38.8357 267.95 -6.23485 409.426 0.720467 442.946C7.67579 476.465 63.2298 543.503 63.2298 543.503L71.2728 491.074L50.7862 448.372C50.7862 448.372 67.8836 351.394 73.1949 319.355C78.5062 287.315 65.4429 244.992 50.7862 257.641Z" fill="#E68CA3"/>
<path d="M50.787 257.642C65.4437 244.993 78.4944 287.366 73.1957 319.38C67.897 351.394 50.787 448.398 50.787 448.398L71.2736 491.1L68.4029 509.833C38.5457 459.807 29.0485 365.966 26.0261 317.432C35.9785 286.746 46.0195 261.752 50.787 257.642Z" fill="#B5546D"/>
<path d="M65.1396 517.321C56.161 540.089 47.3087 553.737 48.1434 580.033C48.978 606.33 53.7583 626.138 53.48 642.164C53.3752 651.357 52.4739 660.524 50.7864 669.561C50.7864 669.561 96.7926 691.064 155.925 671.674L161.566 686.005C161.566 686.005 230.347 685.385 266.92 651.853C277.036 642.582 262.924 625.291 259.863 616.867C256.803 608.443 254.704 548.778 250.48 533.069C246.256 517.359 228.627 499.157 228.627 499.157L65.1396 517.321Z" fill="#262489"/>
<path d="M236.152 508.088C236.152 508.088 243.398 534.22 246.724 572.597C250.05 610.973 249.645 624.457 266.958 651.854" stroke="#96C5BB" stroke-width="1.23" stroke-miterlimit="10"/>
<path opacity="0.32" d="M228.628 499.157C228.628 499.157 246.332 517.346 250.48 533.056C251.809 539.033 252.734 545.093 253.25 551.194C232.763 542.1 199.466 564.172 145.948 564.564C129.998 564.773 114.175 561.713 99.4525 555.572C84.7304 549.431 71.4217 540.339 60.347 528.857C61.9024 525.214 63.5211 521.406 65.1398 517.308L228.628 499.157Z" fill="#2B2C34"/>
<path opacity="0.32" d="M132.632 616.02C141.788 633.286 150.159 654.814 155.926 671.675C147.079 674.579 138 676.72 128.787 678.075C143.394 653.473 130.065 611.188 132.632 616.02Z" fill="#2B2C34"/>
<path d="M210.595 567.46L139.777 573.899C139.777 573.899 139.638 620.408 176.046 618.486C228.982 615.64 210.595 567.46 210.595 567.46Z" stroke="#96C5BB" stroke-width="1.23" stroke-miterlimit="10"/>
<path d="M49.9007 558.456L111.626 571.724C111.626 571.724 108.515 621.054 63.0778 608.115C57.6112 606.665 52.7942 603.411 49.4075 598.881C48.8257 592.987 48.3578 586.713 48.1429 580.034C47.8528 572.797 48.443 565.551 49.9007 558.456V558.456Z" stroke="#96C5BB" stroke-width="1.23" stroke-miterlimit="10"/>
<path d="M254.06 384.852L246.75 372.494L238.695 400.106C238.695 400.106 246.813 439.671 237.683 454.268L251.012 467.208L254.06 384.852Z" fill="#6B3E00"/>
<path opacity="0.32" d="M254.06 384.852L246.75 372.494L238.695 400.106C238.695 400.106 246.813 439.671 237.683 454.268L251.012 467.208L254.06 384.852Z" fill="#2B2C34"/>
<path d="M244.373 246.461C253.44 249.206 257.436 258.654 257.436 258.654C257.436 258.654 252.239 350.636 248.584 375.807C244.929 400.978 235.634 413.602 237.645 429.236C239.656 444.87 244.853 453.117 244.853 464.652C244.853 476.188 247.446 483.853 248.584 488.685C249.722 493.517 261.407 529.389 250.443 533.069C250.443 533.069 239.668 512.718 226.719 513.148C213.769 513.578 201.3 546.616 139.664 546.743C78.0268 546.869 57.9828 519.472 57.9828 519.472C57.9828 519.472 73.3984 443.579 73.3984 411.527C73.3984 379.475 51.4827 274.921 53.5946 260.172C53.5946 260.172 111.969 234.774 146.227 234.875C180.485 234.976 244.373 246.461 244.373 246.461Z" fill="#E0E0E0"/>
<path d="M245.813 476.226C246.091 477.946 246.407 479.54 246.724 481.007H65.1393C65.409 479.439 65.6746 477.845 65.936 476.226H245.813Z" fill="#F2ECD2"/>
<path d="M243.879 455.672C244.224 457.255 244.486 458.855 244.663 460.466H68.4528C68.6931 458.872 68.9334 457.266 69.161 455.672H243.879Z" fill="#D54E4E"/>
<path d="M238.656 435.13C238.985 436.8 239.339 438.393 239.706 439.911H71.2731C71.4628 438.292 71.6524 436.698 71.8295 435.13H238.656Z" fill="#D54E4E"/>
<path d="M250.834 496.768C251.226 498.248 251.63 499.867 252.098 501.562H61.4339L62.3065 496.768H250.834Z" fill="#F2ECD2"/>
<path d="M238.694 414.576C238.327 416.195 238.024 417.776 237.796 419.37H73.1952C73.2837 417.7 73.3597 416.094 73.3976 414.576H238.694Z" fill="#D54E4E"/>
<path d="M212.011 522.104H60.385C59.534 521.285 58.7437 520.406 58.0202 519.473L58.4502 517.322H217.942C216.134 518.688 214.186 520.32 212.011 522.104Z" fill="#F2ECD2"/>
<path d="M244.701 394.034C244.229 395.72 243.761 397.314 243.297 398.815H72.7278C72.5887 397.284 72.4243 395.691 72.2473 394.034H244.701Z" fill="#D54E4E"/>
<path d="M248.937 373.479C248.836 374.302 248.722 375.086 248.621 375.807C248.52 376.528 248.381 377.464 248.241 378.273H70.2865C70.0715 376.692 69.8439 375.099 69.6162 373.479H248.937Z" fill="#D54E4E"/>
<path d="M254.109 311.841C254.008 313.422 253.894 315.029 253.78 316.623H60.6625C60.4096 315.016 60.144 313.422 59.8911 311.841H254.109Z" fill="#D54E4E"/>
<path d="M256.727 270.745C256.639 272.225 256.537 273.831 256.436 275.526H54.5044C54.302 273.831 54.125 272.225 53.9858 270.745H256.727Z" fill="#D54E4E"/>
<path d="M255.462 291.287C255.361 292.856 255.26 294.449 255.146 296.081H57.4003C57.1473 294.449 56.907 292.856 56.6667 291.287H255.462Z" fill="#D54E4E"/>
<path d="M251.012 352.938C250.873 354.569 250.733 356.176 250.594 357.719H67.227C66.9867 356.138 66.7337 354.544 66.4808 352.938H251.012Z" fill="#D54E4E"/>
<path d="M252.655 332.383C252.529 333.99 252.415 335.596 252.289 337.177H63.9639C63.6983 335.571 63.4454 333.977 63.1799 332.383H252.655Z" fill="#D44E4E"/>
<path opacity="0.32" d="M213.011 262.778C213.011 262.778 197.254 369.243 210.595 403.875C219.599 427.276 235.508 451.523 244.891 464.817C244.891 476.201 247.496 483.79 248.622 488.685C249.191 491.114 252.416 501.182 254.06 511.137C246.143 508.999 222.318 504.079 207.332 517.322C189.147 533.386 108.023 536.295 60.3856 522.103C59.5346 521.285 58.7443 520.406 58.0208 519.472C58.0208 519.472 71.552 452.598 73.2719 417.89C95.6933 366.954 125.298 316.624 125.298 316.624L213.011 262.778Z" fill="#2B2C34"/>
<path d="M197.138 403.875C199.124 420.154 225.832 474.468 239.085 472.596C252.338 470.724 251.124 384.851 251.124 384.851L254.071 390.543C254.071 390.543 259.344 474.215 251.124 491.075C242.904 507.936 228.766 503.8 215.715 505.874C202.665 507.949 192.535 518.194 185.365 519.472C178.195 520.749 197.138 403.875 197.138 403.875Z" fill="#6B3E00"/>
<path d="M221.395 234.559C230.917 235.925 243.74 236.14 244.373 246.461L235.305 244.564C235.305 244.564 219.599 246.461 210.595 267.762C201.591 289.062 200.111 298.119 200.111 298.119L176.716 291.997C176.716 291.997 185.986 243.451 191.474 236.949C196.963 230.448 215.919 233.762 221.395 234.559Z" fill="#6B3E00"/>
<path d="M51.1028 314.98C49.8382 345.754 46.2467 411.958 41.9217 435.143C37.5968 458.328 27.4041 521.154 55.5541 521.154H172.492C190.626 521.154 208.356 508.923 207.294 482.791C206.232 456.658 194.003 404.786 195.685 370.217C197.367 335.648 203.361 286.608 203.361 286.608L51.1028 314.98Z" fill="#001963"/>
<path d="M104.216 323.732C104.216 323.732 99.6763 349.978 97.3115 362.462" stroke="#FFFFFE" stroke-width="1.23" stroke-miterlimit="10"/>
<path d="M90.0401 322.783C90.0401 322.783 93.9856 356.619 94.3018 361.678" stroke="#FFFFFE" stroke-width="1.23" stroke-miterlimit="10"/>
<path d="M199.656 424.087C202.817 446.653 206.712 468.535 207.244 482.79C208.306 508.923 190.576 521.154 172.442 521.154H55.5039C27.3538 521.154 37.5592 458.315 41.8715 435.142C42.3141 432.764 42.7567 429.918 43.1361 426.731C43.1361 426.731 137.855 435.648 199.656 424.087Z" fill="#F03E51"/>
<path opacity="0.32" d="M53.683 323.187L50.7871 322.175C50.9009 319.646 51.0021 317.192 51.1033 314.978L203.349 286.658C203.349 286.658 197.367 335.684 195.685 370.266C194.003 404.848 206.219 456.695 207.294 482.84C208.369 508.985 190.627 521.204 172.492 521.204H87.5111C139.942 519.092 163.223 516.144 165.297 499.701C167.371 483.258 154.371 416.599 155.382 391.301C156.394 366.003 155.382 333.964 155.382 333.964C74.1822 340.693 53.683 323.187 53.683 323.187Z" fill="#2B2C34"/>
<path d="M93.5174 357.251H98.0447C99.5394 357.251 100.751 358.463 100.751 359.958V372.733C100.751 374.228 99.5394 375.44 98.0447 375.44H93.5174C92.0227 375.44 90.8111 374.228 90.8111 372.733V359.958C90.8111 358.463 92.0227 357.251 93.5174 357.251Z" fill="#F03E51"/>
<path d="M97.3115 372.316C97.3115 372.316 101.472 398.043 99.1578 414.689" stroke="#FFFFFE" stroke-width="1.23" stroke-miterlimit="10"/>
<path d="M93.2769 372.494C93.2769 372.494 91.8985 398.5 86.1066 414.298" stroke="#FFFFFE" stroke-width="1.23" stroke-miterlimit="10"/>
<path d="M163.424 300.218C179.662 309.186 180.99 321.936 179.687 357.251C178.385 392.566 180.193 406.682 181.559 426.819C182.925 446.956 188.754 491.088 188.754 491.088" stroke="#892F3B" stroke-width="1.23" stroke-miterlimit="10"/>
<path d="M62.4591 418.495C63.0953 418.524 63.731 418.427 64.3297 418.21C64.9284 417.993 65.4784 417.66 65.9483 417.23C66.4181 416.8 66.7986 416.281 67.0678 415.704C67.3371 415.127 67.4899 414.502 67.5175 413.866L70.9193 336.873C70.9482 336.236 70.8513 335.601 70.6342 335.002C70.4171 334.403 70.0841 333.853 69.6542 333.383C69.2243 332.913 68.706 332.532 68.1288 332.263C67.5517 331.994 66.9272 331.841 66.2909 331.813C65.6543 331.783 65.0179 331.878 64.4184 332.095C63.819 332.311 63.2684 332.644 62.7982 333.075C62.328 333.505 61.9475 334.024 61.6788 334.602C61.4101 335.18 61.2584 335.806 61.2324 336.443L57.8306 413.423C57.8001 414.06 57.8957 414.697 58.112 415.298C58.3283 415.898 58.661 416.45 59.0911 416.921C59.5212 417.392 60.0401 417.774 60.6181 418.044C61.1961 418.314 61.8217 418.468 62.4591 418.495Z" fill="#004AA1"/>
<path d="M66.0635 336.064L62.472 414.297" stroke="#006EED" stroke-width="1.23" stroke-miterlimit="10"/>
<path d="M68.5923 340.808H63.1166C63.1166 340.808 62.1681 352.192 44.9822 360.729L53.3159 363.36C53.3159 363.36 67.6438 354.607 68.5923 340.808Z" fill="#C42F3F"/>
<path d="M64.3813 246.891C64.3813 246.891 53.4299 250.369 50.7869 257.642C48.1439 264.915 54.1507 293.691 54.1507 293.691L62.4844 289.896L64.3813 246.891Z" fill="#6B3E00"/>
<path d="M157.001 428.957C157.001 428.957 156.407 426.541 155.939 407.454C155.471 388.367 157.747 319.419 153.536 314.258" stroke="#892F3B" stroke-width="1.23" stroke-miterlimit="10"/>
<path d="M203.361 286.658C203.361 286.658 196.936 282.99 172.492 282.99C148.047 282.99 59.5247 282.737 52.3544 286.658C45.1841 290.579 38.8611 309.426 43.5021 317.28C48.1432 325.135 68.5539 325.844 87.6367 325.844C106.72 325.844 118.771 327.678 136.349 323.883C153.927 320.088 183.317 299.003 193.648 296.473C203.98 293.943 203.361 286.658 203.361 286.658Z" fill="#F03E51"/>
<path d="M157.001 428.956L165.41 491.074C167.017 503.445 165.41 523.62 93.3281 520.913" stroke="#892F3B" stroke-width="1.23" stroke-miterlimit="10"/>
<path d="M225.416 513.3C224.987 513.395 224.564 513.517 224.151 513.666C232.321 509.707 250.227 512.477 255.185 522.268C255.185 527.706 253.92 531.931 250.531 533.07C250.531 533.07 239.756 512.718 226.807 513.148C226.382 513.164 225.959 513.214 225.542 513.3H225.416Z" fill="#9E693D"/>
<path d="M340.026 302.797L350.232 290.452L370.136 250.229C370.899 248.947 371.994 247.894 373.305 247.182C374.616 246.469 376.094 246.124 377.585 246.181L403.497 247.775L410.642 243.98L414.183 249.71L414.334 249.951L414.435 250.128C414.626 250.588 414.71 251.086 414.679 251.584C414.648 252.081 414.504 252.565 414.258 252.999L387.234 307.604C386.479 308.891 385.392 309.952 384.085 310.673C382.779 311.394 381.302 311.75 379.811 311.702L346.197 309.64C345.539 309.66 344.888 309.496 344.318 309.165C343.748 308.834 343.282 308.35 342.973 307.768L340.026 302.797Z" fill="#001963"/>
<path d="M346.311 287.138C346.311 287.138 344.136 274.717 346.311 273.136C348.486 271.555 350.105 282.622 350.105 282.622L351.37 280.093C351.37 280.093 348.372 266.356 350.585 263.649C352.799 260.942 354.379 275.526 354.379 275.526L356.592 270.745C356.592 270.745 355.163 251.633 357.857 248.939C360.551 246.244 360.854 262.22 360.854 262.22L362.283 258.59C362.283 258.59 363.548 240.084 365.912 238.503C368.277 236.922 367.177 254.34 367.177 254.34C367.177 254.34 363.421 285.026 346.311 287.138Z" fill="#E68CA3"/>
<path d="M343.15 304.429L376.763 306.491C378.256 306.54 379.735 306.184 381.042 305.46C382.349 304.737 383.435 303.672 384.186 302.38L411.211 247.788C412.475 245.347 411.059 243.222 408.176 243.045L374.55 240.983C373.058 240.937 371.582 241.293 370.276 242.014C368.97 242.735 367.882 243.794 367.126 245.081L340.102 299.673C338.901 302.127 340.254 304.252 343.15 304.429Z" fill="#856DF9"/>
<path d="M348.676 301.192L374.676 302.786C375.971 302.826 377.252 302.516 378.385 301.888C379.518 301.26 380.46 300.338 381.113 299.219L405.28 250.395C406.329 248.283 405.153 246.436 402.649 246.284L376.636 244.69C375.343 244.651 374.063 244.96 372.931 245.585C371.798 246.21 370.855 247.129 370.2 248.245L345.97 297.069C344.983 299.194 346.172 301.028 348.676 301.192Z" fill="#CBE6D5"/>
<path d="M383.301 294.792L366.444 255.834L370.238 248.245C370.893 247.129 371.837 246.21 372.969 245.585C374.102 244.96 375.382 244.651 376.675 244.69L377.775 244.754L391.926 277.463L383.301 294.792Z" fill="#F2ECD2"/>
<path d="M365.104 258.554L381.961 297.512L381.114 299.22C380.591 300.123 379.876 300.901 379.019 301.498C378.163 302.095 377.185 302.496 376.156 302.673L360.817 267.256L365.104 258.554Z" fill="#F2ECD2"/>
<path d="M239.744 252.153C221.812 251.761 210.569 295.159 215.792 333.105C221.015 371.051 235.773 367.94 244.41 366.333C244.41 366.333 268.678 456.443 289.316 465.335C309.954 474.227 334.715 430.501 342.784 406.468C350.852 382.435 379.09 323.732 379.09 323.732C379.09 323.732 397.604 310.299 404.8 296.854C407.177 292.427 409.023 277.223 407.329 273.694C405.634 270.165 403.067 262.386 403.067 262.386C403.067 262.386 399.59 262.854 400.222 266.016C400.854 269.178 401.803 272.555 401.486 275.528C401.17 278.5 395.631 287.835 395.631 287.835C389.365 289.601 383.472 292.494 378.243 296.373C369.871 302.697 365.129 301.774 362.916 310.692H359.881C359.881 310.692 316.733 377.49 305.667 388.393C305.667 388.393 286.534 334.168 280.211 306.657C273.888 279.145 263.67 252.684 239.744 252.153Z" fill="#E68CA3"/>
<path d="M222.836 357.707C219.877 352.572 217.36 344.793 215.754 333.105C210.531 295.159 221.773 251.761 239.706 252.153C244.111 252.22 248.44 253.311 252.352 255.341C244.637 252.659 202.982 264.65 222.836 357.707Z" fill="#B5546D"/>
<path d="M339.002 342.312C339.002 342.312 326.571 378.21 316.037 391.073C312.079 395.893 314.975 410.464 313.078 409.199C311.181 407.934 305.655 388.379 305.655 388.379C311.51 382.611 326.331 361.197 339.002 342.312Z" fill="#B5546D"/>
<path d="M229.248 364.853C228.628 355.771 227.844 343.186 227.73 335.85C227.528 323.416 230.045 318.356 231.309 323.732C232.574 329.108 241.211 355.67 244.373 366.333C240.174 367.117 234.534 368.243 229.248 364.853Z" fill="#B5546D"/>
<path d="M232.991 139.059C228.046 139.059 224.038 132.156 224.038 123.64C224.038 115.124 228.046 108.221 232.991 108.221C237.936 108.221 241.944 115.124 241.944 123.64C241.944 132.156 237.936 139.059 232.991 139.059Z" fill="#001963"/>
<path d="M231.359 95.1055C231.359 95.1055 233.42 109.323 233.42 117.241C233.42 121.352 239.098 118.341 239.098 118.341C238.45 119.25 237.6 119.994 236.614 120.517C235.629 121.04 234.535 121.325 233.42 121.352C233.401 125.586 233.718 129.816 234.368 134C235.317 138.276 241.147 146.181 239.098 147.914C237.049 149.647 235.089 148.799 234.04 150.343C233.205 151.608 233.837 157.603 233.091 159.083C232.345 160.563 231.51 160.563 231.359 161.511C231.207 162.46 232.256 163.611 231.359 165.939C230.231 168.81 229.503 171.824 229.196 174.894C228.88 178.372 227.83 184.38 225.301 186.177C222.772 187.973 215.93 187.985 214.185 188.618C212.44 189.25 213.92 204.087 214.185 216.217L158.378 204.302L168.495 105.642L231.359 95.1055Z" fill="#E68CA3"/>
<path d="M158.379 204.302L160.972 179.004L164.487 165.015H204.171C204.171 165.015 213.175 184.456 221.395 187.542C218.549 188.073 215.312 188.238 214.186 188.643C212.429 189.275 213.921 204.112 214.186 216.242L158.379 204.302Z" fill="#B5546D"/>
<path d="M164.284 47.4574C174.819 45.7498 171.657 43.6627 193.573 43.0303C215.488 42.3979 235.102 54.098 238.681 70.6426C242.26 87.1872 221.191 113.863 221.394 133.886C221.596 153.909 210.404 143.854 206.573 151.177C204.043 156.136 197.379 164.673 204.043 182.382C210.708 200.09 219.219 214.636 221.457 234.558C221.457 234.558 201.223 230.763 197.113 236.455C193.003 242.147 193.952 293.375 179.725 309.186C165.498 324.997 149.628 331.397 125.158 336.646C100.687 341.895 96.5775 339.176 96.5775 339.176L104.431 334.458C104.431 334.458 92.6572 333.535 88.2311 336.697C88.2311 336.697 81.2758 327.046 78.1143 319.381L79.6951 328.791C79.6951 328.791 70.2105 326.261 61.9906 299.699C53.7707 273.137 59.1452 243.007 68.6298 226.134C78.1143 209.26 93.6689 182.066 96.8431 155.503C100.017 128.941 91.7847 62.1299 145.328 50.7081C152.157 49.2535 164.284 47.4574 164.284 47.4574Z" fill="#455A64"/>
<path d="M68.6934 226.134C78.1779 209.261 93.6693 182.066 96.8308 155.503C97.5011 149.849 97.6655 142.361 98.0069 134C104.57 162.346 81.3395 222.542 81.3395 222.542C90.824 211.474 111.374 150.444 111.374 150.444C109.793 164.041 88.9271 215.585 85.4494 233.61C81.9718 251.634 87.9786 266.496 96.8308 284.521C105.683 302.545 104.216 309.186 104.216 309.186L114.75 294.324L109.49 310.691C122.136 295.449 144.266 300.648 157.544 278.93C170.823 257.212 179.359 209.261 179.359 209.261C179.675 229.499 170.823 278.93 170.823 278.93C192.321 243.627 193.27 174.793 193.27 174.793C193.27 174.793 195.166 211.158 200.857 213.688C206.548 216.217 215.805 211.398 211.214 199.837C215.805 210.703 220.003 221.467 221.458 234.558C221.458 234.558 201.224 230.764 197.114 236.456C193.004 242.147 193.952 293.375 179.726 309.186C165.499 324.997 149.628 331.397 125.158 336.646C100.688 341.896 96.5779 339.176 96.5779 339.176L104.431 334.458C104.431 334.458 92.6577 333.535 88.2316 336.697C88.2316 336.697 81.2762 327.046 78.1147 319.381L79.6955 328.792C79.6955 328.792 70.211 326.262 61.991 299.699C53.7711 273.137 59.2089 243.008 68.6934 226.134Z" fill="#263238"/>
<path d="M151.348 146.965C156.584 162.776 156.862 199.458 151.348 220.961C145.835 242.464 130.242 258.237 127.182 270.746C127.498 255.745 137.109 240.718 143.305 220.961C151.348 195.347 151.348 169.417 151.348 146.965Z" fill="#263238"/>
<path d="M207.116 150.342L203.98 115.343C203.98 115.343 204.714 91.4872 201.603 80.4069C201.603 80.4069 211.441 94.915 211.909 101.644C211.909 101.644 222.304 82.8607 214.186 66.7842C214.186 66.7842 223.607 78.0289 220.61 98.5831C220.61 98.5831 243.777 79.4582 233.471 59.6123C235.998 62.8604 237.777 66.6266 238.681 70.642C242.26 87.1993 221.191 113.863 221.394 133.886C221.596 153.061 211.34 144.663 207.116 150.342Z" fill="#263238"/>
<path d="M241.146 124.348L212.693 127.042" stroke="#001963" stroke-width="1.23" stroke-miterlimit="10"/>
<path d="M197.797 121.669C197.797 121.669 188.059 54.6302 145.316 50.7091C145.416 49.9945 145.676 49.3116 146.076 48.7115C146.477 48.1114 147.008 47.6096 147.63 47.2434C149.944 45.5611 162.906 41.9815 175.944 46.0923C185.201 49.0015 207.686 70.125 206.535 119.278L197.797 121.669Z" fill="#E45858"/>
<path d="M200.794 119.138H208.015V122.933C211.72 127.183 214.186 134.595 214.186 143.057C214.186 151.519 211.657 158.931 208.015 163.194V166.988H200.794C193.409 166.988 187.414 156.275 187.414 143.057C187.414 129.839 193.409 119.138 200.794 119.138Z" fill="#BD4B4B"/>
<path d="M208.015 166.989C200.626 166.989 194.635 156.274 194.635 143.057C194.635 129.84 200.626 119.126 208.015 119.126C215.404 119.126 221.395 129.84 221.395 143.057C221.395 156.274 215.404 166.989 208.015 166.989Z" fill="#E45858"/>
<path d="M702.538 489.317H520.093C511.484 489.317 503.227 492.738 497.139 498.827C491.051 504.916 487.631 513.175 487.631 521.786V645.529H735V521.786C735 513.175 731.58 504.916 725.492 498.827C719.404 492.738 711.147 489.317 702.538 489.317Z" fill="#464DEA"/>
<path d="M688.134 491.088H534.75C526.145 491.095 517.895 494.519 511.812 500.607C505.73 506.696 502.313 514.951 502.313 523.558V647.301H720.609V523.558C720.609 519.293 719.769 515.07 718.137 511.129C716.504 507.189 714.112 503.609 711.096 500.594C708.081 497.579 704.501 495.187 700.561 493.556C696.621 491.925 692.398 491.087 688.134 491.088V491.088Z" stroke="#001963" stroke-miterlimit="10"/>
<path d="M686.262 491.088H532.891C524.281 491.088 516.024 494.509 509.936 500.598C503.849 506.688 500.428 514.946 500.428 523.558V647.301H718.737V523.558C718.737 519.293 717.897 515.07 716.265 511.129C714.632 507.189 712.24 503.609 709.224 500.594C706.209 497.579 702.628 495.187 698.689 493.556C694.749 491.925 690.526 491.087 686.262 491.088V491.088Z" stroke="#D1D1E9" stroke-miterlimit="10"/>
<path d="M668.153 489.317H514.782C506.173 489.317 497.916 492.738 491.828 498.827C485.74 504.916 482.32 513.175 482.32 521.786V645.529H700.628V521.786C700.628 517.521 699.788 513.298 698.156 509.358C696.524 505.418 694.132 501.838 691.116 498.822C688.1 495.807 684.52 493.416 680.58 491.785C676.64 490.154 672.417 489.315 668.153 489.317Z" fill="#2239AF"/>
<path d="M663.739 515.032C666.641 515.032 669.425 516.185 671.478 518.236C673.532 520.288 674.687 523.07 674.69 525.973V613.161H673.666V529.616C673.478 527.744 672.602 526.009 671.207 524.746C669.812 523.484 667.998 522.785 666.116 522.785C664.235 522.785 662.421 523.484 661.026 524.746C659.631 526.009 658.755 527.744 658.567 529.616V613.161H652.787V525.973C652.791 523.07 653.946 520.288 656 518.236C658.053 516.185 660.837 515.032 663.739 515.032Z" fill="#464DEA"/>
<path d="M627.61 515.032C630.512 515.032 633.296 516.185 635.349 518.236C637.403 520.288 638.558 523.071 638.562 525.974V613.162H637.537V529.616C637.349 527.744 636.473 526.009 635.078 524.746C633.683 523.484 631.869 522.785 629.988 522.785C628.106 522.785 626.292 523.484 624.897 524.746C623.502 526.009 622.626 527.744 622.438 529.616V613.162H616.595V525.974C616.597 524.531 616.884 523.103 617.439 521.771C617.994 520.439 618.806 519.23 619.83 518.214C620.853 517.197 622.067 516.393 623.403 515.847C624.738 515.301 626.168 515.024 627.61 515.032Z" fill="#464DEA"/>
<path d="M591.468 515.032C592.906 515.031 594.329 515.312 595.658 515.861C596.987 516.411 598.194 517.216 599.211 518.232C600.228 519.249 601.035 520.455 601.586 521.784C602.136 523.112 602.419 524.536 602.419 525.973V613.161H601.408V529.616C601.22 527.744 600.343 526.009 598.948 524.746C597.553 523.484 595.739 522.785 593.858 522.785C591.977 522.785 590.163 523.484 588.768 524.746C587.373 526.009 586.496 527.744 586.308 529.616V613.161H580.517V525.973C580.52 523.071 581.675 520.288 583.729 518.236C585.782 516.185 588.566 515.032 591.468 515.032Z" fill="#464DEA"/>
<path d="M555.338 515.032C558.24 515.032 561.024 516.185 563.077 518.236C565.13 520.288 566.286 523.07 566.289 525.973V613.161H565.265V529.616C565.077 527.744 564.2 526.009 562.805 524.746C561.41 523.484 559.596 522.785 557.715 522.785C555.834 522.785 554.02 523.484 552.625 524.746C551.23 526.009 550.353 527.744 550.165 529.616V613.161H544.386V525.973C544.389 523.07 545.545 520.288 547.598 518.236C549.652 516.185 552.435 515.032 555.338 515.032Z" fill="#464DEA"/>
<path d="M519.221 515.032C520.659 515.031 522.083 515.312 523.411 515.861C524.74 516.411 525.947 517.216 526.964 518.232C527.982 519.249 528.788 520.455 529.339 521.784C529.889 523.112 530.173 524.536 530.173 525.973V613.161H529.161V529.616C528.973 527.744 528.097 526.009 526.702 524.746C525.307 523.484 523.493 522.785 521.611 522.785C519.73 522.785 517.916 523.484 516.521 524.746C515.126 526.009 514.25 527.744 514.062 529.616V613.161H508.27V525.973C508.273 523.071 509.429 520.288 511.482 518.236C513.535 516.185 516.319 515.032 519.221 515.032Z" fill="#464DEA"/>
<path d="M625.144 400.245H636.879V613.161H625.144V400.245Z" fill="#001963"/>
<path d="M632.984 402.041H636.879V613.161H632.984V402.041Z" fill="#464DEA"/>
<path d="M524.179 400.245H535.914V613.161H524.179V400.245Z" fill="#001963"/>
<path d="M532.019 402.041H535.914V613.161H532.019V402.041Z" fill="#464DEA"/>
<path d="M700.628 613.161H482.307C482.307 613.161 579.922 622.117 700.628 613.161Z" fill="#001963"/>
<path d="M521.94 400.245H539.645V392.276C539.648 391.512 539.953 390.78 540.493 390.24C541.033 389.7 541.765 389.395 542.528 389.392H618.796C619.556 389.402 620.281 389.71 620.815 390.249C621.35 390.788 621.651 391.516 621.654 392.276V400.245H639.359V392.276C639.352 386.816 637.181 381.583 633.321 377.722C629.462 373.862 624.229 371.69 618.771 371.684H542.503C537.045 371.69 531.812 373.862 527.953 377.722C524.093 381.583 521.922 386.816 521.915 392.276L521.94 400.245Z" fill="#464DEA"/>
</g>
<defs>
<clipPath id="clip0_35_635">
<rect width="735" height="643" fill="white" transform="matrix(-1 0 0 1 735 0)"/>
</clipPath>
</defs>
</svg>
