<svg width="33" height="24" viewBox="0 0 33 24" fill="none" xmlns="http://www.w3.org/2000/svg">
<path d="M6.848 14H7.752V11.4C7.752 10.168 6.968 9.52 5.936 9.52C5.296 9.52 4.672 9.856 4.4 10.392C4.096 9.816 3.512 9.52 2.816 9.52C2.288 9.52 1.808 9.736 1.512 10.096V9.592H0.6V14H1.512V11.536C1.512 10.728 1.952 10.312 2.624 10.312C3.288 10.312 3.728 10.728 3.728 11.536V14H4.632V11.536C4.632 10.728 5.072 10.312 5.744 10.312C6.408 10.312 6.848 10.728 6.848 11.536V14ZM13.6885 10.288C14.3685 10.288 14.9045 10.72 14.9205 11.4H12.4805C12.5765 10.704 13.0725 10.288 13.6885 10.288ZM15.7525 12.688H14.7685C14.6005 13.032 14.2885 13.304 13.7285 13.304C13.0565 13.304 12.5365 12.864 12.4725 12.136H15.8405C15.8645 11.984 15.8725 11.84 15.8725 11.688C15.8725 10.392 14.9845 9.52 13.7285 9.52C12.4245 9.52 11.5285 10.408 11.5285 11.792C11.5285 13.176 12.4645 14.072 13.7285 14.072C14.8085 14.072 15.5045 13.456 15.7525 12.688ZM22.818 14H23.722V11.4C23.722 10.168 22.946 9.52 21.914 9.52C21.386 9.52 20.898 9.736 20.602 10.096V9.592H19.69V14H20.602V11.536C20.602 10.728 21.042 10.312 21.714 10.312C22.378 10.312 22.818 10.728 22.818 11.536V14ZM31.7973 9.592H30.8853V12.048C30.8853 12.856 30.4453 13.272 29.7733 13.272C29.1093 13.272 28.6693 12.856 28.6693 12.048V9.592H27.7653V12.184C27.7653 13.416 28.5493 14.064 29.5813 14.064C30.1013 14.064 30.5973 13.848 30.8853 13.472V14H31.7973V9.592Z" fill="#2B2C34"/>
<path fill-rule="evenodd" clip-rule="evenodd" d="M0.5 2C0.5 1.17157 1.17157 0.5 2 0.5L31 0.500003C31.8284 0.500004 32.5 1.17158 32.5 2C32.5 2.82843 31.8284 3.5 31 3.5L2 3.5C1.17157 3.5 0.5 2.82843 0.5 2Z" fill="#2B2C34"/>
<path fill-rule="evenodd" clip-rule="evenodd" d="M0.5 22C0.5 21.1716 1.17157 20.5 2 20.5L31 20.5C31.8284 20.5 32.5 21.1716 32.5 22C32.5 22.8284 31.8284 23.5 31 23.5L2 23.5C1.17157 23.5 0.5 22.8284 0.5 22Z" fill="#2B2C34"/>
</svg>
