<svg width="610" height="610" viewBox="0 0 610 610" fill="none" xmlns="http://www.w3.org/2000/svg">
<path d="M515.649 183.16C588.579 302.72 550.779 458.77 431.229 531.72C311.679 604.67 155.609 566.85 82.6692 447.29C9.72915 327.73 111.069 256.15 167.089 98.7405C209.439 -20.2396 442.709 63.6005 515.649 183.16Z" fill="#E5E5F3"/>
<path d="M51.5196 466.29C23.3696 420.15 14.7896 376.37 24.5196 328.51C32.7296 288.1 52.6096 251.18 75.6196 208.43C81.5296 197.43 87.6196 186.15 93.7296 174.32" stroke="#F03E51" stroke-width="4" stroke-miterlimit="10"/>
<path d="M478.21 555.29C521.84 555.29 557.21 519.921 557.21 476.29C557.21 432.66 521.84 397.29 478.21 397.29C434.579 397.29 399.21 432.66 399.21 476.29C399.21 519.921 434.579 555.29 478.21 555.29Z" fill="#001963"/>
<path d="M500.75 453.75L455.67 498.83" stroke="white" stroke-width="14" stroke-linecap="round" stroke-linejoin="round"/>
<path d="M455.67 453.75L500.75 498.83" stroke="white" stroke-width="14" stroke-linecap="round" stroke-linejoin="round"/>
<path d="M299.887 293.54L264.004 335.538L291.359 358.91L327.242 316.911L299.887 293.54Z" fill="#F03E51" stroke="#001963" stroke-width="4" stroke-linecap="round" stroke-linejoin="round"/>
<path d="M373.13 333.21C427.072 333.21 470.8 289.482 470.8 235.54C470.8 181.598 427.072 137.87 373.13 137.87C319.188 137.87 275.46 181.598 275.46 235.54C275.46 289.482 319.188 333.21 373.13 333.21Z" fill="white" stroke="#001963" stroke-width="4" stroke-linecap="round" stroke-linejoin="round"/>
<path d="M373.13 314.34C416.65 314.34 451.93 279.06 451.93 235.54C451.93 192.02 416.65 156.74 373.13 156.74C329.61 156.74 294.33 192.02 294.33 235.54C294.33 279.06 329.61 314.34 373.13 314.34Z" fill="#001963"/>
<path d="M160.958 443.404C151.534 454.434 152.834 471.015 163.863 480.438C174.892 489.86 191.472 488.557 200.897 477.526L290.051 373.176C299.476 362.145 298.176 345.565 287.147 336.142C276.118 326.719 259.538 328.023 250.113 339.053L160.958 443.404Z" fill="white" stroke="#001963" stroke-width="4" stroke-linecap="round" stroke-linejoin="round"/>
<path d="M194.88 462.82L244.82 404.37" stroke="#B84994" stroke-width="4" stroke-linecap="round" stroke-linejoin="round"/>
</svg>
