<svg width="152" height="128" viewBox="0 0 152 128" fill="none" xmlns="http://www.w3.org/2000/svg">
<path d="M90.4516 67.2094C90.4523 68.6452 90.3611 70.0797 90.1784 71.5039C89.9554 73.5899 89.536 75.6502 88.9259 77.6574L88.7916 77.6227C86.596 84.2903 82.3516 90.0947 76.6635 94.2085C70.9754 98.3224 64.1339 100.536 57.1141 100.533H56.864H56.7066C53.148 100.537 49.6118 99.9694 46.2331 98.8522L33.1921 107.453C32.6734 107.799 32.0632 107.981 31.4399 107.977C30.8166 107.974 30.2087 107.784 29.6943 107.432C29.1798 107.08 28.7823 106.582 28.5529 106.002C28.3235 105.423 28.2726 104.788 28.4068 104.179L31.6641 89.1913C27.4368 84.3764 24.6873 78.4448 23.7451 72.1072C22.8029 65.7696 23.7078 59.2947 26.3516 53.4582C28.9953 47.6218 33.2657 42.6713 38.6511 39.2C44.0365 35.7286 50.3086 33.8835 56.7159 33.8857H56.871H57.1256C61.502 33.8854 65.8355 34.7472 69.8787 36.4217C73.922 38.0962 77.5959 40.5508 80.6905 43.6452C83.7851 46.7396 86.2399 50.4133 87.9147 54.4564C89.5896 58.4996 90.4516 62.8331 90.4516 67.2094V67.2094Z" fill="white"/>
<path d="M55.6675 33.8857C54.2947 33.8852 52.9232 33.9687 51.5605 34.1358C59.6261 35.1382 67.0476 39.0525 72.4297 45.1427C77.8117 51.2329 80.7836 59.0795 80.7864 67.2071C80.7865 68.6437 80.6944 70.079 80.5109 71.5039C80.2889 73.5893 79.8695 75.6489 79.2585 77.6551L79.1242 77.6181C77.1476 83.6152 73.5093 88.928 68.6324 92.939C63.7555 96.9499 57.8403 99.4942 51.5744 100.276C59.2349 101.225 66.9872 99.4843 73.5068 95.3517C80.0264 91.2191 84.9087 84.9509 87.3197 77.6181L87.454 77.6551C88.065 75.6489 88.4843 73.5893 88.7064 71.5039C89.3147 66.8056 88.9147 62.0316 87.533 57.5001C86.1512 52.9686 83.8195 48.7836 80.6933 45.224C77.567 41.6644 73.718 38.8121 69.4027 36.857C65.0875 34.9019 60.4051 33.889 55.6675 33.8857V33.8857Z" fill="#C5C6EF"/>
<path d="M30.7026 109.599C29.994 109.596 29.295 109.435 28.6566 109.127C28.0182 108.819 27.4567 108.373 27.0129 107.82C26.5692 107.268 26.2544 106.623 26.0917 105.934C25.929 105.244 25.9224 104.527 26.0724 103.834L29.1584 89.6355C23.8893 83.3503 21.001 75.4107 21 67.2091C21 47.9381 36.6779 32.251 55.9581 32.251H56.3679C75.6388 32.251 91.326 47.9289 91.326 67.2091C91.3262 68.7084 91.231 70.2062 91.0412 71.6934C90.8058 73.8751 90.3663 76.0298 89.7285 78.1294L89.2655 79.6157L89.0664 79.5648C86.5652 86.2123 82.0939 91.9377 76.2505 95.9751C70.4072 100.013 63.4704 102.17 56.3679 102.158H56.1178H55.9604C52.4944 102.162 49.0472 101.649 45.7323 100.637L33.3164 108.809C32.5414 109.323 31.6324 109.598 30.7026 109.599V109.599ZM55.9581 35.5106C38.4628 35.5106 24.2411 49.73 24.2411 67.2091C24.2372 74.9039 27.0353 82.337 32.1125 88.1191L32.6542 88.7349L29.2233 104.524C29.1604 104.815 29.1858 105.119 29.2961 105.396C29.4064 105.673 29.5967 105.911 29.8428 106.08C30.0888 106.249 30.3795 106.34 30.6777 106.343C30.976 106.346 31.2683 106.26 31.5175 106.096L45.2253 97.067L45.973 97.3147C49.1845 98.3764 52.5456 98.9158 55.928 98.9121C56.0646 98.9121 56.1595 98.9121 56.2498 98.9121H56.3355C63.0137 98.9237 69.5244 96.8215 74.9348 92.9065C80.3452 88.9916 84.3778 83.4647 86.455 77.1177L86.918 75.6731L86.9828 75.6893C87.3428 74.2567 87.6027 72.8009 87.7607 71.3323V71.2975C87.9339 69.9424 88.0205 68.5776 88.02 67.2114C88.02 49.7323 73.8006 35.513 56.3216 35.513H56.2313C56.1664 35.5153 56.0669 35.5153 55.9581 35.5106Z" fill="#2B2C34"/>
<path d="M59.6512 52.8134C59.6412 54.2486 59.7232 55.6831 59.8966 57.1079C60.1118 59.1947 60.5234 61.2566 61.1259 63.2661L61.2602 63.2313C63.4286 69.905 67.6476 75.7243 73.3163 79.8604C78.985 83.9964 85.8142 86.2383 92.8313 86.2666H93.0813H93.2387C96.7974 86.2847 100.336 85.7313 103.719 84.6275L116.735 93.2791C117.252 93.6241 117.861 93.8069 118.482 93.8041C119.104 93.8014 119.711 93.6133 120.225 93.2638C120.74 92.9143 121.138 92.4193 121.369 91.8422C121.601 91.2651 121.655 90.6321 121.525 90.024L118.325 75.0222C122.57 70.2252 125.342 64.3065 126.31 57.9747C127.278 51.6428 126.4 45.1662 123.782 39.3204C121.164 33.4745 116.916 28.5072 111.547 25.0132C106.179 21.5191 99.9172 19.6464 93.5119 19.6194H93.3568H93.1022C84.2646 19.5855 75.7755 23.0637 69.5022 29.2887C63.229 35.5137 59.6855 43.9758 59.6512 52.8134V52.8134Z" fill="#464DEA"/>
<path d="M121.763 91.4205C121.892 92.0283 121.838 92.6607 121.606 93.2371C121.374 93.8135 120.976 94.3079 120.462 94.6571C119.948 95.0063 119.342 95.1945 118.72 95.1978C118.099 95.2011 117.491 95.0193 116.973 94.6755L116.596 94.4255C117.021 94.0627 117.339 93.5906 117.516 93.0601C117.692 92.5296 117.72 91.961 117.596 91.4159L114.397 76.414C118.541 71.7286 121.283 65.9712 122.309 59.8003C123.335 53.6295 122.603 47.2946 120.197 41.5203C117.791 35.746 113.808 30.7656 108.704 27.1489C103.6 23.5322 97.5813 21.4252 91.3359 21.0691C91.9957 21.0297 92.6602 21.0135 93.3316 21.0158H93.5839H93.739C100.145 21.0407 106.409 22.9117 111.779 26.4049C117.149 29.8981 121.398 34.8653 124.018 40.7116C126.638 46.5579 127.516 53.0354 126.549 59.3683C125.582 65.7012 122.809 71.621 118.564 76.4186L121.763 91.4205Z" fill="#3E43C6"/>
<path d="M94.5615 19.6193C95.9323 19.6253 97.3016 19.7149 98.6615 19.8879C94.301 20.4142 90.0875 21.7967 86.2627 23.956C82.438 26.1153 79.0775 29.0088 76.3742 32.4704C73.6709 35.9321 71.6779 39.8936 70.5098 44.1275C69.3418 48.3615 69.0215 52.7845 69.5676 57.1426C69.7809 59.2295 70.1918 61.2914 70.7946 63.3008L70.9289 63.266C72.8812 69.2699 76.4973 74.5964 81.3569 78.6265C86.2165 82.6566 92.12 85.2249 98.3814 86.0328C90.7179 86.9508 82.9735 85.1796 76.4709 81.0217C69.9683 76.8639 65.111 70.5773 62.7288 63.2359L62.5945 63.2707C61.9917 61.2614 61.5808 59.1994 61.3675 57.1125C60.7768 52.4108 61.1952 47.6372 62.5948 43.11C63.9944 38.5828 66.343 34.406 69.4842 30.858C72.6253 27.3101 76.4867 24.4725 80.8109 22.5346C85.1352 20.5966 89.8229 19.6028 94.5615 19.6193V19.6193Z" fill="#3E43C6"/>
<path d="M60.6019 54.8296H40.9883V58.0777H60.6019V54.8296Z" fill="#E45858"/>
<path d="M67.444 72.0654H47.8281V75.3135H67.444V72.0654Z" fill="#E45858"/>
<path d="M62.0876 63.1504H30.5859V66.3985H62.0876V63.1504Z" fill="#E45858"/>
<path d="M97.8948 42.7925H78.2812V46.0406H97.8948V42.7925Z" fill="#2B2C34"/>
<path d="M97.8971 60.0278H78.2812V63.2759H97.8971V60.0278Z" fill="#2B2C34"/>
<path d="M109.783 51.1128H78.2812V54.3609H109.783V51.1128Z" fill="#2B2C34"/>
<path d="M119.246 95.4356C118.308 95.4338 117.391 95.1534 116.612 94.63L104.244 86.409C100.925 87.4088 97.4756 87.9082 94.0092 87.8907H93.8703H93.7638C93.7106 87.8907 93.6596 87.8907 93.6018 87.8907C86.4995 87.8751 79.5713 85.6913 73.7437 81.6315C67.9161 77.5717 63.4669 71.8294 60.9912 65.1726L60.7921 65.2235L60.3545 63.7372C59.725 61.6353 59.2941 59.479 59.0673 57.2966C58.8836 55.8082 58.7947 54.3096 58.8011 52.8099V52.8099C58.8682 33.5876 74.5323 18 93.7361 18H94.287C113.556 18.0764 129.171 33.8168 129.095 53.0854C129.065 61.2855 126.149 69.2134 120.86 75.4794L123.89 89.6919C124.037 90.3843 124.028 91.1008 123.863 91.7892C123.698 92.4775 123.382 93.1204 122.937 93.6709C122.492 94.2215 121.93 94.6658 121.291 94.9715C120.653 95.2772 119.954 95.4365 119.246 95.438V95.4356ZM104.742 82.8438L118.413 91.9306C118.661 92.0954 118.953 92.1826 119.251 92.1811C119.549 92.1796 119.84 92.0895 120.087 91.9222C120.333 91.7549 120.525 91.518 120.636 91.2416C120.748 90.9653 120.775 90.6619 120.714 90.3702L117.343 74.565L117.887 73.9515C122.989 68.1905 125.818 60.769 125.847 53.0738C125.916 35.5948 111.75 21.3175 94.2732 21.2411H93.7384C85.3514 21.2411 77.3063 24.5648 71.365 30.4844C65.4237 36.404 62.0706 44.4369 62.0399 52.8238C62.0347 54.1905 62.1167 55.5561 62.2853 56.9123V56.947C62.4386 58.4113 62.6931 59.8633 63.047 61.2925L63.1118 61.2763L63.5749 62.7255C65.6271 69.0807 69.638 74.6233 75.033 78.5595C80.4281 82.4956 86.9304 84.6234 93.6087 84.638H93.6921C93.7453 84.638 93.7986 84.638 93.8541 84.638H93.993C97.3848 84.6567 100.758 84.1306 103.983 83.0799L104.742 82.8438Z" fill="#2B2C34"/>
</svg>
