<svg width="128" height="128" viewBox="0 0 128 128" fill="none" xmlns="http://www.w3.org/2000/svg">
<path d="M116.6 63.8C116.6 92.9606 92.9606 116.6 63.8 116.6C34.6394 116.6 11 92.9606 11 63.8C11 34.6394 34.6394 11 63.8 11C92.9606 11 116.6 34.6394 116.6 63.8Z" stroke="#2B2C34" stroke-width="6"/>
<path d="M118.031 31.8896L38.8652 61.9693L40.8705 87.7768L118.031 31.8896Z" fill="white"/>
<path d="M55.9535 77.5756L40.2598 88.0381L47.0604 69.0312L55.9535 77.5756Z" fill="#6268EF"/>
<path d="M40.8691 88.6482C40.6076 88.6482 40.346 88.561 40.1716 88.2995C39.9101 87.9507 39.9972 87.3404 40.346 87.0788L117.507 31.1916C117.856 30.9301 118.466 31.0173 118.728 31.366C118.989 31.7148 118.902 32.3251 118.553 32.5866L41.3051 88.4738C41.2179 88.6482 41.0435 88.6482 40.8691 88.6482Z" fill="#074370"/>
<path d="M20.3813 45.9268L118.031 31.8896L65.8932 85.1612L20.3813 45.9268Z" fill="#464DEA"/>
<path d="M113.758 33.6338L38.7769 62.9288L40.259 88.5619L47.8444 68.5088L113.758 33.6338Z" fill="#6268EF"/>
<path d="M65.8927 86.0331C65.7184 86.0331 65.4568 85.9459 65.2824 85.8587L46.2755 69.4675C45.9268 69.1187 45.8396 68.5956 46.1884 68.2469C46.5371 67.8981 47.0602 67.8109 47.409 68.1597L65.8055 84.0278L115.502 33.1975L22.3862 46.5372L40.1724 61.8822C40.5212 62.2309 40.6084 62.7541 40.2596 63.1028C39.9109 63.4516 39.3877 63.5387 39.039 63.19L19.8577 46.6244C19.5962 46.3628 19.509 46.0141 19.5962 45.7525C19.6834 45.4037 19.9449 45.1422 20.2937 45.1422L117.856 31.105C118.205 31.0178 118.554 31.2794 118.728 31.5409C118.903 31.8897 118.816 32.2384 118.554 32.5872L66.503 85.7716C66.3287 85.9459 66.1543 86.0331 65.8927 86.0331Z" fill="#074370"/>
<path d="M40.8702 88.6492C40.7831 88.6492 40.6959 88.6492 40.6087 88.6492C40.1727 88.4748 39.9112 88.0388 39.9984 87.5157L46.1015 67.9857C46.1887 67.7241 46.3631 67.5498 46.5374 67.4626L102.076 39.1266L40.6959 63.1032C40.2599 63.2776 39.7368 63.016 39.5624 62.5801C39.3881 62.1441 39.6496 61.621 40.0856 61.4466L117.682 31.1054C118.118 30.931 118.641 31.1054 118.816 31.5413C118.99 31.9773 118.816 32.5004 118.38 32.6748L47.5837 68.8576L41.6549 88.0388C41.5677 88.4748 41.219 88.6492 40.8702 88.6492Z" fill="#074370"/>
<path d="M40.8704 88.6477C40.4344 88.6477 39.9985 88.299 39.9985 87.863L37.9932 61.9683C37.9932 61.4452 38.3419 61.0965 38.7778 61.0093C39.301 61.0093 39.6497 61.358 39.7369 61.794L41.7422 87.6887C41.7422 88.2118 41.3935 88.6477 40.8704 88.6477Z" fill="#074370"/>
<path opacity="0.5" d="M75.0469 42.0908C74.611 42.0908 74.2623 41.742 74.1751 41.3933C74.0879 40.9574 74.4366 40.4342 74.8726 40.4342L86.4685 38.6033C86.9044 38.5161 87.4276 38.8649 87.4276 39.3008C87.5148 39.7367 87.166 40.2599 86.7301 40.2599L75.1341 42.0908C75.1341 42.0908 75.1341 42.0908 75.0469 42.0908Z" fill="#2B2C34"/>
<path opacity="0.5" d="M29.9713 49.24C29.5353 49.24 29.1866 48.8912 29.0994 48.5425C29.0122 48.1065 29.3609 47.5834 29.7969 47.5834L64.4103 42.0906C64.8463 42.0034 65.3694 42.3522 65.3694 42.7881C65.4566 43.224 65.1078 43.7472 64.6719 43.7472L30.0584 49.24C30.1456 49.24 30.0584 49.24 29.9713 49.24Z" fill="#2B2C34"/>
<path opacity="0.5" d="M66.4158 79.4934C66.1543 79.4934 65.9799 79.4062 65.8055 79.2318C65.4568 78.883 65.4568 78.3599 65.8055 78.0112L90.218 54.4705C90.5668 54.1218 91.0899 54.1218 91.4386 54.4705C91.7874 54.8193 91.7874 55.3424 91.4386 55.6912L67.0261 79.2318C66.8518 79.4062 66.5902 79.4934 66.4158 79.4934Z" fill="#2B2C34"/>
<path d="M22.8215 77.0526C20.9034 77.0526 19.334 75.4833 19.334 73.5651C19.334 71.647 20.9034 70.0776 22.8215 70.0776C24.7396 70.0776 26.309 71.647 26.309 73.5651C26.309 75.4833 24.7396 77.0526 22.8215 77.0526ZM22.8215 71.7342C21.7752 71.7342 20.9905 72.6061 20.9905 73.5651C20.9905 74.6114 21.8624 75.3961 22.8215 75.3961C23.8677 75.3961 24.6524 74.5242 24.6524 73.5651C24.6524 72.5189 23.8677 71.7342 22.8215 71.7342Z" fill="#E45858"/>
<path d="M81.2375 100.594C79.3194 100.594 77.75 99.0243 77.75 97.1062C77.75 95.188 79.3194 93.6187 81.2375 93.6187C83.1556 93.6187 84.725 95.188 84.725 97.1062C84.725 99.0243 83.1556 100.594 81.2375 100.594ZM81.2375 95.2752C80.1912 95.2752 79.4066 96.1471 79.4066 97.1062C79.4066 98.1524 80.2784 98.9371 81.2375 98.9371C82.2838 98.9371 83.0684 98.0652 83.0684 97.1062C83.0684 96.0599 82.2838 95.2752 81.2375 95.2752Z" fill="#E45858"/>
<path d="M84.7248 29.9716C82.8067 29.9716 81.2373 28.4022 81.2373 26.4841C81.2373 24.566 82.8067 22.9966 84.7248 22.9966C86.6429 22.9966 88.2123 24.566 88.2123 26.4841C88.2123 28.4022 86.6429 29.9716 84.7248 29.9716ZM84.7248 24.6531C83.6786 24.6531 82.8939 25.525 82.8939 26.4841C82.8939 27.5303 83.7657 28.315 84.7248 28.315C85.7711 28.315 86.5557 27.4431 86.5557 26.4841C86.5557 25.4378 85.7711 24.6531 84.7248 24.6531Z" fill="#E45858"/>
<path d="M60.1388 26.6583C60.1388 26.3095 59.79 25.9608 59.2669 25.8736L57.6104 25.612C57.1744 25.5248 56.6513 25.0889 56.6513 24.6529L56.3897 22.9964C56.3025 22.5604 55.9538 22.1245 55.605 22.1245C55.2563 22.1245 54.9075 22.4733 54.8204 22.9964L54.5588 24.6529C54.4716 25.0889 54.0357 25.612 53.5997 25.612L51.9432 25.8736C51.5072 25.9608 51.0713 26.3095 51.0713 26.6583C51.0713 27.007 51.42 27.3558 51.9432 27.4429L53.5997 27.7045C54.0357 27.7917 54.5588 28.2276 54.5588 28.6636L54.8204 30.3201C54.9075 30.7561 55.2563 31.192 55.605 31.192C55.9538 31.192 56.3025 30.8433 56.3025 30.3201L56.5641 28.4892C56.6513 28.0533 57.0872 27.6173 57.5232 27.5301L59.0925 27.4429C59.7028 27.3558 60.1388 27.007 60.1388 26.6583Z" fill="#E45858"/>
<path d="M102.598 75.1339C102.598 74.7851 102.249 74.4364 101.726 74.3492L100.069 74.0876C99.6334 74.0004 99.1103 73.5645 99.1103 73.1285L98.8487 71.472C98.7615 71.036 98.4128 70.6001 98.064 70.6001C97.7153 70.6001 97.3665 70.9488 97.2793 71.472L97.0178 73.1285C96.9306 73.5645 96.4946 74.0876 96.0587 74.0876L94.4021 74.3492C93.9662 74.4364 93.5303 74.7851 93.5303 75.1339C93.5303 75.4826 93.879 75.8313 94.4021 75.9185L96.0587 76.1801C96.4946 76.2673 97.0178 76.7032 97.0178 77.1392L97.2793 78.7957C97.3665 79.2317 97.7153 79.6676 98.064 79.6676C98.4128 79.6676 98.7615 79.3188 98.7615 78.7957L99.0231 76.9648C99.1103 76.5289 99.5462 76.0929 99.9822 76.0057L101.552 75.9185C102.249 75.7442 102.598 75.4826 102.598 75.1339Z" fill="#E45858"/>
<path d="M42.0029 101.465C42.0029 102.424 43.4851 103.209 44.8801 103.209H56.9992C58.4814 103.209 59.3532 102.424 59.3532 101.465C59.3532 100.506 60.7482 99.7214 61.9689 99.7214C63.1895 99.7214 63.7126 98.9367 63.7126 97.9776C63.7126 97.0186 62.8407 96.2339 61.3586 96.2339H52.4654C50.9832 96.2339 49.8498 97.0186 49.8498 97.9776C49.8498 98.9367 48.9779 99.7214 47.4957 99.7214H44.8801C43.4851 99.7214 42.0029 100.506 42.0029 101.465Z" fill="#E45858"/>
</svg>
