<svg width="128" height="128" viewBox="0 0 128 128" fill="none" xmlns="http://www.w3.org/2000/svg">
<path d="M85.0286 26.884C84.7919 26.8059 84.5729 26.682 84.3841 26.5193C84.1954 26.3566 84.0406 26.1582 83.9285 25.9357C83.8164 25.7131 83.7493 25.4706 83.731 25.222C83.7127 24.9735 83.7436 24.7238 83.8219 24.4872L85.5169 19.3592C85.653 18.9491 85.7067 18.5161 85.675 18.0852C85.6434 17.6542 85.527 17.2338 85.3325 16.8479C85.138 16.462 84.8693 16.1183 84.5417 15.8365C84.2141 15.5547 83.8342 15.3403 83.4236 15.2057L73.5802 11.953C72.7534 11.6831 71.8532 11.7515 71.0767 12.1433C70.3001 12.5352 69.7103 13.2185 69.4362 14.044L67.7434 19.1719C67.5862 19.6498 67.2457 20.0456 66.7966 20.2724C66.3476 20.4991 65.8268 20.5382 65.349 20.381C64.8711 20.2238 64.4753 19.8832 64.2485 19.4342C64.0218 18.9852 63.9827 18.4644 64.1399 17.9866L65.8326 12.8586C66.424 11.0765 67.698 9.6015 69.3752 8.75713C71.0524 7.91276 72.996 7.76786 74.7798 8.35421L84.6089 11.6021C85.4925 11.8934 86.31 12.3559 87.0147 12.9634C87.7193 13.5708 88.2974 14.3111 88.7157 15.1421C89.1341 15.973 89.3845 16.8783 89.4527 17.8061C89.521 18.7339 89.4056 19.6661 89.1134 20.5493L87.4183 25.6773C87.2606 26.1536 86.9206 26.5481 86.4727 26.7742C86.0248 27.0004 85.5055 27.0399 85.0286 26.884Z" fill="#2C2C33"/>
<path d="M95.2369 62.1348C95.5098 62.1348 95.7794 62.1937 96.0275 62.3075C96.2755 62.4213 96.4961 62.5873 96.6741 62.7941C96.8521 63.0009 96.9834 63.2438 97.059 63.506C97.1346 63.7682 97.1527 64.0436 97.1121 64.3135C95.1136 77.5897 96.5953 67.7416 89.6822 113.715C89.4364 115.352 88.6113 116.846 87.357 117.926C86.1026 119.006 84.5025 119.6 82.8474 119.599H51.5535C49.8984 119.6 48.2982 119.006 47.0439 117.926C45.7896 116.846 44.9645 115.352 44.7186 113.715C37.8055 67.7416 39.2872 77.5826 37.2887 64.3135C37.2481 64.0436 37.2662 63.7682 37.3418 63.506C37.4174 63.2438 37.5487 63.0009 37.7267 62.7941C37.9047 62.5873 38.1253 62.4213 38.3733 62.3075C38.6214 62.1937 38.891 62.1348 39.1639 62.1348H95.2369Z" fill="#E45858"/>
<path d="M97.9308 29.1522C98.7928 29.4368 99.5904 29.8884 100.278 30.4812C100.965 31.074 101.529 31.7965 101.937 32.6074C102.346 33.4182 102.59 34.3015 102.657 35.2068C102.723 36.1122 102.611 37.0218 102.326 37.8837L100.889 42.2364C100.811 42.4731 100.688 42.692 100.525 42.8808C100.362 43.0695 100.164 43.2244 99.9412 43.3365C99.7186 43.4485 99.4761 43.5156 99.2275 43.5339C98.979 43.5522 98.7293 43.5213 98.4927 43.4431L44.6601 25.6625C44.4234 25.5844 44.2044 25.4605 44.0157 25.2978C43.8269 25.1351 43.6721 24.9367 43.56 24.7141C43.4479 24.4916 43.3808 24.2491 43.3625 24.0005C43.3442 23.752 43.3751 23.5023 43.4534 23.2657L44.8924 18.913C45.1765 18.0505 45.6277 17.2524 46.2203 16.5643C46.8129 15.8763 47.5353 15.3117 48.3461 14.9029C49.1569 14.494 50.0404 14.249 50.946 14.1816C51.8515 14.1143 52.7615 14.226 53.6239 14.5105C82.4759 24.0456 72.0446 20.5938 97.9308 29.1522Z" fill="#42434D"/>
<path d="M25.4387 31.9498L27.7075 37.0943C27.8523 37.4221 27.9103 37.7817 27.8759 38.1384C27.8414 38.4951 27.7156 38.8369 27.5107 39.1308L25.5738 41.9236C25.3407 42.2591 25.0143 42.5189 24.6351 42.671C24.2559 42.8231 23.8405 42.8608 23.4401 42.7794C19.7347 42.035 19.6351 41.9354 18.9642 42.1512L14.3862 43.621C14.1209 43.7057 13.8412 43.7361 13.5638 43.7104C13.2865 43.6847 13.0171 43.6036 12.7718 43.4717L9.13741 41.5158C8.8038 41.3385 8.5246 41.0739 8.32961 40.7503C8.13462 40.4267 8.03116 40.0563 8.03027 39.6785V37.0185C8.02984 36.5571 7.87685 36.1089 7.59513 35.7435C7.31341 35.3782 6.91877 35.1163 6.47269 34.9986L5.55758 34.7615C5.11111 34.6437 4.71618 34.3815 4.43442 34.0157C4.15266 33.6498 3.99991 33.201 4 32.7393V29.7142C3.9998 29.1864 4.19944 28.6781 4.55878 28.2915C4.91811 27.9049 5.41049 27.6687 5.9369 27.6303L10.759 27.2795C11.2854 27.2411 11.7778 27.0049 12.1371 26.6183C12.4965 26.2317 12.6961 25.7234 12.6959 25.1956C12.6959 24.6416 12.916 24.1104 13.3076 23.7187C13.6993 23.327 14.2306 23.1069 14.7845 23.1069H18.9618C19.2467 23.1067 19.5286 23.1649 19.7901 23.2778C20.0517 23.3907 20.2874 23.5559 20.4826 23.7634C20.6779 23.9709 20.8285 24.2161 20.9254 24.484C21.0222 24.7519 21.0632 25.0369 21.0457 25.3212L20.8655 28.2894C20.8355 28.7933 20.9887 29.291 21.2967 29.6909C21.6047 30.0909 22.0468 30.366 22.5416 30.4657L23.9356 30.7431C24.2646 30.8089 24.5729 30.9529 24.8345 31.1629C25.0961 31.373 25.3033 31.6429 25.4387 31.9498V31.9498Z" fill="#464DEA"/>
<path d="M98.239 29.262C100.408 30.0941 99.1873 33.3729 96.9873 32.645L57.8912 19.7268C56.1505 19.1521 54.2528 19.2922 52.6154 20.1165C50.978 20.9408 49.735 22.3816 49.1598 24.1222L48.8255 25.1321C48.7512 25.3573 48.6333 25.5656 48.4784 25.7452C48.3236 25.9248 48.1348 26.072 47.923 26.1786C47.7112 26.2852 47.4805 26.349 47.244 26.3663C47.0075 26.3836 46.7699 26.3541 46.5448 26.2796L44.6601 25.6561C44.4234 25.578 44.2044 25.4541 44.0157 25.2914C43.8269 25.1287 43.6721 24.9303 43.56 24.7077C43.4479 24.4851 43.3808 24.2426 43.3625 23.9941C43.3442 23.7456 43.3751 23.4959 43.4534 23.2592L44.8924 18.9066C45.4676 17.166 46.7106 15.7251 48.348 14.9008C49.9854 14.0766 51.8832 13.9364 53.6239 14.5112C99.9365 29.8167 97.9213 29.1411 98.239 29.262Z" fill="#4D4E59"/>
<path d="M95.244 62.1348C95.5169 62.1348 95.7866 62.1937 96.0346 62.3075C96.2826 62.4213 96.5032 62.5873 96.6812 62.7941C96.8592 63.0009 96.9905 63.2438 97.0661 63.506C97.1417 63.7682 97.1598 64.0436 97.1193 64.3135L96.0192 71.6178H48.6422C48.3693 71.6178 48.0996 71.6767 47.8516 71.7905C47.6036 71.9043 47.383 72.0703 47.205 72.2771C47.0269 72.4839 46.8957 72.7268 46.8201 72.989C46.7445 73.2512 46.7263 73.5266 46.7669 73.7965C47.3407 77.6015 50.3231 97.3831 52.6013 112.582C53.3624 117.651 45.7783 119.075 44.7779 114.049C44.702 113.677 45.041 115.82 37.2887 64.3135C37.2481 64.0436 37.2662 63.7682 37.3418 63.506C37.4174 63.2438 37.5487 63.0009 37.7267 62.7941C37.9047 62.5873 38.1253 62.4213 38.3733 62.3075C38.6214 62.1937 38.891 62.1348 39.1639 62.1348H95.244Z" fill="#E86F6F"/>
<path d="M95.2409 62.1348C95.5138 62.1348 95.7835 62.1937 96.0315 62.3075C96.2796 62.4213 96.5001 62.5873 96.6781 62.7941C96.8562 63.0009 96.9875 63.2438 97.0631 63.506C97.1387 63.7682 97.1568 64.0436 97.1162 64.3135L95.5728 74.567H38.8242L37.2809 64.3135C37.2403 64.0436 37.2584 63.7682 37.334 63.506C37.4096 63.2438 37.5409 63.0009 37.7189 62.7941C37.8969 62.5873 38.1175 62.4213 38.3655 62.3075C38.6136 62.1937 38.8832 62.1348 39.1561 62.1348H95.2409Z" fill="#42434D"/>
<path d="M88.2354 62.1437C94.3448 62.414 94.0342 71.6267 87.9177 71.6267H48.6439C48.371 71.6268 48.1013 71.6857 47.8533 71.7995C47.6052 71.9133 47.3847 72.0793 47.2066 72.2861C47.0286 72.4929 46.8973 72.7357 46.8217 72.9979C46.7461 73.2601 46.728 73.5356 46.7686 73.8054L46.8848 74.5759H38.8242L37.2809 64.3225C37.2403 64.0526 37.2584 63.7772 37.334 63.5149C37.4096 63.2527 37.5409 63.0099 37.7189 62.8031C37.8969 62.5963 38.1175 62.4303 38.3655 62.3165C38.6136 62.2027 38.8832 62.1438 39.1561 62.1437C39.4738 62.1343 87.9438 62.1295 88.2354 62.1437Z" fill="#4D4E59"/>
<path d="M21.0457 25.3212L20.9224 27.3198C20.8442 28.6023 19.8082 28.5051 19.8082 29.9276C19.8083 30.4554 19.6087 30.9637 19.2494 31.3503C18.89 31.7369 18.3977 31.9731 17.8713 32.0115L13.0491 32.3623C12.5211 32.4008 12.0274 32.6384 11.6678 33.027C11.3082 33.4156 11.1096 33.9263 11.1122 34.4557V37.4808C11.1127 37.9421 11.2657 38.3904 11.5474 38.7557C11.8291 39.1211 12.2237 39.383 12.6698 39.5007L13.5849 39.7377C14.0314 39.8555 14.4263 40.1178 14.7081 40.4836C14.9899 40.8494 15.1426 41.2982 15.1425 41.76C15.1423 42.0646 15.0647 42.3643 14.9169 42.6307C14.7691 42.8971 14.556 43.1216 14.2977 43.283C14.0393 43.4444 13.7441 43.5375 13.4399 43.5535C13.1356 43.5695 12.8323 43.5079 12.5584 43.3745C11.878 43.0426 10.8752 42.457 9.12793 41.5158C8.79609 41.3372 8.51881 41.0721 8.32554 40.7486C8.13228 40.4251 8.03024 40.0553 8.03027 39.6785V37.0185C8.02984 36.5571 7.87685 36.1089 7.59513 35.7435C7.31341 35.3782 6.91877 35.1163 6.47269 34.9986L5.55758 34.7615C5.11111 34.6437 4.71618 34.3815 4.43442 34.0157C4.15266 33.6498 3.99991 33.201 4 32.7393V29.7142C3.9998 29.1864 4.19944 28.6781 4.55878 28.2915C4.91811 27.9049 5.41049 27.6687 5.9369 27.6303L10.759 27.2795C11.2854 27.2411 11.7778 27.0049 12.1371 26.6183C12.4965 26.2317 12.6961 25.7234 12.6959 25.1956C12.6956 24.9212 12.7494 24.6495 12.8543 24.3959C12.9591 24.1424 13.1129 23.912 13.307 23.718C13.501 23.524 13.7313 23.3701 13.9849 23.2653C14.2384 23.1604 14.5102 23.1066 14.7845 23.1069H18.9618C19.2467 23.1067 19.5286 23.1649 19.7901 23.2778C20.0517 23.3907 20.2874 23.5559 20.4826 23.7634C20.6779 23.9709 20.8285 24.2161 20.9254 24.484C21.0222 24.7519 21.0632 25.0369 21.0457 25.3212Z" fill="#8085F8"/>
</svg>
