<svg width="128" height="128" viewBox="0 0 128 128" fill="none" xmlns="http://www.w3.org/2000/svg">
<path d="M64.3999 32.5C57.4999 32.5 51.8999 26.9 51.8999 20C51.8999 13.1 57.4999 7.5 64.3999 7.5C71.2999 7.5 76.8999 13.1 76.8999 20C76.8999 26.9 71.2999 32.5 64.3999 32.5ZM64.3999 11.3C59.5999 11.3 55.6999 15.2 55.6999 20C55.6999 24.8 59.5999 28.7 64.3999 28.7C69.1999 28.7 73.0999 24.8 73.0999 20C73.0999 15.2 69.1999 11.3 64.3999 11.3Z" fill="#2B2C34"/>
<path d="M71.5996 35.2998H57.0996C53.7996 35.2998 51.0996 32.5998 51.0996 29.2998C51.0996 25.9998 53.7996 23.2998 57.0996 23.2998H71.5996C74.8996 23.2998 77.5996 25.9998 77.5996 29.2998C77.6996 32.5998 74.9996 35.2998 71.5996 35.2998Z" fill="#464DEA"/>
<path d="M71.5997 37.1999H57.0997C52.6997 37.1999 49.1997 33.6999 49.1997 29.2999C49.1997 24.8999 52.6997 21.3999 57.0997 21.3999H71.5997C75.9997 21.3999 79.4997 24.8999 79.4997 29.2999C79.4997 33.6999 75.9997 37.1999 71.5997 37.1999ZM57.0997 25.0999C54.7997 25.0999 52.8997 26.9999 52.8997 29.2999C52.8997 31.5999 54.7997 33.4999 57.0997 33.4999H71.5997C73.8997 33.4999 75.7997 31.5999 75.7997 29.2999C75.7997 26.9999 73.8997 25.0999 71.5997 25.0999H57.0997Z" fill="#2B2C34"/>
<path d="M63.6998 117.2C88.2213 117.2 108.1 97.3214 108.1 72.7999C108.1 48.2785 88.2213 28.3999 63.6998 28.3999C39.1784 28.3999 19.2998 48.2785 19.2998 72.7999C19.2998 97.3214 39.1784 117.2 63.6998 117.2Z" fill="#464DEA"/>
<g opacity="0.5">
<g opacity="0.5">
<g opacity="0.5">
<path opacity="0.5" d="M63.7001 113.1C84.466 113.1 101.3 96.2658 101.3 75.4999C101.3 54.734 84.466 37.8999 63.7001 37.8999C42.9342 37.8999 26.1001 54.734 26.1001 75.4999C26.1001 96.2658 42.9342 113.1 63.7001 113.1Z" fill="#2B2C34"/>
</g>
</g>
</g>
<path d="M63.6999 119.1C38.1999 119.1 17.3999 98.3 17.3999 72.8C17.3999 47.3 38.1999 26.5 63.6999 26.5C89.1999 26.5 110 47.2 110 72.8C110 98.4 89.1999 119.1 63.6999 119.1ZM63.6999 30.2C40.1999 30.2 21.1999 49.3 21.1999 72.7C21.1999 96.1 40.2999 115.2 63.6999 115.2C87.0999 115.2 106.2 96.1 106.2 72.7C106.2 49.3 87.0999 30.2 63.6999 30.2Z" fill="#2B2C34"/>
<path d="M63.7001 108.4C83.3614 108.4 99.3001 92.4615 99.3001 72.8002C99.3001 53.1389 83.3614 37.2002 63.7001 37.2002C44.0388 37.2002 28.1001 53.1389 28.1001 72.8002C28.1001 92.4615 44.0388 108.4 63.7001 108.4Z" fill="white"/>
<path d="M63.6997 110.2C42.9997 110.2 26.1997 93.3998 26.1997 72.6998C26.1997 51.9998 42.9997 35.2998 63.6997 35.2998C84.3997 35.2998 101.2 52.0998 101.2 72.7998C101.2 93.4998 84.2997 110.2 63.6997 110.2ZM63.6997 38.9998C45.0997 38.9998 29.9997 54.1998 29.9997 72.7998C29.9997 91.3998 45.0997 106.5 63.6997 106.5C82.2997 106.5 97.3997 91.3998 97.3997 72.7998C97.3997 54.1998 82.2997 38.9998 63.6997 38.9998Z" fill="#2B2C34"/>
<path d="M82.8999 54.2998L69.0999 77.3998L45.8999 91.2998L59.6999 68.0998L82.8999 54.2998Z" fill="#E45858"/>
<path d="M45.9001 93.1C45.4001 93.1 44.9001 92.9 44.6001 92.6C44.0001 92 43.9001 91.1 44.3001 90.3L58.1001 67.1C58.3001 66.8 58.5001 66.6 58.7001 66.5L81.9001 52.7C82.6001 52.3 83.6001 52.4 84.2001 53C84.8001 53.6 84.9001 54.5 84.5001 55.3L70.7001 78.4C70.5001 78.7 70.3001 78.9 70.1001 79L46.8001 92.9C46.5001 93.1 46.2001 93.1 45.9001 93.1ZM61.1001 69.5L51.3001 85.9L67.7001 76.1L77.5001 59.7L61.1001 69.5Z" fill="#2B2C34"/>
<path d="M63.6998 110.2C62.6998 110.2 61.7998 109.4 61.7998 108.3V98.9C61.7998 97.9 62.5998 97 63.6998 97C64.7998 97 65.5998 97.8 65.5998 98.9V108.3C65.5998 109.4 64.6998 110.2 63.6998 110.2Z" fill="#2B2C34"/>
<path d="M63.6998 48.4998C62.6998 48.4998 61.7998 47.6998 61.7998 46.5998V37.1998C61.7998 36.1998 62.5998 35.2998 63.6998 35.2998C64.7998 35.2998 65.5998 36.0998 65.5998 37.1998V46.5998C65.5998 47.5998 64.6998 48.4998 63.6998 48.4998Z" fill="#2B2C34"/>
<path d="M89.7999 74.5998C88.7999 74.5998 87.8999 73.7998 87.8999 72.6998C87.8999 71.6998 88.6999 70.7998 89.7999 70.7998H99.1999C100.2 70.7998 101.1 71.5998 101.1 72.6998C101.1 73.6998 100.3 74.5998 99.1999 74.5998H89.7999Z" fill="#2B2C34"/>
<path d="M37.4997 74.5998H28.0997C27.0997 74.5998 26.1997 73.7998 26.1997 72.6998C26.1997 71.5998 26.9997 70.7998 28.0997 70.7998H37.4997C38.4997 70.7998 39.3997 71.5998 39.3997 72.6998C39.3997 73.7998 38.5997 74.5998 37.4997 74.5998Z" fill="#2B2C34"/>
</svg>
