<svg width="128" height="128" viewBox="0 0 128 128" fill="none" xmlns="http://www.w3.org/2000/svg">
<path d="M30.7125 81.4189C30.7125 81.4189 23.4033 31.0313 61.8162 27.8811C61.8162 27.8811 94.5138 24.5382 98.3684 60.7193V102.019C98.3684 102.019 101.293 112.253 67.9315 109.893L37.7581 109.63C37.7581 109.63 30.6669 107.266 30.1562 97.6903L30.7125 81.4189Z" fill="#464DEA"/>
<path d="M20.7451 63.2451H31.1119V96.6067H23.2368C23.2368 96.6067 19.8473 94.8341 20.7451 88.7327C21.6429 82.6314 20.7451 63.2451 20.7451 63.2451Z" fill="#B6B6B6"/>
<path d="M98.4336 63.2451L108.67 63.836L108.27 91.3916C108.27 91.3916 109.331 98.2829 98.4336 96.6099V63.2451V63.2451Z" fill="#B6B6B6"/>
<path d="M43.4734 34.4432L44.2703 24.209H46.1993L49.1886 29.9185L55.4374 29.0001C55.4374 29.0001 47.7932 13.5155 35.634 19.6843C35.634 19.6843 28.0582 23.0304 29.2552 37.9242L31.4476 50.3228L43.4734 34.4432Z" fill="#464DEA"/>
<path d="M79.3594 30.1766L83.4482 24.6179H84.8437L86.1383 35.2375L96.7068 50.8441L99.4977 29.8811C99.4977 29.8811 98.6 18.5808 84.346 18.2275C84.346 18.2275 77.8663 19.056 74.877 29.3898L78.3673 31.2588L79.3594 30.1766Z" fill="#464DEA"/>
<path d="M42.9192 75.2388H85.9478C85.9478 75.2388 90.4822 82.0916 72.0321 81.4333L42.7598 79.9625L42.9192 75.2388Z" fill="#4549B6"/>
<path d="M43.7442 101.685H86.7729C86.7729 101.685 91.3073 108.538 72.8572 107.88L40.2832 103.75L43.7442 101.685Z" fill="#4549B6"/>
<path d="M20.5919 84.6992C20.5919 84.6992 26.3267 93.9508 30.91 93.7549V97.2006C30.9132 97.2006 17.3521 98.8736 20.5919 84.6992Z" fill="#9E9494"/>
<path d="M108.461 84.6992C108.461 84.6992 102.726 93.9508 98.1426 93.7549V97.2006C98.1426 97.2006 111.704 98.8736 108.461 84.6992Z" fill="#9E9494"/>
<path d="M43.2011 70.3979C43.2011 70.3979 43.175 70.1667 43.1458 69.7461C42.8302 65.3049 42.1634 39.7274 69.123 42.8423C69.123 42.8423 82.2808 45.5975 85.4718 58.8503L86.1354 75.7768V77.7453L43.0645 77.2218L43.2011 70.3979Z" fill="#E45858"/>
<path d="M50.5172 31.9536C50.5172 31.9536 33.7032 48.6842 31.6442 89.4284C31.6409 89.4284 22.8712 41.9245 50.5172 31.9536Z" fill="#4549B6"/>
<path d="M41.4229 19.5178C41.4229 19.5178 24.7 17.0644 30.3209 38.6439L31.4725 49.5333L38.0302 41.0395C38.0335 41.0395 30.913 22.3662 41.4229 19.5178Z" fill="#4549B6"/>
<path d="M87.1895 19.2881C90.6147 17.0659 103.688 19.4326 98.2914 39.4322L97.1399 50.3215L90.5822 41.8278C90.5789 41.8246 93.3178 14.3974 87.1895 19.2881Z" fill="#4549B6"/>
<path d="M41.6426 86.6699H85.2079C85.2079 86.6699 89.3293 87.1934 89.1959 93.7571L89.1992 101.763C89.1992 101.763 89.1959 105.7 78.0322 103.468L41.6426 104.152V86.6699Z" fill="#E45858"/>
<path d="M88.6336 98.821C88.6336 98.821 95.9102 83.0249 72.5841 86.5187L57.1786 85.9375L54.8398 87.3569C54.8398 87.3569 89.6713 85.976 88.6336 98.821Z" fill="#AE4848"/>
<path d="M85.4845 85.1011H43.666C41.145 85.1011 39.0957 87.1274 39.0957 89.6129V100.733C39.0957 103.219 41.145 105.245 43.666 105.245H85.4845C88.0023 105.245 90.0548 103.219 90.0548 100.733V89.6129C90.0548 87.1274 88.0023 85.1011 85.4845 85.1011ZM87.4395 100.733C87.4395 101.8 86.5645 102.667 85.4813 102.667H43.666C42.586 102.667 41.7077 101.803 41.7077 100.733V89.6129C41.7077 88.5467 42.586 87.6797 43.666 87.6797H85.4845C86.5645 87.6797 87.4428 88.5435 87.4428 89.6129V100.733H87.4395Z" fill="#2B2C34"/>
<path opacity="0.16" d="M88.3294 48.5429C89.9884 46.9051 88.6301 42.9088 85.2955 39.6169C81.961 36.325 77.9129 34.9841 76.2539 36.6219C74.5949 38.2597 75.9532 42.256 79.2877 45.5479C82.6223 48.8398 86.6703 50.1807 88.3294 48.5429Z" fill="#FFFFFE"/>
<path d="M108.837 62.1436H99.6641V61.6137C99.6641 58.3319 99.1696 55.1656 98.3011 52.1534C99.0005 48.0495 102.068 28.9233 99.3583 24.0647C97.7123 21.1104 93.2169 18.4065 88.0416 17.3115C86.2265 16.9229 81.4091 15.8985 77.5154 22.1637L73.7324 28.2072C73.0363 28.021 72.3434 27.8187 71.631 27.6742L69.855 20.6929C69.1003 18.0693 67.8057 17 65.3856 17C63.538 17 61.5537 17.4239 60.8706 20.5356L59.0946 27.4365C57.7934 27.6388 56.5183 27.9054 55.2692 28.2458L51.4634 22.1733C47.573 15.8985 42.7555 16.9229 40.8136 17.3404C35.7652 18.4097 31.2665 21.1104 29.6205 24.0679C26.8166 29.1096 30.2126 49.4849 30.7428 52.5292C29.9426 55.4289 29.4774 58.4667 29.4774 61.6137V62.1436H20.3044C19.5855 62.1436 19 62.7216 19 63.4313V91.3498C19 94.9111 21.9341 97.8108 25.5447 97.8108H29.4807V101.205C29.4807 106.513 33.8557 110.832 39.2327 110.832H89.912C95.289 110.832 99.6641 106.513 99.6641 101.205V97.8108H103.597C107.204 97.8108 110.145 94.9143 110.145 91.3498V63.4313C110.145 62.7184 109.559 62.1436 108.837 62.1436ZM79.4671 23.3486C82.5151 18.4322 85.8004 19.1387 87.6903 19.5465C91.9906 20.4553 96.0534 22.8123 97.3578 25.1533C98.9419 27.9985 97.9856 38.9103 96.6942 47.7123C94.4693 42.722 91.1026 38.3355 86.8999 34.9059L86.6104 26.1906C86.5226 24.4726 85.3971 23.567 84.727 23.2972C83.3705 22.777 82.0076 23.233 81.1716 24.4918C80.4528 25.5804 79.1874 28.249 78.4653 29.8128C77.6586 29.4692 76.8291 29.1738 75.9931 28.8912L79.4671 23.3486ZM84.5578 33.1718C83.273 32.2887 81.923 31.502 80.5243 30.7923C81.2952 29.1256 82.4825 26.6337 83.081 25.7281C83.4226 25.2176 83.6991 25.3235 83.878 25.391C83.8812 25.391 84.2911 25.6158 84.3269 26.2869L84.5578 33.1718ZM63.0956 21.0494C63.4566 19.4149 64.0421 19.2543 65.3888 19.2543C66.4623 19.2543 67.0933 19.3474 67.6496 21.2742L69.1816 27.3049C67.6691 27.1058 66.137 26.9709 64.5724 26.9709C63.5477 26.9709 62.5393 27.0383 61.5342 27.1218L63.0956 21.0494ZM31.6243 25.1533C32.9254 22.8123 36.9947 20.4585 41.4219 19.5208C43.1882 19.1483 46.4703 18.4451 49.5182 23.355L53.0183 28.9394C52.1823 29.2284 51.3528 29.5303 50.5461 29.8771C49.8305 28.3228 48.5358 25.5933 47.8072 24.4918C46.9745 23.233 45.6083 22.7738 44.2714 23.2908C44.112 23.3486 42.7002 23.9234 42.3717 26.213L42.0757 35.0568C37.8828 38.5249 34.5193 42.934 32.3302 47.9596C31.1982 40.2397 29.9068 28.2361 31.6243 25.1533ZM45.0846 25.4006C45.2765 25.33 45.5595 25.2176 45.8978 25.7249C46.5061 26.6466 47.7194 29.1899 48.4903 30.8565C47.0721 31.5822 45.7156 32.3947 44.4177 33.297L44.6422 26.4121C44.7625 25.6158 45.0976 25.4006 45.0846 25.4006ZM25.5447 95.229C23.3751 95.229 21.612 93.4885 21.612 91.3498V64.719H29.4807V95.229H25.5447V95.229ZM97.052 101.205C97.052 105.091 93.848 108.254 89.912 108.254H39.2294C35.2902 108.254 32.0894 105.091 32.0894 101.205V96.5199V63.4313V61.6137C32.0894 43.9327 46.6622 29.5463 64.5724 29.5463C82.4825 29.5463 97.052 43.9327 97.052 61.6137V63.4313V96.5199V101.205ZM107.533 91.3498C107.533 93.4885 105.77 95.229 103.6 95.229H99.6673V64.719H107.533V91.3498Z" fill="#2B2C34"/>
<path d="M42.947 79.0158H86.1936C86.9124 79.0158 87.5012 78.4378 87.5012 77.7249V63.8973C87.5012 51.4152 77.2157 41.2612 64.5719 41.2612C51.9281 41.2612 41.6426 51.4152 41.6426 63.8973V77.7249C41.6426 78.4345 42.2281 79.0158 42.947 79.0158ZM44.2546 63.8973C44.2546 52.8378 53.3691 43.8399 64.5719 43.8399C75.7747 43.8399 84.8892 52.8378 84.8892 63.8973V76.4339H44.2546V63.8973Z" fill="#2B2C34"/>
</svg>
