<svg width="192" height="65" viewBox="0 0 192 65" fill="none" xmlns="http://www.w3.org/2000/svg">
<path d="M20.4324 31.2397H20.4059C21.2538 32.697 22.0487 34.1278 22.8966 35.5586C25.2813 39.5067 24.0624 39.4537 28.7524 38.4733C33.4423 37.4929 38.6886 36.4595 43.6435 35.3997C44.4649 35.1877 45.2068 34.4988 44.2795 33.7304C31.0046 22.2838 17.7032 11.0491 4.11037 0C2.41458 12.9039 2.04363 26.0198 1.06325 39.0297C0.745285 43.5872 0.347834 48.1711 0.0033761 52.755C-0.0231207 53.0465 0.109365 53.6029 0.294842 53.6559C5.77967 51.3507 10.6021 46.8463 15.8484 43.7726C17.1998 42.8717 17.5177 42.1298 17.0408 40.54C13.9142 30.2858 7.60795 8.58495 7.60795 8.58495C7.60795 8.58495 17.4382 25.5164 20.4324 31.2397" fill="#505CA9"/>
<path d="M112.855 38.7378C111.742 39.4267 110.735 40.2216 109.596 40.725C108.052 41.423 106.378 41.7862 104.684 41.7908C102.989 41.7953 101.313 41.4412 99.7658 40.7515C95.8443 39.1087 93.2741 36.1941 92.1082 32.2196C90.5184 26.6818 91.3133 21.5679 95.4203 17.2489C99.5273 12.9299 103.714 12.3205 108.854 13.8573C109.835 14.1488 110.735 14.7847 111.636 15.3411C112.537 15.8976 112.882 15.8181 113.12 14.8642C113.359 13.9103 113.862 13.9103 114.604 13.9368C115.955 13.9368 117.333 13.8838 118.711 13.9103C120.089 13.9368 120.566 14.1223 120.566 15.8711C120.566 22.0978 120.539 28.3245 120.539 34.5248C120.539 36.2206 120.486 37.8899 120.539 39.5592C120.566 40.5395 120.089 40.9635 119.214 41.0165C117.863 41.096 116.485 41.096 115.107 41.096C113.73 41.096 112.988 40.8575 113.12 39.3472C113.147 39.1617 112.961 38.9762 112.855 38.7378ZM113.094 27.2912C113.253 23.1842 109.676 19.7131 105.118 20.1106C101.939 20.402 98.547 23.3432 98.7059 27.6886C98.8649 32.0341 101.647 35.1872 106.602 34.7898C110.47 34.4718 113.279 31.3717 113.094 27.2912V27.2912Z" fill="#505CA9"/>
<path d="M170.114 30.5499C167.332 30.5499 164.55 30.5234 161.768 30.5499C161.317 30.5499 160.893 30.7884 160.443 30.9209C160.602 31.4508 160.629 32.0867 160.946 32.4842C161.461 33.1721 162.118 33.7411 162.873 34.1526C163.627 34.5641 164.461 34.8084 165.318 34.8689C167.968 35.0809 170.512 35.1604 172.632 33.0936C172.814 32.9657 173.025 32.8822 173.245 32.85C173.466 32.8178 173.692 32.8377 173.903 32.9081C175.334 33.6501 176.712 34.4979 178.116 35.3193C178.911 35.7963 178.726 36.4322 178.275 36.9886C176.341 39.3204 173.85 40.7247 170.936 41.4136C168.132 42.0814 165.203 42.0175 162.43 41.2281C158.456 40.1153 155.409 37.757 153.66 33.862C152.679 31.6363 152.044 29.3576 152.203 26.9464C152.547 21.4615 154.958 17.1161 159.993 14.6784C165.027 12.2407 170.194 12.3997 174.725 15.7912C179.256 19.1828 180.872 23.5548 180.21 29.0396C180.077 30.232 179.547 30.5764 178.434 30.5764C175.679 30.5234 172.897 30.5499 170.114 30.5499V30.5499ZM172.844 24.6147C172.314 21.7 169.902 19.7922 166.935 19.7658C163.119 19.7128 160.629 21.435 159.993 24.6147H172.844Z" fill="#505CA9"/>
<path d="M137.656 31.8753C138.398 29.7555 139.007 28.0333 139.59 26.2845C140.809 22.7604 141.975 19.2098 143.167 15.6593C143.538 14.5464 144.121 13.8045 145.552 13.937C146.983 14.0695 148.625 13.937 150.189 13.937C151.752 13.937 151.752 14.149 151.302 15.4738C150.48 17.9115 149.579 20.2962 148.705 22.6809C147.353 26.258 146.002 29.835 144.624 33.4121C143.803 35.6113 142.955 37.7841 142.054 39.9303C141.736 40.7517 141.127 41.2286 140.093 41.1227C138.947 41.0299 137.795 41.0299 136.649 41.1227C133.602 41.2816 133.416 41.2551 132.356 38.42C129.459 30.8949 126.615 23.3522 123.824 15.7918C123.215 14.2019 123.427 13.937 125.123 13.9105C126.819 13.884 128.382 13.937 130.025 13.9105C130.846 13.9105 131.243 14.2549 131.508 15.0763C133.125 19.8987 134.821 24.7212 136.516 29.5171C136.755 30.206 137.152 30.8419 137.656 31.8753Z" fill="#505CA9"/>
<path d="M56.6858 28.5099C56.6858 26.5756 56.6858 24.6414 56.7123 22.6806C56.7123 21.5148 56.1559 21.0378 54.99 21.0643C51.8899 21.1438 51.8899 21.1173 51.9164 18.0702C51.9164 17.1428 51.9429 16.2154 51.9164 15.288C51.8899 14.3606 52.2874 13.9632 53.1617 13.9367L54.0891 13.8837C56.3679 13.9897 56.6063 14.3341 56.7123 11.2075C56.6858 10.6868 56.6858 10.165 56.7123 9.64422C56.7653 8.82282 57.0038 8.31938 57.9842 8.13391C59.415 7.89544 60.7663 7.339 62.1442 6.86206C63.522 6.38512 64.0784 6.62359 64.0784 8.21339V12.4529C64.0784 13.4598 64.4229 14.0162 65.5622 13.9367C66.6653 13.8705 67.7713 13.8705 68.8743 13.9367C69.6692 13.9367 70.0932 14.3077 70.0932 15.1555C70.0667 16.6129 70.0932 18.0702 70.0667 19.5275C70.0402 20.9848 69.4308 21.0908 68.3709 21.0643C67.311 21.0378 66.4366 21.0908 65.4562 21.0643C64.4759 21.0378 64.0784 21.5413 64.0784 22.4686C64.0784 25.5423 64.0254 28.6424 64.1049 31.7425C64.1579 33.7033 65.3503 34.5512 67.6555 34.4717C69.9607 34.3922 70.0667 34.5247 70.0932 36.8034C70.0932 37.7573 70.1992 38.7641 70.0137 39.6915C69.8282 40.6189 69.3513 41.0959 68.9538 41.1489C66.0922 41.4138 63.1775 41.5728 60.5543 40.195C57.9312 38.8171 57.0303 36.8829 56.8448 34.3392C56.6858 32.4049 56.7918 30.4442 56.7918 28.5099H56.6858Z" fill="#505CA9"/>
<path d="M192 21.2762V39.1615C192 40.8573 191.736 41.1223 190.119 41.1223C188.927 41.0958 187.735 41.0428 186.542 41.0958C185.35 41.1488 184.74 40.5129 184.74 39.2675C184.74 35.24 184.714 31.239 184.714 27.2115C184.714 19.4038 184.723 11.5873 184.74 3.76188C184.74 1.69513 184.846 1.58914 186.913 1.58914C187.999 1.58914 189.112 1.56265 190.225 1.61564C191.788 1.66863 192 1.9071 192 3.5499V21.2762V21.2762Z" fill="#505CA9"/>
<path d="M74.858 27.4763C74.8404 23.6431 74.8404 19.8011 74.858 15.9503C74.858 14.0955 74.964 13.9895 76.7923 13.9895H80.5019C81.6677 13.9895 82.1976 14.5194 82.0917 15.7118C82.0652 16.0562 82.2506 16.4272 82.3301 16.7716C82.6746 16.5597 83.072 16.4272 83.337 16.1357C84.8738 14.3869 86.9406 13.698 89.1398 13.3801C89.4313 13.3536 90.0407 13.91 90.0407 14.2015C90.1202 16.2682 90.0937 18.3615 90.0937 20.4282C90.0672 21.3556 89.4048 21.4086 88.6893 21.4351C86.6756 21.4881 84.7943 22.018 83.5225 23.5813C82.8435 24.4201 82.4367 25.4462 82.3566 26.5225C82.1447 29.9935 82.1182 33.4911 82.0652 36.9622C82.0387 37.8631 82.2506 38.817 82.0652 39.6648C81.8797 40.5127 81.2703 40.8837 80.7933 40.9367C79.2035 41.0957 77.6137 40.9897 76.0239 40.9632C74.8845 40.9367 74.8315 40.1153 74.8315 39.2674C74.858 35.3459 74.858 31.3979 74.858 27.4763Z" fill="#505CA9"/>
<path d="M41.1537 56.0672C41.1572 56.5635 41.0625 57.0556 40.8749 57.5152C40.6874 57.9747 40.4108 58.3927 40.0611 58.7448C39.7114 59.097 39.2954 59.3766 38.8372 59.5673C38.379 59.758 37.8875 59.8562 37.3912 59.8562C35.2184 59.8562 33.2842 58.0809 33.2842 56.0672C33.2842 54.0534 35.5364 52.0397 37.5237 52.0662C39.5109 52.0927 41.1537 53.8415 41.1537 56.0672Z" fill="#EF3F51"/>
<path d="M16.0612 56.04C17.386 56.04 17.8365 56.9144 17.916 57.8948C17.9954 58.8752 16.9356 59.5906 15.9287 59.5906C14.9218 59.5906 14.2329 58.9282 14.2329 57.8683C14.2329 56.8085 14.7363 56.04 16.0612 56.04Z" fill="#EF3F51"/>
<path d="M7.84668 9.40576L23.8772 40.8044L26.6594 39.6121L25.3345 47.8261L17.6505 43.5866L20.8301 41.9968L7.84668 9.40576Z" fill="#EF3F51"/>
<path d="M71.3741 48.6101L69.0453 60.2544H66.9992L68.513 52.6191L63.5392 58.9236H62.5744L59.9128 52.4694L58.3658 60.2544H56.3031L58.632 48.6101H60.3952L63.4727 56.3619L69.511 48.6101H71.3741ZM80.3914 57.5596H74.536L72.8559 60.2544H70.5437L78.1125 48.6101H80.2583L83.1528 60.2544H81.0069L80.3914 57.5596ZM79.9922 55.8628L78.8111 50.7394L75.6006 55.8628H79.9922ZM88.3905 50.4399H84.5312L84.8972 48.6101H94.7782L94.3956 50.4399H90.5363L88.5901 60.2544H86.4276L88.3905 50.4399ZM98.181 50.4233L97.5822 53.4508H103.221L102.872 55.2307H97.2162L96.5841 58.4412H103.171L102.805 60.2544H94.0722L96.4011 48.6101H104.901L104.535 50.4233H98.181Z" fill="#F04A5B"/>
</svg>
