<svg width="725" height="438" viewBox="0 0 725 438" fill="none" xmlns="http://www.w3.org/2000/svg">
<g clip-path="url(#clip0_304_1892)">
<path d="M491.9 239.3C487.3 257.2 478.1 272.6 466.8 287C462.8 292.1 459.1 297.5 454.9 302.6C450.7 307.7 446.7 312.6 441.8 316.6C425.6 330.2 409.4 343.5 389.7 352.3C374.5 359.1 359.1 365.5 342.7 368.6C332.4 370.6 307.8 375.4 306 376.5C307.9 377.9 347.7 387.3 366.1 386.1C378.8 385.3 391.7 384.3 404.3 382.3C416.924 380.29 429.389 377.383 441.6 373.6C451.8 370.3 461.5 365.3 471.2 360.5C490.269 351.325 507.972 339.546 523.8 325.5C532.8 317.3 540.9 307.9 549.8 299.6C561.5 288.6 569.2 274.8 577.8 261.7C586.207 248.917 592.771 235.014 597.3 220.4C600.3 210.8 601.3 210.4 611.3 210.4L691.8 210.2C700.6 210.2 703.2 212.9 700.4 221.2C696 234.4 691.3 247.6 685.2 260.2C672.224 286.796 655.671 311.492 636 333.6C626.431 344.42 616.105 354.545 605.1 363.9C594.7 372.8 583.2 380.5 571.8 388.2C563.51 393.927 554.896 399.169 546 403.9C538.7 407.8 530.8 410.6 523.1 413.7C518.2 415.7 513.1 417.3 508.1 419.2C468.7 434.5 427.6 439 385.9 436.5C365.9 435.3 346.1 430.8 326.3 427.1C299.7 422.1 275.6 410.3 252 397.7C239.135 390.701 226.92 382.569 215.5 373.4C201.886 362.766 189.054 351.17 177.1 338.7C161 321.9 146.5 303.6 135.4 282.9C130 272.8 124.6 262.7 119.5 252.4C118.195 249.563 117.254 246.573 116.7 243.5C115.9 239.8 116.7 238.5 116.7 238.5C116.7 238.5 117.7 238.5 120.6 241.1C132.3 253.4 143.4 266.2 155.7 277.8C164 285.6 173.6 292.1 183.1 298.4C201.708 310.686 222.168 319.904 243.7 325.7C272.9 333.5 302.3 335.1 332.3 331.6C351.9 329.3 370.5 323.8 388.6 316.7C400.021 312.113 410.917 306.313 421.1 299.4C432.945 291.454 444.177 282.629 454.7 273C465.5 263.1 475 251.7 485 241L489.7 236.5C490.7 235.5 492.7 232.5 491.9 239.3Z" fill="url(#paint0_linear_304_1892)"/>
<path d="M77.2001 117.9H77.1001C80.3001 123.4 83.3002 128.8 86.5002 134.2C95.5002 149.1 90.9001 148.9 108.6 145.2C126.3 141.5 146.1 137.6 164.8 133.6C167.9 132.8 170.7 130.2 167.2 127.3C117.1 84.1 66.9001 41.7 15.6001 0C9.20014 48.7 7.80014 98.2 4.10014 147.3C2.90014 164.5 1.40014 181.8 0.100144 199.1C0.000143915 200.2 0.50015 202.3 1.20015 202.5C21.9002 193.8 40.1001 176.8 59.9001 165.2C65.0001 161.8 66.2001 159 64.4001 153C52.6001 114.3 28.8002 32.4 28.8002 32.4C28.8002 32.4 65.9001 96.3 77.2001 117.9Z" fill="#505CA9"/>
<path d="M426 146.2C421.8 148.8 418 151.8 413.7 153.7C407.873 156.334 401.555 157.705 395.161 157.722C388.766 157.739 382.441 156.403 376.6 153.8C361.8 147.6 352.1 136.6 347.7 121.6C341.7 100.7 344.7 81.3999 360.2 65.0999C375.7 48.7999 391.5 46.4999 410.9 52.2999C414.6 53.3999 418 55.7999 421.4 57.8999C424.8 59.9999 426.1 59.6999 427 56.0999C427.9 52.4999 429.8 52.4999 432.6 52.5999C437.7 52.5999 442.9 52.3999 448.1 52.4999C453.3 52.5999 455.1 53.2999 455.1 59.8999C455.1 83.3999 455 106.9 455 130.3C455 136.7 454.8 143 455 149.3C455.1 153 453.3 154.6 450 154.8C444.9 155.1 439.7 155.1 434.5 155.1C429.3 155.1 426.5 154.2 427 148.5C427.1 147.8 426.4 147.1 426 146.2ZM426.9 103C427.5 87.4999 414 74.3999 396.8 75.8999C384.8 76.9999 372 88.0999 372.6 104.5C373.2 120.9 383.7 132.8 402.4 131.3C417 130.1 427.6 118.4 426.9 103Z" fill="#505CA9"/>
<path d="M642.1 115.3C631.6 115.3 621.1 115.2 610.6 115.3C608.9 115.3 607.3 116.2 605.6 116.7C606.2 118.7 606.3 121.1 607.5 122.6C609.443 125.196 611.923 127.344 614.77 128.897C617.617 130.449 620.765 131.371 624 131.6C634 132.4 643.6 132.7 651.6 124.9C652.29 124.417 653.084 124.102 653.917 123.981C654.75 123.859 655.601 123.934 656.4 124.2C661.8 127 667 130.2 672.3 133.3C675.3 135.1 674.6 137.5 672.9 139.6C665.6 148.4 656.2 153.7 645.2 156.3C634.617 158.82 623.563 158.579 613.1 155.6C598.1 151.4 586.6 142.5 580 127.8C576.3 119.4 573.9 110.8 574.5 101.7C575.8 81 584.9 64.5999 603.9 55.3999C622.9 46.1999 642.4 46.7999 659.5 59.5999C676.6 72.3999 682.7 88.8999 680.2 109.6C679.7 114.1 677.7 115.4 673.5 115.4C663.1 115.2 652.6 115.3 642.1 115.3ZM652.4 92.8999C650.4 81.8999 641.3 74.6999 630.1 74.5999C615.7 74.3999 606.3 80.8999 603.9 92.8999H652.4Z" fill="#505CA9"/>
<path d="M519.6 120.3C522.4 112.3 524.7 105.8 526.9 99.2001C531.5 85.9001 535.9 72.5001 540.4 59.1001C541.8 54.9001 544 52.1001 549.4 52.6001C554.8 53.1001 561 52.6001 566.9 52.6001C572.8 52.6001 572.8 53.4001 571.1 58.4001C568 67.6001 564.6 76.6001 561.3 85.6001C556.2 99.1001 551.1 112.6 545.9 126.1C542.8 134.4 539.6 142.6 536.2 150.7C535 153.8 532.7 155.6 528.8 155.2C524.474 154.85 520.126 154.85 515.8 155.2C504.3 155.8 503.6 155.7 499.6 145C488.667 116.6 477.933 88.1334 467.4 59.6001C465.1 53.6001 465.9 52.6001 472.3 52.5001C478.7 52.4001 484.6 52.6001 490.8 52.5001C493.9 52.5001 495.4 53.8001 496.4 56.9001C502.5 75.1001 508.9 93.3 515.3 111.4C516.2 114 517.7 116.4 519.6 120.3Z" fill="#505CA9"/>
<path d="M214.016 107.6C214.016 100.3 214.016 93 214.116 85.6C214.116 81.2 212.016 79.4 207.616 79.5C195.916 79.8 195.916 79.7 196.016 68.2C196.016 64.7 196.116 61.2 196.016 57.7C195.916 54.2 197.416 52.7 200.716 52.6L204.216 52.4C212.816 52.8 213.716 54.1 214.116 42.3C214.016 40.3346 214.016 38.3654 214.116 36.4C214.316 33.3 215.216 31.4 218.916 30.7C224.316 29.8 229.416 27.7 234.616 25.9C239.816 24.1 241.916 25 241.916 31V47C241.916 50.8 243.216 52.9 247.516 52.6C251.679 52.3501 255.853 52.3501 260.016 52.6C263.016 52.6 264.616 54 264.616 57.2C264.516 62.7 264.616 68.2 264.516 73.7C264.416 79.2 262.116 79.6 258.116 79.5C254.116 79.4 250.816 79.6 247.116 79.5C243.416 79.4 241.916 81.3 241.916 84.8C241.916 96.4 241.716 108.1 242.016 119.8C242.216 127.2 246.716 130.4 255.416 130.1C264.116 129.8 264.516 130.3 264.616 138.9C264.616 142.5 265.016 146.3 264.316 149.8C263.616 153.3 261.816 155.1 260.316 155.3C249.516 156.3 238.516 156.9 228.616 151.7C218.716 146.5 215.316 139.2 214.616 129.6C214.016 122.3 214.416 114.9 214.416 107.6H214.016Z" fill="#505CA9"/>
<path d="M724.7 80.3001V147.8C724.7 154.2 723.7 155.2 717.6 155.2C713.1 155.1 708.6 154.9 704.1 155.1C699.6 155.3 697.3 152.9 697.3 148.2C697.3 133 697.2 117.9 697.2 102.7C697.2 73.2334 697.234 43.7334 697.3 14.2001C697.3 6.40011 697.7 6.00009 705.5 6.00009C709.6 6.00009 713.8 5.9001 718 6.1001C723.9 6.3001 724.7 7.20009 724.7 13.4001V80.3001Z" fill="#505CA9"/>
<path d="M282.6 103.7C282.533 89.2334 282.533 74.7334 282.6 60.2C282.6 53.2 283 52.8 289.9 52.8H303.9C308.3 52.8 310.3 54.8 309.9 59.3C309.8 60.6 310.5 62 310.8 63.3C312.1 62.5 313.6 62 314.6 60.9C320.4 54.3 328.2 51.7 336.5 50.5C337.6 50.4 339.9 52.5 339.9 53.6C340.2 61.4 340.1 69.3 340.1 77.1C340 80.6 337.5 80.8 334.8 80.9C327.2 81.1 320.1 83.1 315.3 89C312.737 92.1657 311.202 96.0383 310.9 100.1C310.1 113.2 310 126.4 309.8 139.5C309.7 142.9 310.5 146.5 309.8 149.7C309.1 152.9 306.8 154.3 305 154.5C299 155.1 293 154.7 287 154.6C282.7 154.5 282.5 151.4 282.5 148.2C282.6 133.4 282.6 118.5 282.6 103.7Z" fill="#505CA9"/>
<path d="M85.3002 275.5C97.2002 275.6 106.4 285.3 106.3 297.5C106.195 303.371 103.768 308.96 99.5515 313.046C95.3347 317.132 89.6711 319.38 83.8002 319.3C72.3002 319.2 62.8002 308.7 62.9002 296.3C63.0002 283.9 73.1002 275.5 85.3002 275.5Z" fill="#EF3F51"/>
<path d="M155.4 211.6C155.413 213.473 155.056 215.33 154.348 217.065C153.64 218.799 152.597 220.376 151.277 221.706C149.957 223.035 148.387 224.09 146.658 224.81C144.928 225.529 143.073 225.9 141.2 225.9C133 225.9 125.7 219.2 125.7 211.6C125.7 204 134.2 196.4 141.7 196.5C149.2 196.6 155.4 203.2 155.4 211.6Z" fill="#EF3F51"/>
<path d="M60.6998 211.5C65.6998 211.5 67.3998 214.8 67.6998 218.5C67.9998 222.2 63.9998 224.9 60.1998 224.9C56.3998 224.9 53.7998 222.4 53.7998 218.4C53.7998 214.4 55.6998 211.5 60.6998 211.5Z" fill="#EF3F51"/>
<path d="M29.7002 35.5L90.2002 154L100.7 149.5L95.7002 180.5L66.7002 164.5L78.7002 158.5L29.7002 35.5Z" fill="#EF3F51"/>
<path d="M269.453 184.074L260.663 228.02H252.942L258.655 199.204L239.883 222.998H236.242L226.197 198.639L220.359 228.02H212.574L221.363 184.074H228.018L239.632 213.329L262.421 184.074H269.453ZM303.484 217.85H281.386L275.045 228.02H266.319L294.883 184.074H302.982L313.906 228.02H305.807L303.484 217.85ZM301.978 211.446L297.52 192.11L285.404 211.446H301.978ZM333.673 190.98H319.108L320.489 184.074H357.781L356.337 190.98H341.772L334.427 228.02H326.265L333.673 190.98ZM370.623 190.917L368.363 202.343H389.645L388.327 209.06H366.982L364.596 221.177H389.457L388.076 228.02H355.116L363.906 184.074H395.986L394.605 190.917H370.623Z" fill="#F04A5B"/>
</g>
<defs>
<linearGradient id="paint0_linear_304_1892" x1="334.5" y1="373.5" x2="318" y2="345" gradientUnits="userSpaceOnUse">
<stop offset="0.01" stop-color="#F75868"/>
<stop offset="1" stop-color="#EF3F51"/>
</linearGradient>
<clipPath id="clip0_304_1892">
<rect width="724.7" height="437.2" fill="white"/>
</clipPath>
</defs>
</svg>
