<svg width="62" height="62" viewBox="0 0 62 62" fill="none" xmlns="http://www.w3.org/2000/svg">
<path d="M37.4976 60.0165C36.7817 60.0233 36.0782 59.8305 35.4658 59.4597C34.8535 59.0888 34.3566 58.5547 34.0309 57.9172L26.3271 43.3379C26.1037 42.8873 26.0654 42.3671 26.2204 41.8886C26.3755 41.4102 26.7115 41.0113 27.1568 40.7774C27.602 40.5434 28.1211 40.493 28.6031 40.6367C29.0851 40.7805 29.4917 41.1071 29.736 41.5468L37.4398 56.1261L55.8517 6.20581L5.77737 24.3674L24.6516 34.4978L40.6754 18.474C41.038 18.1114 41.5299 17.9076 42.0428 17.9076C42.5557 17.9076 43.0475 18.1114 43.4102 18.474C43.7729 18.8367 43.9766 19.3286 43.9766 19.8414C43.9766 20.3543 43.7729 20.8462 43.4102 21.2089L26.3656 38.2341C26.0759 38.5243 25.7011 38.7144 25.2958 38.7767C24.8905 38.8391 24.4759 38.7704 24.1123 38.5808L4.02476 27.9111C3.32165 27.5821 2.73437 27.0482 2.33993 26.3796C1.94548 25.7109 1.76228 24.9387 1.81434 24.1642C1.86639 23.3896 2.15127 22.6488 2.63164 22.039C3.112 21.4291 3.76542 20.9787 4.50625 20.7466L54.4073 2.48875C55.1131 2.19108 55.8917 2.11062 56.6435 2.25766C57.3952 2.4047 58.0861 2.77256 58.6278 3.31423C59.1694 3.85589 59.5373 4.54676 59.6843 5.29854C59.8314 6.05033 59.7509 6.82888 59.4533 7.53471L41.1954 57.4357C40.9443 58.1574 40.4844 58.7881 39.8739 59.2477C39.2635 59.7072 38.5301 59.9749 37.7672 60.0165H37.4976Z" fill="#464DEA"/>
<path fill-rule="evenodd" clip-rule="evenodd" d="M24.6748 34.4746L40.6752 18.4741C41.0379 18.1115 41.5298 17.9077 42.0427 17.9077C42.5555 17.9077 43.0474 18.1115 43.4101 18.4741C43.7727 18.8368 43.9765 19.3287 43.9765 19.8415C43.9765 20.3544 43.7727 20.8463 43.4101 21.209L27.1407 37.46C25.5684 36.7966 24.9322 35.4531 24.6748 34.4746Z" fill="#E45858"/>
</svg>
