<svg width="62" height="62" viewBox="0 0 62 62" fill="none" xmlns="http://www.w3.org/2000/svg">
<path d="M46.223 42.6833C45.773 42.6842 45.3369 42.5275 44.9904 42.2403L36.2852 34.9796H32.7415C28.6552 34.9796 24.7362 33.3563 21.8467 30.4668C18.9573 27.5773 17.334 23.6584 17.334 19.5721C17.334 15.4857 18.9573 11.5668 21.8467 8.6773C24.7362 5.78784 28.6552 4.16455 32.7415 4.16455H44.2971C48.0395 4.17524 51.65 5.54765 54.4546 8.02552C57.2592 10.5034 59.066 13.9173 59.5377 17.6299C60.0095 21.3424 59.1138 25.0997 57.0181 28.2002C54.9223 31.3008 51.7698 33.5325 48.149 34.4788V40.7574C48.1499 41.1257 48.0451 41.4866 47.8472 41.7973C47.6492 42.1079 47.3662 42.3553 47.0319 42.51C46.778 42.6257 46.502 42.6848 46.223 42.6833ZM32.7415 8.01643C29.6767 8.01643 26.7375 9.23389 24.5704 11.401C22.4033 13.5681 21.1859 16.5073 21.1859 19.5721C21.1859 22.6368 22.4033 25.576 24.5704 27.7431C26.7375 29.9102 29.6767 31.1277 32.7415 31.1277H36.9785C37.4285 31.1268 37.8646 31.2835 38.2111 31.5706L44.2971 36.6359V32.8995C44.2925 32.4322 44.458 31.9791 44.7627 31.6248C45.0675 31.2705 45.4907 31.039 45.9534 30.9736C48.7996 30.5072 51.3684 28.9933 53.1553 26.7294C54.9421 24.4655 55.8178 21.6152 55.6102 18.7385C55.4027 15.8619 54.1269 13.1669 52.0336 11.1829C49.9403 9.19893 47.1807 8.06947 44.2971 8.01643H32.7415Z" fill="#464DEA"/>
<path d="M40.4446 17.646H36.5928V21.4979H40.4446V17.646Z" fill="#E45858"/>
<path d="M30.8157 17.646H26.9639V21.4979H30.8157V17.646Z" fill="#E45858"/>
<path d="M50.0745 17.646H46.2227V21.4979H50.0745V17.646Z" fill="#E45858"/>
<path d="M15.408 58.0911C15.129 58.0925 14.853 58.0334 14.5991 57.9177C14.2648 57.763 13.9819 57.5157 13.7839 57.205C13.5859 56.8944 13.4811 56.5335 13.482 56.1651V49.8866C10.4176 49.0701 7.67979 47.328 5.64218 44.8979C3.60457 42.4678 2.36646 39.4682 2.09682 36.3084C1.82718 33.1486 2.53916 29.9825 4.13557 27.2423C5.73199 24.5021 8.13507 22.3213 11.0168 20.9975C11.2494 20.8749 11.5047 20.8013 11.7668 20.7811C12.029 20.7609 12.2925 20.7946 12.5411 20.8801C12.7897 20.9656 13.0182 21.1011 13.2125 21.2783C13.4067 21.4554 13.5627 21.6705 13.6707 21.9102C13.7787 22.1499 13.8364 22.4092 13.8404 22.6721C13.8444 22.935 13.7946 23.1959 13.6939 23.4388C13.5932 23.6816 13.4439 23.9013 13.2551 24.0843C13.0663 24.2673 12.842 24.4097 12.5961 24.5027C10.3234 25.5332 8.44527 27.2717 7.24268 29.4583C6.04009 31.6448 5.57764 34.1619 5.92448 36.6332C6.27132 39.1044 7.40881 41.3969 9.16685 43.168C10.9249 44.939 13.209 46.0934 15.6776 46.4584C16.1404 46.5238 16.5636 46.7552 16.8683 47.1096C17.173 47.4639 17.3385 47.917 17.3339 48.3843V52.1206L23.4199 47.0554C23.7554 46.7404 24.1927 46.5559 24.6525 46.5354H28.8895C30.4319 46.5383 31.9589 46.2293 33.3788 45.6269C34.7986 45.0245 36.082 44.1413 37.1518 43.0302C37.5094 42.6625 37.9984 42.4518 38.5113 42.4446C38.7652 42.441 39.0174 42.4875 39.2534 42.5813C39.4894 42.6752 39.7045 42.8147 39.8867 42.9917C40.0688 43.1687 40.2142 43.3799 40.3147 43.6132C40.4152 43.8464 40.4687 44.0972 40.4723 44.3511C40.4759 44.6051 40.4294 44.8573 40.3355 45.0933C40.2417 45.3292 40.1022 45.5444 39.9252 45.7265C38.4901 47.2009 36.7742 48.3729 34.8789 49.1734C32.9835 49.9738 30.947 50.3866 28.8895 50.3873H25.3458L16.6406 57.6481C16.2941 57.9352 15.858 58.0919 15.408 58.0911Z" fill="#464DEA"/>
</svg>
