<svg width="53" height="62" viewBox="0 0 53 62" fill="none" xmlns="http://www.w3.org/2000/svg">
<path d="M25.8536 3.30049C26.0182 3.08911 26.1712 2.8868 26.3128 2.69516C26.4537 2.88642 26.6061 3.08829 26.7699 3.29919C27.9171 4.77582 29.6376 6.71064 31.936 8.5437C36.2595 11.9918 42.6602 15.0959 51.0654 14.0641C51.079 15.0957 51.0676 16.5718 50.9691 18.3731C50.7681 22.0483 50.2059 27.0535 48.7666 32.3893C45.921 42.9389 39.718 54.5644 26.3135 60.0113C12.877 54.5639 6.66036 42.9373 3.8086 32.3885C2.36616 27.0529 1.8027 22.0479 1.60126 18.3729C1.50251 16.5714 1.49106 15.0953 1.5047 14.0636C9.92808 15.0966 16.3428 11.9931 20.6762 8.54471C22.9796 6.71181 24.7039 4.77711 25.8536 3.30049Z" stroke="#464DEA" stroke-width="3" stroke-linecap="round" stroke-linejoin="round"/>
<path fill-rule="evenodd" clip-rule="evenodd" d="M12.6914 32.625L21.7539 41.6875L39.8789 23.5625L36.2539 19.9375L21.7539 34.4375L16.3164 29L12.6914 32.625Z" fill="#E45858"/>
</svg>
